%TF.GenerationSoftware,KiCad,Pcbnew,9.0.5*%
%TF.CreationDate,2025-10-18T19:05:01+03:30*%
%TF.ProjectId,swallow,7377616c-6c6f-4772-9e6b-696361645f70,rev?*%
%TF.SameCoordinates,Original*%
%TF.FileFunction,Copper,L2,Bot*%
%TF.FilePolarity,Positive*%
%FSLAX46Y46*%
G04 Gerber Fmt 4.6, Leading zero omitted, Abs format (unit mm)*
G04 Created by KiCad (PCBNEW 9.0.5) date 2025-10-18 19:05:01*
%MOMM*%
%LPD*%
G01*
G04 APERTURE LIST*
G04 Aperture macros list*
%AMRoundRect*
0 Rectangle with rounded corners*
0 $1 Rounding radius*
0 $2 $3 $4 $5 $6 $7 $8 $9 X,Y pos of 4 corners*
0 Add a 4 corners polygon primitive as box body*
4,1,4,$2,$3,$4,$5,$6,$7,$8,$9,$2,$3,0*
0 Add four circle primitives for the rounded corners*
1,1,$1+$1,$2,$3*
1,1,$1+$1,$4,$5*
1,1,$1+$1,$6,$7*
1,1,$1+$1,$8,$9*
0 Add four rect primitives between the rounded corners*
20,1,$1+$1,$2,$3,$4,$5,0*
20,1,$1+$1,$4,$5,$6,$7,0*
20,1,$1+$1,$6,$7,$8,$9,0*
20,1,$1+$1,$8,$9,$2,$3,0*%
G04 Aperture macros list end*
%TA.AperFunction,ComponentPad*%
%ADD10C,2.000000*%
%TD*%
%TA.AperFunction,ComponentPad*%
%ADD11C,1.600000*%
%TD*%
%TA.AperFunction,ComponentPad*%
%ADD12RoundRect,0.250000X0.550000X-0.550000X0.550000X0.550000X-0.550000X0.550000X-0.550000X-0.550000X0*%
%TD*%
%TA.AperFunction,ComponentPad*%
%ADD13C,1.800000*%
%TD*%
%TA.AperFunction,ComponentPad*%
%ADD14R,1.800000X1.800000*%
%TD*%
%TA.AperFunction,ComponentPad*%
%ADD15R,1.700000X1.700000*%
%TD*%
%TA.AperFunction,ComponentPad*%
%ADD16C,2.800000*%
%TD*%
%TA.AperFunction,ComponentPad*%
%ADD17RoundRect,0.250001X-1.149999X-1.149999X1.149999X-1.149999X1.149999X1.149999X-1.149999X1.149999X0*%
%TD*%
%TA.AperFunction,ComponentPad*%
%ADD18C,1.700000*%
%TD*%
%TA.AperFunction,ComponentPad*%
%ADD19RoundRect,0.250001X0.949999X0.949999X-0.949999X0.949999X-0.949999X-0.949999X0.949999X-0.949999X0*%
%TD*%
%TA.AperFunction,ComponentPad*%
%ADD20C,2.400000*%
%TD*%
G04 APERTURE END LIST*
D10*
%TO.P,SW1,2,2*%
%TO.N,Net-(J1-GPIO26)*%
X167700000Y-83900000D03*
X174200000Y-83900000D03*
%TO.P,SW1,1,1*%
%TO.N,Net-(D1-K)*%
X167700000Y-88400000D03*
X174200000Y-88400000D03*
%TD*%
D11*
%TO.P,C1,2*%
%TO.N,Net-(D1-K)*%
X127800000Y-62952651D03*
D12*
%TO.P,C1,1*%
%TO.N,Net-(D4-K)*%
X127800000Y-66452651D03*
%TD*%
D13*
%TO.P,D6,2,A*%
%TO.N,Net-(D6-A)*%
X182490000Y-86150000D03*
D14*
%TO.P,D6,1,K*%
%TO.N,Net-(D1-K)*%
X179950000Y-86150000D03*
%TD*%
D13*
%TO.P,D7,2,A*%
%TO.N,Net-(D7-A)*%
X190450000Y-86150000D03*
D14*
%TO.P,D7,1,K*%
%TO.N,Net-(D1-K)*%
X187910000Y-86150000D03*
%TD*%
D11*
%TO.P,R9,1*%
%TO.N,Net-(J5-Pin_1)*%
X175950000Y-116730000D03*
%TO.P,R9,2*%
%TO.N,Net-(J1-GPIO20{slash}MOSI1)*%
X175950000Y-106570000D03*
%TD*%
%TO.P,R10,2*%
%TO.N,Net-(D1-K)*%
X185950000Y-92650000D03*
%TO.P,R10,1*%
%TO.N,Net-(J1-GPIO21{slash}SCLK1)*%
X185950000Y-102810000D03*
%TD*%
%TO.P,R11,2*%
%TO.N,Net-(D7-A)*%
X190950000Y-92650000D03*
%TO.P,R11,1*%
%TO.N,Net-(J1-GPIO21{slash}SCLK1)*%
X190950000Y-102810000D03*
%TD*%
%TO.P,R12,2*%
%TO.N,Net-(J1-GPIO21{slash}SCLK1)*%
X185950000Y-106650000D03*
%TO.P,R12,1*%
%TO.N,Net-(J6-Pin_1)*%
X185950000Y-116810000D03*
%TD*%
%TO.P,R7,1*%
%TO.N,Net-(J1-GPIO20{slash}MOSI1)*%
X175950000Y-102810000D03*
%TO.P,R7,2*%
%TO.N,Net-(D1-K)*%
X175950000Y-92650000D03*
%TD*%
%TO.P,R8,1*%
%TO.N,Net-(D6-A)*%
X180950000Y-92650000D03*
%TO.P,R8,2*%
%TO.N,Net-(J1-GPIO20{slash}MOSI1)*%
X180950000Y-102810000D03*
%TD*%
D15*
%TO.P,J5,1,Pin_1*%
%TO.N,Net-(J5-Pin_1)*%
X181450000Y-109150000D03*
%TD*%
%TO.P,J6,1,Pin_1*%
%TO.N,Net-(J6-Pin_1)*%
X181450000Y-113650000D03*
%TD*%
D16*
%TO.P,J8,2,Pin_2*%
%TO.N,Net-(D4-K)*%
X138000000Y-108060000D03*
D17*
%TO.P,J8,1,Pin_1*%
%TO.N,Net-(D1-K)*%
X133000000Y-108060000D03*
%TD*%
D15*
%TO.P,J4,1,Pin_1*%
%TO.N,Net-(D4-K)*%
X137960000Y-91980000D03*
D18*
%TO.P,J4,2,Pin_2*%
X140500000Y-91980000D03*
%TO.P,J4,3,Pin_3*%
X137960000Y-94520000D03*
%TO.P,J4,4,Pin_4*%
X140500000Y-94520000D03*
%TO.P,J4,5,Pin_5*%
X137960000Y-97060000D03*
%TO.P,J4,6,Pin_6*%
X140500000Y-97060000D03*
%TO.P,J4,7,Pin_7*%
X137960000Y-99600000D03*
%TO.P,J4,8,Pin_8*%
X140500000Y-99600000D03*
%TD*%
D19*
%TO.P,D4,1,K*%
%TO.N,Net-(D4-K)*%
X140700000Y-84020000D03*
D20*
%TO.P,D4,2,A*%
%TO.N,Net-(D1-K)*%
X130540000Y-84020000D03*
%TD*%
D15*
%TO.P,J3,1,Pin_1*%
%TO.N,Net-(D1-K)*%
X130960000Y-91980000D03*
D18*
%TO.P,J3,2,Pin_2*%
X133500000Y-91980000D03*
%TO.P,J3,3,Pin_3*%
X130960000Y-94520000D03*
%TO.P,J3,4,Pin_4*%
X133500000Y-94520000D03*
%TO.P,J3,5,Pin_5*%
X130960000Y-97060000D03*
%TO.P,J3,6,Pin_6*%
X133500000Y-97060000D03*
%TO.P,J3,7,Pin_7*%
X130960000Y-99600000D03*
%TO.P,J3,8,Pin_8*%
X133500000Y-99600000D03*
%TD*%
D15*
%TO.P,J1,1,3V3*%
%TO.N,Net-(J1-3V3-Pad1)*%
X137740000Y-73040000D03*
D18*
%TO.P,J1,2,5V*%
%TO.N,Net-(D4-K)*%
X137740000Y-70500000D03*
%TO.P,J1,3,SDA/GPIO2*%
%TO.N,unconnected-(J1-SDA{slash}GPIO2-Pad3)*%
X140280000Y-73040000D03*
%TO.P,J1,4,5V*%
%TO.N,Net-(D4-K)*%
X140280000Y-70500000D03*
%TO.P,J1,5,SCL/GPIO3*%
%TO.N,unconnected-(J1-SCL{slash}GPIO3-Pad5)*%
X142820000Y-73040000D03*
%TO.P,J1,6,GND*%
%TO.N,Net-(D1-K)*%
X142820000Y-70500000D03*
%TO.P,J1,7,GCLK0/GPIO4*%
%TO.N,unconnected-(J1-GCLK0{slash}GPIO4-Pad7)*%
X145360000Y-73040000D03*
%TO.P,J1,8,GPIO14/TXD*%
%TO.N,unconnected-(J1-GPIO14{slash}TXD-Pad8)*%
X145360000Y-70500000D03*
%TO.P,J1,9,GND*%
%TO.N,Net-(D1-K)*%
X147900000Y-73040000D03*
%TO.P,J1,10,GPIO15/RXD*%
%TO.N,unconnected-(J1-GPIO15{slash}RXD-Pad10)*%
X147900000Y-70500000D03*
%TO.P,J1,11,GPIO17*%
%TO.N,Net-(J1-GPIO17)*%
X150440000Y-73040000D03*
%TO.P,J1,12,GPIO18/PWM0*%
%TO.N,Net-(J1-GPIO18{slash}PWM0)*%
X150440000Y-70500000D03*
%TO.P,J1,13,GPIO27*%
%TO.N,Net-(J1-GPIO27)*%
X152980000Y-73040000D03*
%TO.P,J1,14,GND*%
%TO.N,Net-(D1-K)*%
X152980000Y-70500000D03*
%TO.P,J1,15,GPIO22*%
%TO.N,Net-(J1-GPIO22)*%
X155520000Y-73040000D03*
%TO.P,J1,16,GPIO23*%
%TO.N,Net-(J1-GPIO23)*%
X155520000Y-70500000D03*
%TO.P,J1,17,3V3*%
%TO.N,Net-(J1-3V3-Pad1)*%
X158060000Y-73040000D03*
%TO.P,J1,18,GPIO24*%
%TO.N,Net-(J1-GPIO24)*%
X158060000Y-70500000D03*
%TO.P,J1,19,MOSI0/GPIO10*%
%TO.N,unconnected-(J1-MOSI0{slash}GPIO10-Pad19)*%
X160600000Y-73040000D03*
%TO.P,J1,20,GND*%
%TO.N,Net-(D1-K)*%
X160600000Y-70500000D03*
%TO.P,J1,21,MISO0/GPIO9*%
%TO.N,unconnected-(J1-MISO0{slash}GPIO9-Pad21)*%
X163140000Y-73040000D03*
%TO.P,J1,22,GPIO25*%
%TO.N,Net-(J1-GPIO25)*%
X163140000Y-70500000D03*
%TO.P,J1,23,SCLK0/GPIO11*%
%TO.N,unconnected-(J1-SCLK0{slash}GPIO11-Pad23)*%
X165680000Y-73040000D03*
%TO.P,J1,24,~{CE0}/GPIO8*%
%TO.N,unconnected-(J1-~{CE0}{slash}GPIO8-Pad24)*%
X165680000Y-70500000D03*
%TO.P,J1,25,GND*%
%TO.N,Net-(D1-K)*%
X168220000Y-73040000D03*
%TO.P,J1,26,~{CE1}/GPIO7*%
%TO.N,unconnected-(J1-~{CE1}{slash}GPIO7-Pad26)*%
X168220000Y-70500000D03*
%TO.P,J1,27,ID_SD/GPIO0*%
%TO.N,unconnected-(J1-ID_SD{slash}GPIO0-Pad27)*%
X170760000Y-73040000D03*
%TO.P,J1,28,ID_SC/GPIO1*%
%TO.N,unconnected-(J1-ID_SC{slash}GPIO1-Pad28)*%
X170760000Y-70500000D03*
%TO.P,J1,29,GCLK1/GPIO5*%
%TO.N,Net-(J1-GCLK1{slash}GPIO5)*%
X173300000Y-73040000D03*
%TO.P,J1,30,GND*%
%TO.N,Net-(D1-K)*%
X173300000Y-70500000D03*
%TO.P,J1,31,GCLK2/GPIO6*%
%TO.N,Net-(J1-GCLK2{slash}GPIO6)*%
X175840000Y-73040000D03*
%TO.P,J1,32,PWM0/GPIO12*%
%TO.N,Net-(J1-PWM0{slash}GPIO12)*%
X175840000Y-70500000D03*
%TO.P,J1,33,PWM1/GPIO13*%
%TO.N,Net-(J1-PWM1{slash}GPIO13)*%
X178380000Y-73040000D03*
%TO.P,J1,34,GND*%
%TO.N,Net-(D1-K)*%
X178380000Y-70500000D03*
%TO.P,J1,35,GPIO19/MISO1*%
%TO.N,Net-(J1-GPIO19{slash}MISO1)*%
X180920000Y-73040000D03*
%TO.P,J1,36,GPIO16*%
%TO.N,Net-(J1-GPIO16)*%
X180920000Y-70500000D03*
%TO.P,J1,37,GPIO26*%
%TO.N,Net-(J1-GPIO26)*%
X183460000Y-73040000D03*
%TO.P,J1,38,GPIO20/MOSI1*%
%TO.N,Net-(J1-GPIO20{slash}MOSI1)*%
X183460000Y-70500000D03*
%TO.P,J1,39,GND*%
%TO.N,Net-(D1-K)*%
X186000000Y-73040000D03*
%TO.P,J1,40,GPIO21/SCLK1*%
%TO.N,Net-(J1-GPIO21{slash}SCLK1)*%
X186000000Y-70500000D03*
%TD*%
D15*
%TO.P,J10,1,Pin_1*%
%TO.N,Net-(D4-K)*%
X137670000Y-66250000D03*
D18*
%TO.P,J10,2,Pin_2*%
%TO.N,unconnected-(J10-Pin_2-Pad2)*%
X140210000Y-66250000D03*
%TO.P,J10,3,Pin_3*%
%TO.N,Net-(D1-K)*%
X142750000Y-66250000D03*
%TO.P,J10,4,Pin_4*%
%TO.N,unconnected-(J10-Pin_4-Pad4)*%
X145290000Y-66250000D03*
%TO.P,J10,5,Pin_5*%
%TO.N,unconnected-(J10-Pin_5-Pad5)*%
X147830000Y-66250000D03*
%TO.P,J10,6,Pin_6*%
%TO.N,Net-(J1-GPIO18{slash}PWM0)*%
X150370000Y-66250000D03*
%TO.P,J10,7,Pin_7*%
%TO.N,unconnected-(J10-Pin_7-Pad7)*%
X152910000Y-66250000D03*
%TO.P,J10,8,Pin_8*%
%TO.N,Net-(J1-GPIO23)*%
X155450000Y-66250000D03*
%TO.P,J10,9,Pin_9*%
%TO.N,Net-(J1-GPIO24)*%
X157990000Y-66250000D03*
%TO.P,J10,10,Pin_10*%
%TO.N,unconnected-(J10-Pin_10-Pad10)*%
X160530000Y-66250000D03*
%TO.P,J10,11,Pin_11*%
%TO.N,Net-(J1-GPIO25)*%
X163070000Y-66250000D03*
%TO.P,J10,12,Pin_12*%
%TO.N,unconnected-(J10-Pin_12-Pad12)*%
X165610000Y-66250000D03*
%TO.P,J10,13,Pin_13*%
%TO.N,unconnected-(J10-Pin_13-Pad13)*%
X168150000Y-66250000D03*
%TO.P,J10,14,Pin_14*%
%TO.N,unconnected-(J10-Pin_14-Pad14)*%
X170690000Y-66250000D03*
%TO.P,J10,15,Pin_15*%
%TO.N,unconnected-(J10-Pin_15-Pad15)*%
X173230000Y-66250000D03*
%TO.P,J10,16,Pin_16*%
%TO.N,Net-(J1-PWM0{slash}GPIO12)*%
X175770000Y-66250000D03*
%TO.P,J10,17,Pin_17*%
%TO.N,unconnected-(J10-Pin_17-Pad17)*%
X178310000Y-66250000D03*
%TO.P,J10,18,Pin_18*%
%TO.N,Net-(J1-GPIO16)*%
X180850000Y-66250000D03*
%TO.P,J10,19,Pin_19*%
%TO.N,Net-(J1-GPIO20{slash}MOSI1)*%
X183390000Y-66250000D03*
%TO.P,J10,20,Pin_20*%
%TO.N,Net-(J1-GPIO21{slash}SCLK1)*%
X185930000Y-66250000D03*
%TD*%
D11*
%TO.P,R5,1*%
%TO.N,Net-(J1-GPIO25)*%
X162730000Y-103160000D03*
%TO.P,R5,2*%
%TO.N,Net-(D1-K)*%
X162730000Y-93000000D03*
%TD*%
%TO.P,R6,2*%
%TO.N,Net-(D5-A)*%
X167230000Y-93000000D03*
%TO.P,R6,1*%
%TO.N,Net-(J1-GPIO25)*%
X167230000Y-103160000D03*
%TD*%
%TO.P,R14,1*%
%TO.N,Net-(D8-A)*%
X157730000Y-93000000D03*
%TO.P,R14,2*%
%TO.N,Net-(J1-GPIO24)*%
X157730000Y-103160000D03*
%TD*%
D15*
%TO.P,J7,1,Pin_1*%
%TO.N,Net-(J7-Pin_1)*%
X158230000Y-109500000D03*
%TD*%
%TO.P,J2,1,Pin_1*%
%TO.N,Net-(J2-Pin_1)*%
X158230000Y-114000000D03*
%TD*%
D11*
%TO.P,R13,2*%
%TO.N,Net-(D1-K)*%
X152730000Y-93000000D03*
%TO.P,R13,1*%
%TO.N,Net-(J1-GPIO24)*%
X152730000Y-103160000D03*
%TD*%
%TO.P,R15,2*%
%TO.N,Net-(J1-GPIO24)*%
X152730000Y-107000000D03*
%TO.P,R15,1*%
%TO.N,Net-(J7-Pin_1)*%
X152730000Y-117160000D03*
%TD*%
%TO.P,R4,2*%
%TO.N,Net-(J1-GPIO25)*%
X162730000Y-107000000D03*
%TO.P,R4,1*%
%TO.N,Net-(J2-Pin_1)*%
X162730000Y-117160000D03*
%TD*%
D13*
%TO.P,D8,2,A*%
%TO.N,Net-(D8-A)*%
X154210000Y-86160000D03*
D14*
%TO.P,D8,1,K*%
%TO.N,Net-(D1-K)*%
X151670000Y-86160000D03*
%TD*%
D13*
%TO.P,D5,2,A*%
%TO.N,Net-(D5-A)*%
X161940000Y-86200000D03*
D14*
%TO.P,D5,1,K*%
%TO.N,Net-(D1-K)*%
X159400000Y-86200000D03*
%TD*%
D18*
%TO.P,J9,20,Pin_20*%
%TO.N,unconnected-(J9-Pin_20-Pad20)*%
X186010000Y-77250000D03*
%TO.P,J9,19,Pin_19*%
%TO.N,Net-(J1-GPIO26)*%
X183470000Y-77250000D03*
%TO.P,J9,18,Pin_18*%
%TO.N,Net-(J1-GPIO19{slash}MISO1)*%
X180930000Y-77250000D03*
%TO.P,J9,17,Pin_17*%
%TO.N,Net-(J1-PWM1{slash}GPIO13)*%
X178390000Y-77250000D03*
%TO.P,J9,16,Pin_16*%
%TO.N,Net-(J1-GCLK2{slash}GPIO6)*%
X175850000Y-77250000D03*
%TO.P,J9,15,Pin_15*%
%TO.N,Net-(J1-GCLK1{slash}GPIO5)*%
X173310000Y-77250000D03*
%TO.P,J9,14,Pin_14*%
%TO.N,unconnected-(J9-Pin_14-Pad14)*%
X170770000Y-77250000D03*
%TO.P,J9,13,Pin_13*%
%TO.N,Net-(D1-K)*%
X168230000Y-77250000D03*
%TO.P,J9,12,Pin_12*%
%TO.N,unconnected-(J9-Pin_12-Pad12)*%
X165690000Y-77250000D03*
%TO.P,J9,11,Pin_11*%
%TO.N,unconnected-(J9-Pin_11-Pad11)*%
X163150000Y-77250000D03*
%TO.P,J9,10,Pin_10*%
%TO.N,unconnected-(J9-Pin_10-Pad10)*%
X160610000Y-77250000D03*
%TO.P,J9,9,Pin_9*%
%TO.N,unconnected-(J9-Pin_9-Pad9)*%
X158070000Y-77250000D03*
%TO.P,J9,8,Pin_8*%
%TO.N,Net-(J1-GPIO22)*%
X155530000Y-77250000D03*
%TO.P,J9,7,Pin_7*%
%TO.N,Net-(J1-GPIO27)*%
X152990000Y-77250000D03*
%TO.P,J9,6,Pin_6*%
%TO.N,Net-(J1-GPIO17)*%
X150450000Y-77250000D03*
%TO.P,J9,5,Pin_5*%
%TO.N,unconnected-(J9-Pin_5-Pad5)*%
X147910000Y-77250000D03*
%TO.P,J9,4,Pin_4*%
%TO.N,unconnected-(J9-Pin_4-Pad4)*%
X145370000Y-77250000D03*
%TO.P,J9,3,Pin_3*%
%TO.N,unconnected-(J9-Pin_3-Pad3)*%
X142830000Y-77250000D03*
%TO.P,J9,2,Pin_2*%
%TO.N,unconnected-(J9-Pin_2-Pad2)*%
X140290000Y-77250000D03*
D15*
%TO.P,J9,1,Pin_1*%
%TO.N,unconnected-(J9-Pin_1-Pad1)*%
X137750000Y-77250000D03*
%TD*%
D13*
%TO.P,D3,2,A*%
%TO.N,Net-(D3-A)*%
X149270000Y-122930000D03*
D14*
%TO.P,D3,1,K*%
%TO.N,Net-(D1-K)*%
X146730000Y-122930000D03*
%TD*%
D13*
%TO.P,D2,2,A*%
%TO.N,Net-(D2-A)*%
X157970000Y-123030000D03*
D14*
%TO.P,D2,1,K*%
%TO.N,Net-(D1-K)*%
X155430000Y-123030000D03*
%TD*%
D11*
%TO.P,R3,2*%
%TO.N,Net-(J1-GPIO22)*%
X146300000Y-107720000D03*
%TO.P,R3,1*%
%TO.N,Net-(D3-A)*%
X146300000Y-117880000D03*
%TD*%
%TO.P,R1,2*%
%TO.N,Net-(J1-GPIO17)*%
X146300000Y-81300000D03*
%TO.P,R1,1*%
%TO.N,Net-(D1-A)*%
X146300000Y-91460000D03*
%TD*%
D13*
%TO.P,D1,2,A*%
%TO.N,Net-(D1-A)*%
X166670000Y-123030000D03*
D14*
%TO.P,D1,1,K*%
%TO.N,Net-(D1-K)*%
X164130000Y-123030000D03*
%TD*%
D11*
%TO.P,R2,2*%
%TO.N,Net-(J1-GPIO27)*%
X146300000Y-94600000D03*
%TO.P,R2,1*%
%TO.N,Net-(D2-A)*%
X146300000Y-104760000D03*
%TD*%
M02*
