%TF.GenerationSoftware,KiCad,Pcbnew,9.0.5*%
%TF.CreationDate,2025-10-18T19:05:01+03:30*%
%TF.ProjectId,swallow,7377616c-6c6f-4772-9e6b-696361645f70,rev?*%
%TF.SameCoordinates,Original*%
%TF.FileFunction,Soldermask,Top*%
%TF.FilePolarity,Negative*%
%FSLAX46Y46*%
G04 Gerber Fmt 4.6, Leading zero omitted, Abs format (unit mm)*
G04 Created by KiCad (PCBNEW 9.0.5) date 2025-10-18 19:05:01*
%MOMM*%
%LPD*%
G01*
G04 APERTURE LIST*
G04 Aperture macros list*
%AMRoundRect*
0 Rectangle with rounded corners*
0 $1 Rounding radius*
0 $2 $3 $4 $5 $6 $7 $8 $9 X,Y pos of 4 corners*
0 Add a 4 corners polygon primitive as box body*
4,1,4,$2,$3,$4,$5,$6,$7,$8,$9,$2,$3,0*
0 Add four circle primitives for the rounded corners*
1,1,$1+$1,$2,$3*
1,1,$1+$1,$4,$5*
1,1,$1+$1,$6,$7*
1,1,$1+$1,$8,$9*
0 Add four rect primitives between the rounded corners*
20,1,$1+$1,$2,$3,$4,$5,0*
20,1,$1+$1,$4,$5,$6,$7,0*
20,1,$1+$1,$6,$7,$8,$9,0*
20,1,$1+$1,$8,$9,$2,$3,0*%
G04 Aperture macros list end*
%ADD10C,2.000000*%
%ADD11C,1.600000*%
%ADD12RoundRect,0.250000X0.550000X-0.550000X0.550000X0.550000X-0.550000X0.550000X-0.550000X-0.550000X0*%
%ADD13C,1.800000*%
%ADD14R,1.800000X1.800000*%
%ADD15R,1.700000X1.700000*%
%ADD16C,2.800000*%
%ADD17RoundRect,0.250001X-1.149999X-1.149999X1.149999X-1.149999X1.149999X1.149999X-1.149999X1.149999X0*%
%ADD18C,1.700000*%
%ADD19RoundRect,0.250001X0.949999X0.949999X-0.949999X0.949999X-0.949999X-0.949999X0.949999X-0.949999X0*%
%ADD20C,2.400000*%
G04 APERTURE END LIST*
D10*
%TO.C,SW1*%
X167700000Y-83900000D03*
X174200000Y-83900000D03*
X167700000Y-88400000D03*
X174200000Y-88400000D03*
%TD*%
D11*
%TO.C,C1*%
X127800000Y-62952651D03*
D12*
X127800000Y-66452651D03*
%TD*%
D13*
%TO.C,D6*%
X182490000Y-86150000D03*
D14*
X179950000Y-86150000D03*
%TD*%
D13*
%TO.C,D7*%
X190450000Y-86150000D03*
D14*
X187910000Y-86150000D03*
%TD*%
D11*
%TO.C,R9*%
X175950000Y-116730000D03*
X175950000Y-106570000D03*
%TD*%
%TO.C,R10*%
X185950000Y-92650000D03*
X185950000Y-102810000D03*
%TD*%
%TO.C,R11*%
X190950000Y-92650000D03*
X190950000Y-102810000D03*
%TD*%
%TO.C,R12*%
X185950000Y-106650000D03*
X185950000Y-116810000D03*
%TD*%
%TO.C,R7*%
X175950000Y-102810000D03*
X175950000Y-92650000D03*
%TD*%
%TO.C,R8*%
X180950000Y-92650000D03*
X180950000Y-102810000D03*
%TD*%
D15*
%TO.C,J5*%
X181450000Y-109150000D03*
%TD*%
%TO.C,J6*%
X181450000Y-113650000D03*
%TD*%
D16*
%TO.C,J8*%
X138000000Y-108060000D03*
D17*
X133000000Y-108060000D03*
%TD*%
D15*
%TO.C,J4*%
X137960000Y-91980000D03*
D18*
X140500000Y-91980000D03*
X137960000Y-94520000D03*
X140500000Y-94520000D03*
X137960000Y-97060000D03*
X140500000Y-97060000D03*
X137960000Y-99600000D03*
X140500000Y-99600000D03*
%TD*%
D19*
%TO.C,D4*%
X140700000Y-84020000D03*
D20*
X130540000Y-84020000D03*
%TD*%
D15*
%TO.C,J3*%
X130960000Y-91980000D03*
D18*
X133500000Y-91980000D03*
X130960000Y-94520000D03*
X133500000Y-94520000D03*
X130960000Y-97060000D03*
X133500000Y-97060000D03*
X130960000Y-99600000D03*
X133500000Y-99600000D03*
%TD*%
D15*
%TO.C,J1*%
X137740000Y-73040000D03*
D18*
X137740000Y-70500000D03*
X140280000Y-73040000D03*
X140280000Y-70500000D03*
X142820000Y-73040000D03*
X142820000Y-70500000D03*
X145360000Y-73040000D03*
X145360000Y-70500000D03*
X147900000Y-73040000D03*
X147900000Y-70500000D03*
X150440000Y-73040000D03*
X150440000Y-70500000D03*
X152980000Y-73040000D03*
X152980000Y-70500000D03*
X155520000Y-73040000D03*
X155520000Y-70500000D03*
X158060000Y-73040000D03*
X158060000Y-70500000D03*
X160600000Y-73040000D03*
X160600000Y-70500000D03*
X163140000Y-73040000D03*
X163140000Y-70500000D03*
X165680000Y-73040000D03*
X165680000Y-70500000D03*
X168220000Y-73040000D03*
X168220000Y-70500000D03*
X170760000Y-73040000D03*
X170760000Y-70500000D03*
X173300000Y-73040000D03*
X173300000Y-70500000D03*
X175840000Y-73040000D03*
X175840000Y-70500000D03*
X178380000Y-73040000D03*
X178380000Y-70500000D03*
X180920000Y-73040000D03*
X180920000Y-70500000D03*
X183460000Y-73040000D03*
X183460000Y-70500000D03*
X186000000Y-73040000D03*
X186000000Y-70500000D03*
%TD*%
D15*
%TO.C,J10*%
X137670000Y-66250000D03*
D18*
X140210000Y-66250000D03*
X142750000Y-66250000D03*
X145290000Y-66250000D03*
X147830000Y-66250000D03*
X150370000Y-66250000D03*
X152910000Y-66250000D03*
X155450000Y-66250000D03*
X157990000Y-66250000D03*
X160530000Y-66250000D03*
X163070000Y-66250000D03*
X165610000Y-66250000D03*
X168150000Y-66250000D03*
X170690000Y-66250000D03*
X173230000Y-66250000D03*
X175770000Y-66250000D03*
X178310000Y-66250000D03*
X180850000Y-66250000D03*
X183390000Y-66250000D03*
X185930000Y-66250000D03*
%TD*%
D11*
%TO.C,R5*%
X162730000Y-103160000D03*
X162730000Y-93000000D03*
%TD*%
%TO.C,R6*%
X167230000Y-93000000D03*
X167230000Y-103160000D03*
%TD*%
%TO.C,R14*%
X157730000Y-93000000D03*
X157730000Y-103160000D03*
%TD*%
D15*
%TO.C,J7*%
X158230000Y-109500000D03*
%TD*%
%TO.C,J2*%
X158230000Y-114000000D03*
%TD*%
D11*
%TO.C,R13*%
X152730000Y-93000000D03*
X152730000Y-103160000D03*
%TD*%
%TO.C,R15*%
X152730000Y-107000000D03*
X152730000Y-117160000D03*
%TD*%
%TO.C,R4*%
X162730000Y-107000000D03*
X162730000Y-117160000D03*
%TD*%
D13*
%TO.C,D8*%
X154210000Y-86160000D03*
D14*
X151670000Y-86160000D03*
%TD*%
D13*
%TO.C,D5*%
X161940000Y-86200000D03*
D14*
X159400000Y-86200000D03*
%TD*%
D18*
%TO.C,J9*%
X186010000Y-77250000D03*
X183470000Y-77250000D03*
X180930000Y-77250000D03*
X178390000Y-77250000D03*
X175850000Y-77250000D03*
X173310000Y-77250000D03*
X170770000Y-77250000D03*
X168230000Y-77250000D03*
X165690000Y-77250000D03*
X163150000Y-77250000D03*
X160610000Y-77250000D03*
X158070000Y-77250000D03*
X155530000Y-77250000D03*
X152990000Y-77250000D03*
X150450000Y-77250000D03*
X147910000Y-77250000D03*
X145370000Y-77250000D03*
X142830000Y-77250000D03*
X140290000Y-77250000D03*
D15*
X137750000Y-77250000D03*
%TD*%
D13*
%TO.C,D3*%
X149270000Y-122930000D03*
D14*
X146730000Y-122930000D03*
%TD*%
D13*
%TO.C,D2*%
X157970000Y-123030000D03*
D14*
X155430000Y-123030000D03*
%TD*%
D11*
%TO.C,R3*%
X146300000Y-107720000D03*
X146300000Y-117880000D03*
%TD*%
%TO.C,R1*%
X146300000Y-81300000D03*
X146300000Y-91460000D03*
%TD*%
D13*
%TO.C,D1*%
X166670000Y-123030000D03*
D14*
X164130000Y-123030000D03*
%TD*%
D11*
%TO.C,R2*%
X146300000Y-94600000D03*
X146300000Y-104760000D03*
%TD*%
M02*
