%TF.GenerationSoftware,KiCad,Pcbnew,9.0.5*%
%TF.CreationDate,2025-10-18T19:05:01+03:30*%
%TF.ProjectId,swallow,7377616c-6c6f-4772-9e6b-696361645f70,rev?*%
%TF.SameCoordinates,Original*%
%TF.FileFunction,Copper,L1,Top*%
%TF.FilePolarity,Positive*%
%FSLAX46Y46*%
G04 Gerber Fmt 4.6, Leading zero omitted, Abs format (unit mm)*
G04 Created by KiCad (PCBNEW 9.0.5) date 2025-10-18 19:05:01*
%MOMM*%
%LPD*%
G01*
G04 APERTURE LIST*
G04 Aperture macros list*
%AMRoundRect*
0 Rectangle with rounded corners*
0 $1 Rounding radius*
0 $2 $3 $4 $5 $6 $7 $8 $9 X,Y pos of 4 corners*
0 Add a 4 corners polygon primitive as box body*
4,1,4,$2,$3,$4,$5,$6,$7,$8,$9,$2,$3,0*
0 Add four circle primitives for the rounded corners*
1,1,$1+$1,$2,$3*
1,1,$1+$1,$4,$5*
1,1,$1+$1,$6,$7*
1,1,$1+$1,$8,$9*
0 Add four rect primitives between the rounded corners*
20,1,$1+$1,$2,$3,$4,$5,0*
20,1,$1+$1,$4,$5,$6,$7,0*
20,1,$1+$1,$6,$7,$8,$9,0*
20,1,$1+$1,$8,$9,$2,$3,0*%
G04 Aperture macros list end*
%TA.AperFunction,ComponentPad*%
%ADD10C,2.000000*%
%TD*%
%TA.AperFunction,ComponentPad*%
%ADD11C,1.600000*%
%TD*%
%TA.AperFunction,ComponentPad*%
%ADD12RoundRect,0.250000X0.550000X-0.550000X0.550000X0.550000X-0.550000X0.550000X-0.550000X-0.550000X0*%
%TD*%
%TA.AperFunction,ComponentPad*%
%ADD13C,1.800000*%
%TD*%
%TA.AperFunction,ComponentPad*%
%ADD14R,1.800000X1.800000*%
%TD*%
%TA.AperFunction,ComponentPad*%
%ADD15R,1.700000X1.700000*%
%TD*%
%TA.AperFunction,ComponentPad*%
%ADD16C,2.800000*%
%TD*%
%TA.AperFunction,ComponentPad*%
%ADD17RoundRect,0.250001X-1.149999X-1.149999X1.149999X-1.149999X1.149999X1.149999X-1.149999X1.149999X0*%
%TD*%
%TA.AperFunction,ComponentPad*%
%ADD18C,1.700000*%
%TD*%
%TA.AperFunction,ComponentPad*%
%ADD19RoundRect,0.250001X0.949999X0.949999X-0.949999X0.949999X-0.949999X-0.949999X0.949999X-0.949999X0*%
%TD*%
%TA.AperFunction,ComponentPad*%
%ADD20C,2.400000*%
%TD*%
%TA.AperFunction,Conductor*%
%ADD21C,0.250000*%
%TD*%
%TA.AperFunction,Conductor*%
%ADD22C,0.200000*%
%TD*%
%TA.AperFunction,Conductor*%
%ADD23C,1.000000*%
%TD*%
%TA.AperFunction,Conductor*%
%ADD24C,2.400000*%
%TD*%
G04 APERTURE END LIST*
D10*
%TO.P,SW1,2,2*%
%TO.N,Net-(J1-GPIO26)*%
X167700000Y-83900000D03*
X174200000Y-83900000D03*
%TO.P,SW1,1,1*%
%TO.N,Net-(D1-K)*%
X167700000Y-88400000D03*
X174200000Y-88400000D03*
%TD*%
D11*
%TO.P,C1,2*%
%TO.N,Net-(D1-K)*%
X127800000Y-62952651D03*
D12*
%TO.P,C1,1*%
%TO.N,Net-(D4-K)*%
X127800000Y-66452651D03*
%TD*%
D13*
%TO.P,D6,2,A*%
%TO.N,Net-(D6-A)*%
X182490000Y-86150000D03*
D14*
%TO.P,D6,1,K*%
%TO.N,Net-(D1-K)*%
X179950000Y-86150000D03*
%TD*%
D13*
%TO.P,D7,2,A*%
%TO.N,Net-(D7-A)*%
X190450000Y-86150000D03*
D14*
%TO.P,D7,1,K*%
%TO.N,Net-(D1-K)*%
X187910000Y-86150000D03*
%TD*%
D11*
%TO.P,R9,1*%
%TO.N,Net-(J5-Pin_1)*%
X175950000Y-116730000D03*
%TO.P,R9,2*%
%TO.N,Net-(J1-GPIO20{slash}MOSI1)*%
X175950000Y-106570000D03*
%TD*%
%TO.P,R10,2*%
%TO.N,Net-(D1-K)*%
X185950000Y-92650000D03*
%TO.P,R10,1*%
%TO.N,Net-(J1-GPIO21{slash}SCLK1)*%
X185950000Y-102810000D03*
%TD*%
%TO.P,R11,2*%
%TO.N,Net-(D7-A)*%
X190950000Y-92650000D03*
%TO.P,R11,1*%
%TO.N,Net-(J1-GPIO21{slash}SCLK1)*%
X190950000Y-102810000D03*
%TD*%
%TO.P,R12,2*%
%TO.N,Net-(J1-GPIO21{slash}SCLK1)*%
X185950000Y-106650000D03*
%TO.P,R12,1*%
%TO.N,Net-(J6-Pin_1)*%
X185950000Y-116810000D03*
%TD*%
%TO.P,R7,1*%
%TO.N,Net-(J1-GPIO20{slash}MOSI1)*%
X175950000Y-102810000D03*
%TO.P,R7,2*%
%TO.N,Net-(D1-K)*%
X175950000Y-92650000D03*
%TD*%
%TO.P,R8,1*%
%TO.N,Net-(D6-A)*%
X180950000Y-92650000D03*
%TO.P,R8,2*%
%TO.N,Net-(J1-GPIO20{slash}MOSI1)*%
X180950000Y-102810000D03*
%TD*%
D15*
%TO.P,J5,1,Pin_1*%
%TO.N,Net-(J5-Pin_1)*%
X181450000Y-109150000D03*
%TD*%
%TO.P,J6,1,Pin_1*%
%TO.N,Net-(J6-Pin_1)*%
X181450000Y-113650000D03*
%TD*%
D16*
%TO.P,J8,2,Pin_2*%
%TO.N,Net-(D4-K)*%
X138000000Y-108060000D03*
D17*
%TO.P,J8,1,Pin_1*%
%TO.N,Net-(D1-K)*%
X133000000Y-108060000D03*
%TD*%
D15*
%TO.P,J4,1,Pin_1*%
%TO.N,Net-(D4-K)*%
X137960000Y-91980000D03*
D18*
%TO.P,J4,2,Pin_2*%
X140500000Y-91980000D03*
%TO.P,J4,3,Pin_3*%
X137960000Y-94520000D03*
%TO.P,J4,4,Pin_4*%
X140500000Y-94520000D03*
%TO.P,J4,5,Pin_5*%
X137960000Y-97060000D03*
%TO.P,J4,6,Pin_6*%
X140500000Y-97060000D03*
%TO.P,J4,7,Pin_7*%
X137960000Y-99600000D03*
%TO.P,J4,8,Pin_8*%
X140500000Y-99600000D03*
%TD*%
D19*
%TO.P,D4,1,K*%
%TO.N,Net-(D4-K)*%
X140700000Y-84020000D03*
D20*
%TO.P,D4,2,A*%
%TO.N,Net-(D1-K)*%
X130540000Y-84020000D03*
%TD*%
D15*
%TO.P,J3,1,Pin_1*%
%TO.N,Net-(D1-K)*%
X130960000Y-91980000D03*
D18*
%TO.P,J3,2,Pin_2*%
X133500000Y-91980000D03*
%TO.P,J3,3,Pin_3*%
X130960000Y-94520000D03*
%TO.P,J3,4,Pin_4*%
X133500000Y-94520000D03*
%TO.P,J3,5,Pin_5*%
X130960000Y-97060000D03*
%TO.P,J3,6,Pin_6*%
X133500000Y-97060000D03*
%TO.P,J3,7,Pin_7*%
X130960000Y-99600000D03*
%TO.P,J3,8,Pin_8*%
X133500000Y-99600000D03*
%TD*%
D15*
%TO.P,J1,1,3V3*%
%TO.N,Net-(J1-3V3-Pad1)*%
X137740000Y-73040000D03*
D18*
%TO.P,J1,2,5V*%
%TO.N,Net-(D4-K)*%
X137740000Y-70500000D03*
%TO.P,J1,3,SDA/GPIO2*%
%TO.N,unconnected-(J1-SDA{slash}GPIO2-Pad3)*%
X140280000Y-73040000D03*
%TO.P,J1,4,5V*%
%TO.N,Net-(D4-K)*%
X140280000Y-70500000D03*
%TO.P,J1,5,SCL/GPIO3*%
%TO.N,unconnected-(J1-SCL{slash}GPIO3-Pad5)*%
X142820000Y-73040000D03*
%TO.P,J1,6,GND*%
%TO.N,Net-(D1-K)*%
X142820000Y-70500000D03*
%TO.P,J1,7,GCLK0/GPIO4*%
%TO.N,unconnected-(J1-GCLK0{slash}GPIO4-Pad7)*%
X145360000Y-73040000D03*
%TO.P,J1,8,GPIO14/TXD*%
%TO.N,unconnected-(J1-GPIO14{slash}TXD-Pad8)*%
X145360000Y-70500000D03*
%TO.P,J1,9,GND*%
%TO.N,Net-(D1-K)*%
X147900000Y-73040000D03*
%TO.P,J1,10,GPIO15/RXD*%
%TO.N,unconnected-(J1-GPIO15{slash}RXD-Pad10)*%
X147900000Y-70500000D03*
%TO.P,J1,11,GPIO17*%
%TO.N,Net-(J1-GPIO17)*%
X150440000Y-73040000D03*
%TO.P,J1,12,GPIO18/PWM0*%
%TO.N,Net-(J1-GPIO18{slash}PWM0)*%
X150440000Y-70500000D03*
%TO.P,J1,13,GPIO27*%
%TO.N,Net-(J1-GPIO27)*%
X152980000Y-73040000D03*
%TO.P,J1,14,GND*%
%TO.N,Net-(D1-K)*%
X152980000Y-70500000D03*
%TO.P,J1,15,GPIO22*%
%TO.N,Net-(J1-GPIO22)*%
X155520000Y-73040000D03*
%TO.P,J1,16,GPIO23*%
%TO.N,Net-(J1-GPIO23)*%
X155520000Y-70500000D03*
%TO.P,J1,17,3V3*%
%TO.N,Net-(J1-3V3-Pad1)*%
X158060000Y-73040000D03*
%TO.P,J1,18,GPIO24*%
%TO.N,Net-(J1-GPIO24)*%
X158060000Y-70500000D03*
%TO.P,J1,19,MOSI0/GPIO10*%
%TO.N,unconnected-(J1-MOSI0{slash}GPIO10-Pad19)*%
X160600000Y-73040000D03*
%TO.P,J1,20,GND*%
%TO.N,Net-(D1-K)*%
X160600000Y-70500000D03*
%TO.P,J1,21,MISO0/GPIO9*%
%TO.N,unconnected-(J1-MISO0{slash}GPIO9-Pad21)*%
X163140000Y-73040000D03*
%TO.P,J1,22,GPIO25*%
%TO.N,Net-(J1-GPIO25)*%
X163140000Y-70500000D03*
%TO.P,J1,23,SCLK0/GPIO11*%
%TO.N,unconnected-(J1-SCLK0{slash}GPIO11-Pad23)*%
X165680000Y-73040000D03*
%TO.P,J1,24,~{CE0}/GPIO8*%
%TO.N,unconnected-(J1-~{CE0}{slash}GPIO8-Pad24)*%
X165680000Y-70500000D03*
%TO.P,J1,25,GND*%
%TO.N,Net-(D1-K)*%
X168220000Y-73040000D03*
%TO.P,J1,26,~{CE1}/GPIO7*%
%TO.N,unconnected-(J1-~{CE1}{slash}GPIO7-Pad26)*%
X168220000Y-70500000D03*
%TO.P,J1,27,ID_SD/GPIO0*%
%TO.N,unconnected-(J1-ID_SD{slash}GPIO0-Pad27)*%
X170760000Y-73040000D03*
%TO.P,J1,28,ID_SC/GPIO1*%
%TO.N,unconnected-(J1-ID_SC{slash}GPIO1-Pad28)*%
X170760000Y-70500000D03*
%TO.P,J1,29,GCLK1/GPIO5*%
%TO.N,Net-(J1-GCLK1{slash}GPIO5)*%
X173300000Y-73040000D03*
%TO.P,J1,30,GND*%
%TO.N,Net-(D1-K)*%
X173300000Y-70500000D03*
%TO.P,J1,31,GCLK2/GPIO6*%
%TO.N,Net-(J1-GCLK2{slash}GPIO6)*%
X175840000Y-73040000D03*
%TO.P,J1,32,PWM0/GPIO12*%
%TO.N,Net-(J1-PWM0{slash}GPIO12)*%
X175840000Y-70500000D03*
%TO.P,J1,33,PWM1/GPIO13*%
%TO.N,Net-(J1-PWM1{slash}GPIO13)*%
X178380000Y-73040000D03*
%TO.P,J1,34,GND*%
%TO.N,Net-(D1-K)*%
X178380000Y-70500000D03*
%TO.P,J1,35,GPIO19/MISO1*%
%TO.N,Net-(J1-GPIO19{slash}MISO1)*%
X180920000Y-73040000D03*
%TO.P,J1,36,GPIO16*%
%TO.N,Net-(J1-GPIO16)*%
X180920000Y-70500000D03*
%TO.P,J1,37,GPIO26*%
%TO.N,Net-(J1-GPIO26)*%
X183460000Y-73040000D03*
%TO.P,J1,38,GPIO20/MOSI1*%
%TO.N,Net-(J1-GPIO20{slash}MOSI1)*%
X183460000Y-70500000D03*
%TO.P,J1,39,GND*%
%TO.N,Net-(D1-K)*%
X186000000Y-73040000D03*
%TO.P,J1,40,GPIO21/SCLK1*%
%TO.N,Net-(J1-GPIO21{slash}SCLK1)*%
X186000000Y-70500000D03*
%TD*%
D15*
%TO.P,J10,1,Pin_1*%
%TO.N,Net-(D4-K)*%
X137670000Y-66250000D03*
D18*
%TO.P,J10,2,Pin_2*%
%TO.N,unconnected-(J10-Pin_2-Pad2)*%
X140210000Y-66250000D03*
%TO.P,J10,3,Pin_3*%
%TO.N,Net-(D1-K)*%
X142750000Y-66250000D03*
%TO.P,J10,4,Pin_4*%
%TO.N,unconnected-(J10-Pin_4-Pad4)*%
X145290000Y-66250000D03*
%TO.P,J10,5,Pin_5*%
%TO.N,unconnected-(J10-Pin_5-Pad5)*%
X147830000Y-66250000D03*
%TO.P,J10,6,Pin_6*%
%TO.N,Net-(J1-GPIO18{slash}PWM0)*%
X150370000Y-66250000D03*
%TO.P,J10,7,Pin_7*%
%TO.N,unconnected-(J10-Pin_7-Pad7)*%
X152910000Y-66250000D03*
%TO.P,J10,8,Pin_8*%
%TO.N,Net-(J1-GPIO23)*%
X155450000Y-66250000D03*
%TO.P,J10,9,Pin_9*%
%TO.N,Net-(J1-GPIO24)*%
X157990000Y-66250000D03*
%TO.P,J10,10,Pin_10*%
%TO.N,unconnected-(J10-Pin_10-Pad10)*%
X160530000Y-66250000D03*
%TO.P,J10,11,Pin_11*%
%TO.N,Net-(J1-GPIO25)*%
X163070000Y-66250000D03*
%TO.P,J10,12,Pin_12*%
%TO.N,unconnected-(J10-Pin_12-Pad12)*%
X165610000Y-66250000D03*
%TO.P,J10,13,Pin_13*%
%TO.N,unconnected-(J10-Pin_13-Pad13)*%
X168150000Y-66250000D03*
%TO.P,J10,14,Pin_14*%
%TO.N,unconnected-(J10-Pin_14-Pad14)*%
X170690000Y-66250000D03*
%TO.P,J10,15,Pin_15*%
%TO.N,unconnected-(J10-Pin_15-Pad15)*%
X173230000Y-66250000D03*
%TO.P,J10,16,Pin_16*%
%TO.N,Net-(J1-PWM0{slash}GPIO12)*%
X175770000Y-66250000D03*
%TO.P,J10,17,Pin_17*%
%TO.N,unconnected-(J10-Pin_17-Pad17)*%
X178310000Y-66250000D03*
%TO.P,J10,18,Pin_18*%
%TO.N,Net-(J1-GPIO16)*%
X180850000Y-66250000D03*
%TO.P,J10,19,Pin_19*%
%TO.N,Net-(J1-GPIO20{slash}MOSI1)*%
X183390000Y-66250000D03*
%TO.P,J10,20,Pin_20*%
%TO.N,Net-(J1-GPIO21{slash}SCLK1)*%
X185930000Y-66250000D03*
%TD*%
D11*
%TO.P,R5,1*%
%TO.N,Net-(J1-GPIO25)*%
X162730000Y-103160000D03*
%TO.P,R5,2*%
%TO.N,Net-(D1-K)*%
X162730000Y-93000000D03*
%TD*%
%TO.P,R6,2*%
%TO.N,Net-(D5-A)*%
X167230000Y-93000000D03*
%TO.P,R6,1*%
%TO.N,Net-(J1-GPIO25)*%
X167230000Y-103160000D03*
%TD*%
%TO.P,R14,1*%
%TO.N,Net-(D8-A)*%
X157730000Y-93000000D03*
%TO.P,R14,2*%
%TO.N,Net-(J1-GPIO24)*%
X157730000Y-103160000D03*
%TD*%
D15*
%TO.P,J7,1,Pin_1*%
%TO.N,Net-(J7-Pin_1)*%
X158230000Y-109500000D03*
%TD*%
%TO.P,J2,1,Pin_1*%
%TO.N,Net-(J2-Pin_1)*%
X158230000Y-114000000D03*
%TD*%
D11*
%TO.P,R13,2*%
%TO.N,Net-(D1-K)*%
X152730000Y-93000000D03*
%TO.P,R13,1*%
%TO.N,Net-(J1-GPIO24)*%
X152730000Y-103160000D03*
%TD*%
%TO.P,R15,2*%
%TO.N,Net-(J1-GPIO24)*%
X152730000Y-107000000D03*
%TO.P,R15,1*%
%TO.N,Net-(J7-Pin_1)*%
X152730000Y-117160000D03*
%TD*%
%TO.P,R4,2*%
%TO.N,Net-(J1-GPIO25)*%
X162730000Y-107000000D03*
%TO.P,R4,1*%
%TO.N,Net-(J2-Pin_1)*%
X162730000Y-117160000D03*
%TD*%
D13*
%TO.P,D8,2,A*%
%TO.N,Net-(D8-A)*%
X154210000Y-86160000D03*
D14*
%TO.P,D8,1,K*%
%TO.N,Net-(D1-K)*%
X151670000Y-86160000D03*
%TD*%
D13*
%TO.P,D5,2,A*%
%TO.N,Net-(D5-A)*%
X161940000Y-86200000D03*
D14*
%TO.P,D5,1,K*%
%TO.N,Net-(D1-K)*%
X159400000Y-86200000D03*
%TD*%
D18*
%TO.P,J9,20,Pin_20*%
%TO.N,unconnected-(J9-Pin_20-Pad20)*%
X186010000Y-77250000D03*
%TO.P,J9,19,Pin_19*%
%TO.N,Net-(J1-GPIO26)*%
X183470000Y-77250000D03*
%TO.P,J9,18,Pin_18*%
%TO.N,Net-(J1-GPIO19{slash}MISO1)*%
X180930000Y-77250000D03*
%TO.P,J9,17,Pin_17*%
%TO.N,Net-(J1-PWM1{slash}GPIO13)*%
X178390000Y-77250000D03*
%TO.P,J9,16,Pin_16*%
%TO.N,Net-(J1-GCLK2{slash}GPIO6)*%
X175850000Y-77250000D03*
%TO.P,J9,15,Pin_15*%
%TO.N,Net-(J1-GCLK1{slash}GPIO5)*%
X173310000Y-77250000D03*
%TO.P,J9,14,Pin_14*%
%TO.N,unconnected-(J9-Pin_14-Pad14)*%
X170770000Y-77250000D03*
%TO.P,J9,13,Pin_13*%
%TO.N,Net-(D1-K)*%
X168230000Y-77250000D03*
%TO.P,J9,12,Pin_12*%
%TO.N,unconnected-(J9-Pin_12-Pad12)*%
X165690000Y-77250000D03*
%TO.P,J9,11,Pin_11*%
%TO.N,unconnected-(J9-Pin_11-Pad11)*%
X163150000Y-77250000D03*
%TO.P,J9,10,Pin_10*%
%TO.N,unconnected-(J9-Pin_10-Pad10)*%
X160610000Y-77250000D03*
%TO.P,J9,9,Pin_9*%
%TO.N,unconnected-(J9-Pin_9-Pad9)*%
X158070000Y-77250000D03*
%TO.P,J9,8,Pin_8*%
%TO.N,Net-(J1-GPIO22)*%
X155530000Y-77250000D03*
%TO.P,J9,7,Pin_7*%
%TO.N,Net-(J1-GPIO27)*%
X152990000Y-77250000D03*
%TO.P,J9,6,Pin_6*%
%TO.N,Net-(J1-GPIO17)*%
X150450000Y-77250000D03*
%TO.P,J9,5,Pin_5*%
%TO.N,unconnected-(J9-Pin_5-Pad5)*%
X147910000Y-77250000D03*
%TO.P,J9,4,Pin_4*%
%TO.N,unconnected-(J9-Pin_4-Pad4)*%
X145370000Y-77250000D03*
%TO.P,J9,3,Pin_3*%
%TO.N,unconnected-(J9-Pin_3-Pad3)*%
X142830000Y-77250000D03*
%TO.P,J9,2,Pin_2*%
%TO.N,unconnected-(J9-Pin_2-Pad2)*%
X140290000Y-77250000D03*
D15*
%TO.P,J9,1,Pin_1*%
%TO.N,unconnected-(J9-Pin_1-Pad1)*%
X137750000Y-77250000D03*
%TD*%
D13*
%TO.P,D3,2,A*%
%TO.N,Net-(D3-A)*%
X149270000Y-122930000D03*
D14*
%TO.P,D3,1,K*%
%TO.N,Net-(D1-K)*%
X146730000Y-122930000D03*
%TD*%
D13*
%TO.P,D2,2,A*%
%TO.N,Net-(D2-A)*%
X157970000Y-123030000D03*
D14*
%TO.P,D2,1,K*%
%TO.N,Net-(D1-K)*%
X155430000Y-123030000D03*
%TD*%
D11*
%TO.P,R3,2*%
%TO.N,Net-(J1-GPIO22)*%
X146300000Y-107720000D03*
%TO.P,R3,1*%
%TO.N,Net-(D3-A)*%
X146300000Y-117880000D03*
%TD*%
%TO.P,R1,2*%
%TO.N,Net-(J1-GPIO17)*%
X146300000Y-81300000D03*
%TO.P,R1,1*%
%TO.N,Net-(D1-A)*%
X146300000Y-91460000D03*
%TD*%
D13*
%TO.P,D1,2,A*%
%TO.N,Net-(D1-A)*%
X166670000Y-123030000D03*
D14*
%TO.P,D1,1,K*%
%TO.N,Net-(D1-K)*%
X164130000Y-123030000D03*
%TD*%
D11*
%TO.P,R2,2*%
%TO.N,Net-(J1-GPIO27)*%
X146300000Y-94600000D03*
%TO.P,R2,1*%
%TO.N,Net-(D2-A)*%
X146300000Y-104760000D03*
%TD*%
D21*
%TO.N,Net-(J1-GPIO25)*%
X163070000Y-66250000D02*
X163070000Y-61870000D01*
X170100000Y-125700000D02*
X170100000Y-120100000D01*
X125000000Y-58700000D02*
X120900000Y-62800000D01*
X163900000Y-107000000D02*
X162730000Y-107000000D01*
X163070000Y-61870000D02*
X159900000Y-58700000D01*
X159900000Y-58700000D02*
X125000000Y-58700000D01*
X167800000Y-117800000D02*
X167800000Y-110900000D01*
X166900000Y-128900000D02*
X170100000Y-125700000D01*
X120900000Y-62800000D02*
X120900000Y-79000000D01*
X120900000Y-79000000D02*
X128600000Y-86700000D01*
X132600000Y-128900000D02*
X166900000Y-128900000D01*
X128600000Y-86700000D02*
X128600000Y-124900000D01*
X128600000Y-124900000D02*
X132600000Y-128900000D01*
X170100000Y-120100000D02*
X167800000Y-117800000D01*
X167800000Y-110900000D02*
X163900000Y-107000000D01*
%TO.N,Net-(J1-GPIO20{slash}MOSI1)*%
X167601000Y-129599000D02*
X131999000Y-129599000D01*
X128050000Y-125650000D02*
X128050000Y-87350000D01*
X131999000Y-129599000D02*
X128050000Y-125650000D01*
X128050000Y-87350000D02*
X119700000Y-79000000D01*
X119700000Y-79000000D02*
X119700000Y-62500000D01*
X119700000Y-62500000D02*
X124300000Y-57900000D01*
X124300000Y-57900000D02*
X180100000Y-57900000D01*
X180100000Y-57900000D02*
X183400000Y-61200000D01*
%TO.N,Net-(J1-GPIO24)*%
X122100000Y-79100000D02*
X129150000Y-86150000D01*
X129150000Y-86150000D02*
X129150000Y-124350000D01*
X122100000Y-63700000D02*
X122100000Y-63500000D01*
X122100000Y-63700000D02*
X122100000Y-62900000D01*
X151230000Y-117430000D02*
X152400000Y-118600000D01*
X166600000Y-128100000D02*
X132900000Y-128100000D01*
X152400000Y-118600000D02*
X167500000Y-118600000D01*
X151230000Y-108500000D02*
X151230000Y-117430000D01*
X167500000Y-118600000D02*
X169300000Y-120400000D01*
X169300000Y-120400000D02*
X169300000Y-125400000D01*
X169300000Y-125400000D02*
X166600000Y-128100000D01*
X132900000Y-128100000D02*
X129150000Y-124350000D01*
X152730000Y-107000000D02*
X151230000Y-108500000D01*
X122100000Y-79100000D02*
X122100000Y-63700000D01*
D22*
%TO.N,Net-(J1-GPIO20{slash}MOSI1)*%
X183400000Y-61200000D02*
X183390000Y-61210000D01*
D21*
X183390000Y-61210000D02*
X183390000Y-66250000D01*
X175950000Y-102810000D02*
X175950000Y-97850000D01*
X170700000Y-97400000D02*
X170700000Y-126500000D01*
X175950000Y-97850000D02*
X174000000Y-95900000D01*
X174000000Y-95900000D02*
X172200000Y-95900000D01*
D22*
X170700000Y-126500000D02*
X167601000Y-129599000D01*
D21*
X172200000Y-95900000D02*
X170700000Y-97400000D01*
D23*
%TO.N,Net-(D1-K)*%
X167700000Y-88400000D02*
X164900000Y-85600000D01*
X164900000Y-85600000D02*
X164900000Y-83300000D01*
X164900000Y-83300000D02*
X167800000Y-80400000D01*
D21*
%TO.N,Net-(J1-GPIO26)*%
X183470000Y-77250000D02*
X176820000Y-83900000D01*
X176820000Y-83900000D02*
X174200000Y-83900000D01*
D23*
%TO.N,Net-(D1-K)*%
X175950000Y-90150000D02*
X174200000Y-88400000D01*
X174200000Y-88400000D02*
X167700000Y-88400000D01*
D21*
%TO.N,Net-(J1-GPIO26)*%
X174200000Y-83900000D02*
X167700000Y-83900000D01*
%TO.N,Net-(J1-GPIO21{slash}SCLK1)*%
X187600000Y-72100000D02*
X187600000Y-75100000D01*
X192290000Y-102810000D02*
X192950000Y-102150000D01*
X192950000Y-102150000D02*
X192950000Y-80450000D01*
X192950000Y-80450000D02*
X187600000Y-75100000D01*
D22*
%TO.N,Net-(D1-K)*%
X187950000Y-86150000D02*
X187910000Y-86150000D01*
D21*
%TO.N,Net-(J1-GPIO20{slash}MOSI1)*%
X176295000Y-102480000D02*
X176215000Y-102560000D01*
%TO.N,Net-(J1-GPIO21{slash}SCLK1)*%
X186375000Y-102400000D02*
X186215000Y-102560000D01*
%TO.N,Net-(J1-GPIO20{slash}MOSI1)*%
X175950000Y-106570000D02*
X175950000Y-102730000D01*
%TO.N,Net-(J5-Pin_1)*%
X179950000Y-109150000D02*
X175950000Y-113150000D01*
X175950000Y-113150000D02*
X175950000Y-116730000D01*
X181450000Y-109150000D02*
X179950000Y-109150000D01*
%TO.N,Net-(D6-A)*%
X182490000Y-86150000D02*
X182490000Y-91110000D01*
X182490000Y-91110000D02*
X180950000Y-92650000D01*
%TO.N,Net-(J1-GPIO21{slash}SCLK1)*%
X185950000Y-102810000D02*
X190950000Y-102810000D01*
D22*
%TO.N,Net-(D7-A)*%
X190950000Y-92650000D02*
X190950000Y-92150000D01*
X190950000Y-92150000D02*
X190450000Y-91650000D01*
X190450000Y-91650000D02*
X190450000Y-86150000D01*
D21*
%TO.N,Net-(J1-GPIO21{slash}SCLK1)*%
X185950000Y-106650000D02*
X185950000Y-102810000D01*
D23*
%TO.N,Net-(D1-K)*%
X185950000Y-92650000D02*
X185950000Y-88110000D01*
X185950000Y-88110000D02*
X187910000Y-86150000D01*
X175950000Y-90150000D02*
X179950000Y-86150000D01*
X185410000Y-83650000D02*
X182450000Y-83650000D01*
X182450000Y-83650000D02*
X179950000Y-86150000D01*
X187910000Y-86150000D02*
X185410000Y-83650000D01*
X175950000Y-92650000D02*
X175950000Y-90150000D01*
D22*
%TO.N,Net-(J1-GPIO20{slash}MOSI1)*%
X180870000Y-102730000D02*
X180950000Y-102650000D01*
D21*
X175950000Y-102730000D02*
X180870000Y-102730000D01*
D22*
%TO.N,Net-(D7-A)*%
X190950000Y-86385000D02*
X190715000Y-86150000D01*
D21*
%TO.N,Net-(J6-Pin_1)*%
X185950000Y-116810000D02*
X184610000Y-116810000D01*
X184610000Y-116810000D02*
X181450000Y-113650000D01*
D22*
%TO.N,Net-(J1-GPIO21{slash}SCLK1)*%
X190950000Y-102810000D02*
X192290000Y-102810000D01*
D24*
%TO.N,Net-(D1-K)*%
X142750000Y-66250000D02*
X142750000Y-63850000D01*
X141600000Y-62700000D02*
X127600000Y-62700000D01*
X142750000Y-63850000D02*
X141600000Y-62700000D01*
D23*
X164130000Y-123030000D02*
X161100000Y-120000000D01*
X161100000Y-120000000D02*
X152000000Y-120000000D01*
X149800000Y-100400000D02*
X152950000Y-97250000D01*
X152000000Y-120000000D02*
X149800000Y-117800000D01*
X149800000Y-117800000D02*
X149800000Y-100400000D01*
D21*
%TO.N,Net-(J1-GPIO22)*%
X155530000Y-77250000D02*
X148700000Y-84080000D01*
D22*
X148700000Y-84080000D02*
X148700000Y-105320000D01*
X148700000Y-105320000D02*
X146300000Y-107720000D01*
D21*
%TO.N,Net-(J1-GPIO27)*%
X152990000Y-77250000D02*
X148200000Y-82040000D01*
X148200000Y-92700000D02*
X146300000Y-94600000D01*
X148200000Y-82040000D02*
X148200000Y-92700000D01*
D22*
%TO.N,Net-(D2-A)*%
X157970000Y-123030000D02*
X157970000Y-121970000D01*
D21*
X157200000Y-121200000D02*
X151100000Y-121200000D01*
D22*
X157970000Y-121970000D02*
X157200000Y-121200000D01*
D21*
X147600000Y-117200000D02*
X145199000Y-114799000D01*
X145199000Y-114799000D02*
X145199000Y-105861000D01*
X145199000Y-105861000D02*
X146300000Y-104760000D01*
X147600000Y-117700000D02*
X147600000Y-117200000D01*
X151100000Y-121200000D02*
X147600000Y-117700000D01*
D23*
%TO.N,Net-(D1-K)*%
X153500000Y-97800000D02*
X152950000Y-97250000D01*
D21*
%TO.N,Net-(D3-A)*%
X146300000Y-117880000D02*
X146300000Y-119960000D01*
X146300000Y-119960000D02*
X149270000Y-122930000D01*
%TO.N,Net-(D1-A)*%
X146300000Y-91460000D02*
X144000000Y-93760000D01*
D22*
X146730000Y-126730000D02*
X162970000Y-126730000D01*
D21*
X144000000Y-93760000D02*
X144000000Y-124000000D01*
D22*
X144000000Y-124000000D02*
X146730000Y-126730000D01*
X162970000Y-126730000D02*
X166670000Y-123030000D01*
D24*
%TO.N,Net-(D1-K)*%
X127600000Y-62700000D02*
X126468630Y-62700000D01*
X124300000Y-64868630D02*
X124300000Y-77780000D01*
X126468630Y-62700000D02*
X124300000Y-64868630D01*
X124300000Y-77780000D02*
X130540000Y-84020000D01*
%TO.N,Net-(D4-K)*%
X140700000Y-84020000D02*
X140700000Y-82600000D01*
X138400000Y-80300000D02*
X132800000Y-80300000D01*
X127650000Y-75150000D02*
X127650000Y-66250000D01*
X140700000Y-82600000D02*
X138400000Y-80300000D01*
X132800000Y-80300000D02*
X127650000Y-75150000D01*
%TO.N,Net-(D1-K)*%
X130960000Y-84020000D02*
X130960000Y-91980000D01*
X133500000Y-97060000D02*
X133500000Y-94520000D01*
X130960000Y-94520000D02*
X130960000Y-97060000D01*
%TO.N,Net-(D4-K)*%
X138000000Y-99640000D02*
X137960000Y-99600000D01*
X138000000Y-108060000D02*
X138000000Y-99640000D01*
%TO.N,Net-(D1-K)*%
X130960000Y-94520000D02*
X130960000Y-91980000D01*
X133500000Y-99600000D02*
X133500000Y-107560000D01*
X133500000Y-94520000D02*
X133500000Y-91980000D01*
%TO.N,Net-(D4-K)*%
X137960000Y-99600000D02*
X137960000Y-97060000D01*
X137960000Y-97060000D02*
X137960000Y-94520000D01*
X137960000Y-94520000D02*
X137960000Y-91980000D01*
X140500000Y-94520000D02*
X140500000Y-97060000D01*
X140500000Y-97060000D02*
X140500000Y-99600000D01*
X140500000Y-91980000D02*
X140500000Y-94520000D01*
X140500000Y-99600000D02*
X137960000Y-99600000D01*
X137960000Y-91980000D02*
X140500000Y-91980000D01*
%TO.N,Net-(D1-K)*%
X133500000Y-99600000D02*
X133500000Y-97060000D01*
X133500000Y-91980000D02*
X130960000Y-91980000D01*
D22*
X133000000Y-108060000D02*
X133000000Y-109480000D01*
%TO.N,Net-(D4-K)*%
X140700000Y-91780000D02*
X140500000Y-91980000D01*
D24*
X140700000Y-84020000D02*
X140700000Y-91780000D01*
%TO.N,Net-(D1-K)*%
X130960000Y-97060000D02*
X130960000Y-99600000D01*
X130960000Y-99600000D02*
X133500000Y-99600000D01*
%TO.N,Net-(D4-K)*%
X137670000Y-66250000D02*
X127650000Y-66250000D01*
D22*
X127650000Y-66250000D02*
X127600000Y-66200000D01*
D23*
%TO.N,Net-(D1-K)*%
X155430000Y-123030000D02*
X157830000Y-125430000D01*
X157830000Y-125430000D02*
X161730000Y-125430000D01*
X161730000Y-125430000D02*
X164130000Y-123030000D01*
X146730000Y-122930000D02*
X149430000Y-125630000D01*
X149430000Y-125630000D02*
X152830000Y-125630000D01*
X152830000Y-125630000D02*
X155430000Y-123030000D01*
D21*
%TO.N,Net-(J1-GPIO17)*%
X150450000Y-77250000D02*
X146400000Y-81300000D01*
D22*
X146400000Y-81300000D02*
X146300000Y-81300000D01*
D21*
%TO.N,Net-(D8-A)*%
X154210000Y-86160000D02*
X154210000Y-89480000D01*
X154210000Y-89480000D02*
X157730000Y-93000000D01*
%TO.N,Net-(D5-A)*%
X161940000Y-86200000D02*
X161940000Y-87710000D01*
X161940000Y-87710000D02*
X167230000Y-93000000D01*
D23*
%TO.N,Net-(D1-K)*%
X159400000Y-84200000D02*
X162150000Y-81450000D01*
X159400000Y-86200000D02*
X159400000Y-89670000D01*
X159400000Y-89670000D02*
X162730000Y-93000000D01*
X151670000Y-86160000D02*
X151670000Y-91940000D01*
X151670000Y-91940000D02*
X152730000Y-93000000D01*
X159400000Y-86200000D02*
X159400000Y-84200000D01*
X162150000Y-81450000D02*
X163200000Y-80400000D01*
X163200000Y-80400000D02*
X167800000Y-80400000D01*
X167800000Y-80400000D02*
X168300000Y-79900000D01*
D21*
%TO.N,Net-(J1-GPIO21{slash}SCLK1)*%
X186000000Y-70500000D02*
X187600000Y-72100000D01*
D23*
%TO.N,Net-(D1-K)*%
X168230000Y-77250000D02*
X168230000Y-79830000D01*
D22*
X168230000Y-79830000D02*
X168300000Y-79900000D01*
D23*
X168220000Y-73040000D02*
X168220000Y-77240000D01*
D22*
X168220000Y-77240000D02*
X168230000Y-77250000D01*
D21*
%TO.N,Net-(J1-GPIO25)*%
X163140000Y-70500000D02*
X163140000Y-66320000D01*
D22*
X163140000Y-66320000D02*
X163070000Y-66250000D01*
%TO.N,Net-(J1-GPIO24)*%
X158060000Y-70500000D02*
X158060000Y-66320000D01*
X158060000Y-66320000D02*
X157990000Y-66250000D01*
%TO.N,Net-(J1-GPIO23)*%
X155520000Y-70500000D02*
X155520000Y-66320000D01*
X155520000Y-66320000D02*
X155450000Y-66250000D01*
%TO.N,Net-(J1-GPIO18{slash}PWM0)*%
X150440000Y-70500000D02*
X150440000Y-66320000D01*
X150440000Y-66320000D02*
X150370000Y-66250000D01*
%TO.N,Net-(J1-GPIO22)*%
X155530000Y-77250000D02*
X155530000Y-73050000D01*
X155530000Y-73050000D02*
X155520000Y-73040000D01*
%TO.N,Net-(J1-GPIO27)*%
X152980000Y-73040000D02*
X152980000Y-77240000D01*
X152980000Y-77240000D02*
X152990000Y-77250000D01*
%TO.N,Net-(J1-GPIO17)*%
X150440000Y-73040000D02*
X150440000Y-77240000D01*
X150440000Y-77240000D02*
X150450000Y-77250000D01*
D21*
%TO.N,Net-(J1-GCLK1{slash}GPIO5)*%
X173300000Y-73040000D02*
X173300000Y-77240000D01*
D22*
X173300000Y-77240000D02*
X173310000Y-77250000D01*
D21*
%TO.N,Net-(J1-GCLK2{slash}GPIO6)*%
X175840000Y-73040000D02*
X175840000Y-77240000D01*
D22*
X175840000Y-77240000D02*
X175850000Y-77250000D01*
D21*
%TO.N,Net-(J1-PWM1{slash}GPIO13)*%
X178380000Y-73040000D02*
X178380000Y-77240000D01*
D22*
X178380000Y-77240000D02*
X178390000Y-77250000D01*
D21*
%TO.N,Net-(J1-GPIO19{slash}MISO1)*%
X180920000Y-73040000D02*
X180920000Y-77240000D01*
D22*
X180920000Y-77240000D02*
X180930000Y-77250000D01*
D21*
%TO.N,Net-(J1-GPIO26)*%
X183460000Y-73040000D02*
X183460000Y-77240000D01*
D22*
X183460000Y-77240000D02*
X183470000Y-77250000D01*
D21*
%TO.N,Net-(J1-PWM0{slash}GPIO12)*%
X175840000Y-70500000D02*
X175840000Y-66320000D01*
D22*
X175840000Y-66320000D02*
X175770000Y-66250000D01*
D21*
%TO.N,Net-(J1-GPIO16)*%
X180920000Y-70500000D02*
X180920000Y-66320000D01*
D22*
X180920000Y-66320000D02*
X180850000Y-66250000D01*
D21*
%TO.N,Net-(J1-GPIO20{slash}MOSI1)*%
X183460000Y-70500000D02*
X183460000Y-66320000D01*
D22*
X183460000Y-66320000D02*
X183390000Y-66250000D01*
D21*
%TO.N,Net-(J1-GPIO21{slash}SCLK1)*%
X186000000Y-70500000D02*
X186000000Y-66320000D01*
D22*
X186000000Y-66320000D02*
X185930000Y-66250000D01*
D24*
%TO.N,Net-(D4-K)*%
X137740000Y-70500000D02*
X137740000Y-66320000D01*
D22*
X137740000Y-66320000D02*
X137670000Y-66250000D01*
D24*
%TO.N,Net-(D1-K)*%
X142820000Y-70500000D02*
X142820000Y-66320000D01*
D22*
X142820000Y-66320000D02*
X142750000Y-66250000D01*
D21*
%TO.N,Net-(J1-GPIO25)*%
X162730000Y-107000000D02*
X162730000Y-103160000D01*
%TO.N,Net-(J2-Pin_1)*%
X158230000Y-114000000D02*
X158230000Y-115000000D01*
X158230000Y-115000000D02*
X160390000Y-117160000D01*
X160390000Y-117160000D02*
X162730000Y-117160000D01*
%TO.N,Net-(J1-GPIO24)*%
X152730000Y-107000000D02*
X152730000Y-103190000D01*
D22*
X152730000Y-103190000D02*
X152660000Y-103120000D01*
D21*
%TO.N,Net-(J7-Pin_1)*%
X152730000Y-113500000D02*
X156730000Y-109500000D01*
X156730000Y-109500000D02*
X158230000Y-109500000D01*
X152730000Y-117160000D02*
X152730000Y-113500000D01*
D22*
%TO.N,Net-(D5-A)*%
X161670000Y-87000000D02*
X162170000Y-86500000D01*
D21*
%TO.N,Net-(J1-GPIO25)*%
X162580000Y-103460000D02*
X162500000Y-103380000D01*
D23*
%TO.N,Net-(D1-K)*%
X152950000Y-97250000D02*
X152500000Y-96800000D01*
X161500000Y-97800000D02*
X153500000Y-97800000D01*
D22*
%TO.N,Net-(J1-GPIO24)*%
X152500000Y-102960000D02*
X152340000Y-102800000D01*
D23*
%TO.N,Net-(D1-K)*%
X152500000Y-96800000D02*
X152500000Y-92800000D01*
X162500000Y-93220000D02*
X162500000Y-96800000D01*
X162500000Y-96800000D02*
X161500000Y-97800000D01*
D21*
%TO.N,Net-(J1-GPIO25)*%
X167500000Y-103380000D02*
X162500000Y-103380000D01*
%TO.N,Net-(J1-GPIO24)*%
X157500000Y-103120000D02*
X152660000Y-103120000D01*
D22*
X152660000Y-103120000D02*
X152500000Y-102960000D01*
X153000000Y-102960000D02*
X153080000Y-103040000D01*
X152500000Y-102960000D02*
X153000000Y-102960000D01*
D21*
X122100000Y-62900000D02*
X125400000Y-59600000D01*
X125400000Y-59600000D02*
X154900000Y-59600000D01*
X158000000Y-62700000D02*
X158000000Y-64900000D01*
D22*
X158000000Y-64900000D02*
X157990000Y-64910000D01*
D21*
X154900000Y-59600000D02*
X158000000Y-62700000D01*
D22*
X157990000Y-64910000D02*
X157990000Y-66250000D01*
%TD*%
M02*
