%TF.GenerationSoftware,KiCad,Pcbnew,9.0.5*%
%TF.CreationDate,2025-12-06T18:04:27+03:30*%
%TF.ProjectId,swallow,7377616c-6c6f-4772-9e6b-696361645f70,rev?*%
%TF.SameCoordinates,Original*%
%TF.FileFunction,Legend,Top*%
%TF.FilePolarity,Positive*%
%FSLAX46Y46*%
G04 Gerber Fmt 4.6, Leading zero omitted, Abs format (unit mm)*
G04 Created by KiCad (PCBNEW 9.0.5) date 2025-12-06 18:04:27*
%MOMM*%
%LPD*%
G01*
G04 APERTURE LIST*
%ADD10C,0.100000*%
%ADD11C,0.200000*%
%ADD12C,0.300000*%
%ADD13C,0.150000*%
%ADD14C,0.120000*%
%ADD15C,0.000000*%
G04 APERTURE END LIST*
D10*
X132003884Y-87792419D02*
X132003884Y-86792419D01*
X132003884Y-86792419D02*
X132384836Y-86792419D01*
X132384836Y-86792419D02*
X132480074Y-86840038D01*
X132480074Y-86840038D02*
X132527693Y-86887657D01*
X132527693Y-86887657D02*
X132575312Y-86982895D01*
X132575312Y-86982895D02*
X132575312Y-87125752D01*
X132575312Y-87125752D02*
X132527693Y-87220990D01*
X132527693Y-87220990D02*
X132480074Y-87268609D01*
X132480074Y-87268609D02*
X132384836Y-87316228D01*
X132384836Y-87316228D02*
X132003884Y-87316228D01*
X133432455Y-86792419D02*
X133241979Y-86792419D01*
X133241979Y-86792419D02*
X133146741Y-86840038D01*
X133146741Y-86840038D02*
X133099122Y-86887657D01*
X133099122Y-86887657D02*
X133003884Y-87030514D01*
X133003884Y-87030514D02*
X132956265Y-87220990D01*
X132956265Y-87220990D02*
X132956265Y-87601942D01*
X132956265Y-87601942D02*
X133003884Y-87697180D01*
X133003884Y-87697180D02*
X133051503Y-87744800D01*
X133051503Y-87744800D02*
X133146741Y-87792419D01*
X133146741Y-87792419D02*
X133337217Y-87792419D01*
X133337217Y-87792419D02*
X133432455Y-87744800D01*
X133432455Y-87744800D02*
X133480074Y-87697180D01*
X133480074Y-87697180D02*
X133527693Y-87601942D01*
X133527693Y-87601942D02*
X133527693Y-87363847D01*
X133527693Y-87363847D02*
X133480074Y-87268609D01*
X133480074Y-87268609D02*
X133432455Y-87220990D01*
X133432455Y-87220990D02*
X133337217Y-87173371D01*
X133337217Y-87173371D02*
X133146741Y-87173371D01*
X133146741Y-87173371D02*
X133051503Y-87220990D01*
X133051503Y-87220990D02*
X133003884Y-87268609D01*
X133003884Y-87268609D02*
X132956265Y-87363847D01*
X133956265Y-87792419D02*
X133956265Y-86792419D01*
X134527693Y-87792419D02*
X134099122Y-87220990D01*
X134527693Y-86792419D02*
X133956265Y-87363847D01*
X134956265Y-87268609D02*
X135289598Y-87268609D01*
X135432455Y-87792419D02*
X134956265Y-87792419D01*
X134956265Y-87792419D02*
X134956265Y-86792419D01*
X134956265Y-86792419D02*
X135432455Y-86792419D01*
X136289598Y-86792419D02*
X136099122Y-86792419D01*
X136099122Y-86792419D02*
X136003884Y-86840038D01*
X136003884Y-86840038D02*
X135956265Y-86887657D01*
X135956265Y-86887657D02*
X135861027Y-87030514D01*
X135861027Y-87030514D02*
X135813408Y-87220990D01*
X135813408Y-87220990D02*
X135813408Y-87601942D01*
X135813408Y-87601942D02*
X135861027Y-87697180D01*
X135861027Y-87697180D02*
X135908646Y-87744800D01*
X135908646Y-87744800D02*
X136003884Y-87792419D01*
X136003884Y-87792419D02*
X136194360Y-87792419D01*
X136194360Y-87792419D02*
X136289598Y-87744800D01*
X136289598Y-87744800D02*
X136337217Y-87697180D01*
X136337217Y-87697180D02*
X136384836Y-87601942D01*
X136384836Y-87601942D02*
X136384836Y-87363847D01*
X136384836Y-87363847D02*
X136337217Y-87268609D01*
X136337217Y-87268609D02*
X136289598Y-87220990D01*
X136289598Y-87220990D02*
X136194360Y-87173371D01*
X136194360Y-87173371D02*
X136003884Y-87173371D01*
X136003884Y-87173371D02*
X135908646Y-87220990D01*
X135908646Y-87220990D02*
X135861027Y-87268609D01*
X135861027Y-87268609D02*
X135813408Y-87363847D01*
X136813408Y-87697180D02*
X136861027Y-87744800D01*
X136861027Y-87744800D02*
X136813408Y-87792419D01*
X136813408Y-87792419D02*
X136765789Y-87744800D01*
X136765789Y-87744800D02*
X136813408Y-87697180D01*
X136813408Y-87697180D02*
X136813408Y-87792419D01*
X137432455Y-87220990D02*
X137337217Y-87173371D01*
X137337217Y-87173371D02*
X137289598Y-87125752D01*
X137289598Y-87125752D02*
X137241979Y-87030514D01*
X137241979Y-87030514D02*
X137241979Y-86982895D01*
X137241979Y-86982895D02*
X137289598Y-86887657D01*
X137289598Y-86887657D02*
X137337217Y-86840038D01*
X137337217Y-86840038D02*
X137432455Y-86792419D01*
X137432455Y-86792419D02*
X137622931Y-86792419D01*
X137622931Y-86792419D02*
X137718169Y-86840038D01*
X137718169Y-86840038D02*
X137765788Y-86887657D01*
X137765788Y-86887657D02*
X137813407Y-86982895D01*
X137813407Y-86982895D02*
X137813407Y-87030514D01*
X137813407Y-87030514D02*
X137765788Y-87125752D01*
X137765788Y-87125752D02*
X137718169Y-87173371D01*
X137718169Y-87173371D02*
X137622931Y-87220990D01*
X137622931Y-87220990D02*
X137432455Y-87220990D01*
X137432455Y-87220990D02*
X137337217Y-87268609D01*
X137337217Y-87268609D02*
X137289598Y-87316228D01*
X137289598Y-87316228D02*
X137241979Y-87411466D01*
X137241979Y-87411466D02*
X137241979Y-87601942D01*
X137241979Y-87601942D02*
X137289598Y-87697180D01*
X137289598Y-87697180D02*
X137337217Y-87744800D01*
X137337217Y-87744800D02*
X137432455Y-87792419D01*
X137432455Y-87792419D02*
X137622931Y-87792419D01*
X137622931Y-87792419D02*
X137718169Y-87744800D01*
X137718169Y-87744800D02*
X137765788Y-87697180D01*
X137765788Y-87697180D02*
X137813407Y-87601942D01*
X137813407Y-87601942D02*
X137813407Y-87411466D01*
X137813407Y-87411466D02*
X137765788Y-87316228D01*
X137765788Y-87316228D02*
X137718169Y-87268609D01*
X137718169Y-87268609D02*
X137622931Y-87220990D01*
X138194360Y-87506704D02*
X138670550Y-87506704D01*
X138099122Y-87792419D02*
X138432455Y-86792419D01*
X138432455Y-86792419D02*
X138765788Y-87792419D01*
D11*
X127083958Y-118876266D02*
X130131578Y-118876266D01*
D12*
X151097368Y-80500828D02*
X151097368Y-81715114D01*
X151097368Y-81715114D02*
X151025939Y-81857971D01*
X151025939Y-81857971D02*
X150954510Y-81929400D01*
X150954510Y-81929400D02*
X150811653Y-82000828D01*
X150811653Y-82000828D02*
X150597368Y-82000828D01*
X150597368Y-82000828D02*
X150454510Y-81929400D01*
X151097368Y-81429400D02*
X150954510Y-81500828D01*
X150954510Y-81500828D02*
X150668796Y-81500828D01*
X150668796Y-81500828D02*
X150525939Y-81429400D01*
X150525939Y-81429400D02*
X150454510Y-81357971D01*
X150454510Y-81357971D02*
X150383082Y-81215114D01*
X150383082Y-81215114D02*
X150383082Y-80786542D01*
X150383082Y-80786542D02*
X150454510Y-80643685D01*
X150454510Y-80643685D02*
X150525939Y-80572257D01*
X150525939Y-80572257D02*
X150668796Y-80500828D01*
X150668796Y-80500828D02*
X150954510Y-80500828D01*
X150954510Y-80500828D02*
X151097368Y-80572257D01*
X151811653Y-81500828D02*
X151811653Y-80500828D01*
X151811653Y-80000828D02*
X151740225Y-80072257D01*
X151740225Y-80072257D02*
X151811653Y-80143685D01*
X151811653Y-80143685D02*
X151883082Y-80072257D01*
X151883082Y-80072257D02*
X151811653Y-80000828D01*
X151811653Y-80000828D02*
X151811653Y-80143685D01*
X152311654Y-80500828D02*
X152883082Y-80500828D01*
X152525939Y-80000828D02*
X152525939Y-81286542D01*
X152525939Y-81286542D02*
X152597368Y-81429400D01*
X152597368Y-81429400D02*
X152740225Y-81500828D01*
X152740225Y-81500828D02*
X152883082Y-81500828D01*
X153383082Y-81500828D02*
X153383082Y-80000828D01*
X154025940Y-81500828D02*
X154025940Y-80715114D01*
X154025940Y-80715114D02*
X153954511Y-80572257D01*
X153954511Y-80572257D02*
X153811654Y-80500828D01*
X153811654Y-80500828D02*
X153597368Y-80500828D01*
X153597368Y-80500828D02*
X153454511Y-80572257D01*
X153454511Y-80572257D02*
X153383082Y-80643685D01*
X155383083Y-80500828D02*
X155383083Y-81500828D01*
X154740225Y-80500828D02*
X154740225Y-81286542D01*
X154740225Y-81286542D02*
X154811654Y-81429400D01*
X154811654Y-81429400D02*
X154954511Y-81500828D01*
X154954511Y-81500828D02*
X155168797Y-81500828D01*
X155168797Y-81500828D02*
X155311654Y-81429400D01*
X155311654Y-81429400D02*
X155383083Y-81357971D01*
X156097368Y-81500828D02*
X156097368Y-80000828D01*
X156097368Y-80572257D02*
X156240226Y-80500828D01*
X156240226Y-80500828D02*
X156525940Y-80500828D01*
X156525940Y-80500828D02*
X156668797Y-80572257D01*
X156668797Y-80572257D02*
X156740226Y-80643685D01*
X156740226Y-80643685D02*
X156811654Y-80786542D01*
X156811654Y-80786542D02*
X156811654Y-81215114D01*
X156811654Y-81215114D02*
X156740226Y-81357971D01*
X156740226Y-81357971D02*
X156668797Y-81429400D01*
X156668797Y-81429400D02*
X156525940Y-81500828D01*
X156525940Y-81500828D02*
X156240226Y-81500828D01*
X156240226Y-81500828D02*
X156097368Y-81429400D01*
X158525940Y-79929400D02*
X157240226Y-81857971D01*
X159025940Y-81500828D02*
X159025940Y-80000828D01*
X159168798Y-80929400D02*
X159597369Y-81500828D01*
X159597369Y-80500828D02*
X159025940Y-81072257D01*
X160883084Y-81500828D02*
X160883084Y-80715114D01*
X160883084Y-80715114D02*
X160811655Y-80572257D01*
X160811655Y-80572257D02*
X160668798Y-80500828D01*
X160668798Y-80500828D02*
X160383084Y-80500828D01*
X160383084Y-80500828D02*
X160240226Y-80572257D01*
X160883084Y-81429400D02*
X160740226Y-81500828D01*
X160740226Y-81500828D02*
X160383084Y-81500828D01*
X160383084Y-81500828D02*
X160240226Y-81429400D01*
X160240226Y-81429400D02*
X160168798Y-81286542D01*
X160168798Y-81286542D02*
X160168798Y-81143685D01*
X160168798Y-81143685D02*
X160240226Y-81000828D01*
X160240226Y-81000828D02*
X160383084Y-80929400D01*
X160383084Y-80929400D02*
X160740226Y-80929400D01*
X160740226Y-80929400D02*
X160883084Y-80857971D01*
X161597369Y-81500828D02*
X161597369Y-80500828D01*
X161597369Y-80643685D02*
X161668798Y-80572257D01*
X161668798Y-80572257D02*
X161811655Y-80500828D01*
X161811655Y-80500828D02*
X162025941Y-80500828D01*
X162025941Y-80500828D02*
X162168798Y-80572257D01*
X162168798Y-80572257D02*
X162240227Y-80715114D01*
X162240227Y-80715114D02*
X162240227Y-81500828D01*
X162240227Y-80715114D02*
X162311655Y-80572257D01*
X162311655Y-80572257D02*
X162454512Y-80500828D01*
X162454512Y-80500828D02*
X162668798Y-80500828D01*
X162668798Y-80500828D02*
X162811655Y-80572257D01*
X162811655Y-80572257D02*
X162883084Y-80715114D01*
X162883084Y-80715114D02*
X162883084Y-81500828D01*
X164240227Y-81500828D02*
X164240227Y-80715114D01*
X164240227Y-80715114D02*
X164168798Y-80572257D01*
X164168798Y-80572257D02*
X164025941Y-80500828D01*
X164025941Y-80500828D02*
X163740227Y-80500828D01*
X163740227Y-80500828D02*
X163597369Y-80572257D01*
X164240227Y-81429400D02*
X164097369Y-81500828D01*
X164097369Y-81500828D02*
X163740227Y-81500828D01*
X163740227Y-81500828D02*
X163597369Y-81429400D01*
X163597369Y-81429400D02*
X163525941Y-81286542D01*
X163525941Y-81286542D02*
X163525941Y-81143685D01*
X163525941Y-81143685D02*
X163597369Y-81000828D01*
X163597369Y-81000828D02*
X163740227Y-80929400D01*
X163740227Y-80929400D02*
X164097369Y-80929400D01*
X164097369Y-80929400D02*
X164240227Y-80857971D01*
X164954512Y-80500828D02*
X164954512Y-81500828D01*
X164954512Y-80643685D02*
X165025941Y-80572257D01*
X165025941Y-80572257D02*
X165168798Y-80500828D01*
X165168798Y-80500828D02*
X165383084Y-80500828D01*
X165383084Y-80500828D02*
X165525941Y-80572257D01*
X165525941Y-80572257D02*
X165597370Y-80715114D01*
X165597370Y-80715114D02*
X165597370Y-81500828D01*
X166954513Y-80500828D02*
X166954513Y-81715114D01*
X166954513Y-81715114D02*
X166883084Y-81857971D01*
X166883084Y-81857971D02*
X166811655Y-81929400D01*
X166811655Y-81929400D02*
X166668798Y-82000828D01*
X166668798Y-82000828D02*
X166454513Y-82000828D01*
X166454513Y-82000828D02*
X166311655Y-81929400D01*
X166954513Y-81429400D02*
X166811655Y-81500828D01*
X166811655Y-81500828D02*
X166525941Y-81500828D01*
X166525941Y-81500828D02*
X166383084Y-81429400D01*
X166383084Y-81429400D02*
X166311655Y-81357971D01*
X166311655Y-81357971D02*
X166240227Y-81215114D01*
X166240227Y-81215114D02*
X166240227Y-80786542D01*
X166240227Y-80786542D02*
X166311655Y-80643685D01*
X166311655Y-80643685D02*
X166383084Y-80572257D01*
X166383084Y-80572257D02*
X166525941Y-80500828D01*
X166525941Y-80500828D02*
X166811655Y-80500828D01*
X166811655Y-80500828D02*
X166954513Y-80572257D01*
X167668798Y-81500828D02*
X167668798Y-80500828D01*
X167668798Y-80000828D02*
X167597370Y-80072257D01*
X167597370Y-80072257D02*
X167668798Y-80143685D01*
X167668798Y-80143685D02*
X167740227Y-80072257D01*
X167740227Y-80072257D02*
X167668798Y-80000828D01*
X167668798Y-80000828D02*
X167668798Y-80143685D01*
X168383084Y-81500828D02*
X168383084Y-80500828D01*
X168383084Y-80786542D02*
X168454513Y-80643685D01*
X168454513Y-80643685D02*
X168525942Y-80572257D01*
X168525942Y-80572257D02*
X168668799Y-80500828D01*
X168668799Y-80500828D02*
X168811656Y-80500828D01*
X170383084Y-79929400D02*
X169097370Y-81857971D01*
X170883084Y-81500828D02*
X170883084Y-80000828D01*
X170883084Y-80572257D02*
X171025942Y-80500828D01*
X171025942Y-80500828D02*
X171311656Y-80500828D01*
X171311656Y-80500828D02*
X171454513Y-80572257D01*
X171454513Y-80572257D02*
X171525942Y-80643685D01*
X171525942Y-80643685D02*
X171597370Y-80786542D01*
X171597370Y-80786542D02*
X171597370Y-81215114D01*
X171597370Y-81215114D02*
X171525942Y-81357971D01*
X171525942Y-81357971D02*
X171454513Y-81429400D01*
X171454513Y-81429400D02*
X171311656Y-81500828D01*
X171311656Y-81500828D02*
X171025942Y-81500828D01*
X171025942Y-81500828D02*
X170883084Y-81429400D01*
X172454513Y-81500828D02*
X172311656Y-81429400D01*
X172311656Y-81429400D02*
X172240227Y-81286542D01*
X172240227Y-81286542D02*
X172240227Y-80000828D01*
X173668799Y-80500828D02*
X173668799Y-81500828D01*
X173025941Y-80500828D02*
X173025941Y-81286542D01*
X173025941Y-81286542D02*
X173097370Y-81429400D01*
X173097370Y-81429400D02*
X173240227Y-81500828D01*
X173240227Y-81500828D02*
X173454513Y-81500828D01*
X173454513Y-81500828D02*
X173597370Y-81429400D01*
X173597370Y-81429400D02*
X173668799Y-81357971D01*
X174954513Y-81429400D02*
X174811656Y-81500828D01*
X174811656Y-81500828D02*
X174525942Y-81500828D01*
X174525942Y-81500828D02*
X174383084Y-81429400D01*
X174383084Y-81429400D02*
X174311656Y-81286542D01*
X174311656Y-81286542D02*
X174311656Y-80715114D01*
X174311656Y-80715114D02*
X174383084Y-80572257D01*
X174383084Y-80572257D02*
X174525942Y-80500828D01*
X174525942Y-80500828D02*
X174811656Y-80500828D01*
X174811656Y-80500828D02*
X174954513Y-80572257D01*
X174954513Y-80572257D02*
X175025942Y-80715114D01*
X175025942Y-80715114D02*
X175025942Y-80857971D01*
X175025942Y-80857971D02*
X174311656Y-81000828D01*
X175668798Y-81500828D02*
X175668798Y-80500828D01*
X175668798Y-80786542D02*
X175740227Y-80643685D01*
X175740227Y-80643685D02*
X175811656Y-80572257D01*
X175811656Y-80572257D02*
X175954513Y-80500828D01*
X175954513Y-80500828D02*
X176097370Y-80500828D01*
X176597369Y-80929400D02*
X177740227Y-80929400D01*
X179097370Y-80500828D02*
X179097370Y-81500828D01*
X178454512Y-80500828D02*
X178454512Y-81286542D01*
X178454512Y-81286542D02*
X178525941Y-81429400D01*
X178525941Y-81429400D02*
X178668798Y-81500828D01*
X178668798Y-81500828D02*
X178883084Y-81500828D01*
X178883084Y-81500828D02*
X179025941Y-81429400D01*
X179025941Y-81429400D02*
X179097370Y-81357971D01*
X180454513Y-80500828D02*
X180454513Y-81715114D01*
X180454513Y-81715114D02*
X180383084Y-81857971D01*
X180383084Y-81857971D02*
X180311655Y-81929400D01*
X180311655Y-81929400D02*
X180168798Y-82000828D01*
X180168798Y-82000828D02*
X179954513Y-82000828D01*
X179954513Y-82000828D02*
X179811655Y-81929400D01*
X180454513Y-81429400D02*
X180311655Y-81500828D01*
X180311655Y-81500828D02*
X180025941Y-81500828D01*
X180025941Y-81500828D02*
X179883084Y-81429400D01*
X179883084Y-81429400D02*
X179811655Y-81357971D01*
X179811655Y-81357971D02*
X179740227Y-81215114D01*
X179740227Y-81215114D02*
X179740227Y-80786542D01*
X179740227Y-80786542D02*
X179811655Y-80643685D01*
X179811655Y-80643685D02*
X179883084Y-80572257D01*
X179883084Y-80572257D02*
X180025941Y-80500828D01*
X180025941Y-80500828D02*
X180311655Y-80500828D01*
X180311655Y-80500828D02*
X180454513Y-80572257D01*
X181025941Y-80500828D02*
X181383084Y-81500828D01*
X181383084Y-81500828D02*
X181740227Y-80500828D01*
D10*
X138043884Y-113311466D02*
X138805789Y-113311466D01*
X138424836Y-113692419D02*
X138424836Y-112930514D01*
X134443884Y-84392419D02*
X134443884Y-83392419D01*
X134443884Y-83392419D02*
X134681979Y-83392419D01*
X134681979Y-83392419D02*
X134824836Y-83440038D01*
X134824836Y-83440038D02*
X134920074Y-83535276D01*
X134920074Y-83535276D02*
X134967693Y-83630514D01*
X134967693Y-83630514D02*
X135015312Y-83820990D01*
X135015312Y-83820990D02*
X135015312Y-83963847D01*
X135015312Y-83963847D02*
X134967693Y-84154323D01*
X134967693Y-84154323D02*
X134920074Y-84249561D01*
X134920074Y-84249561D02*
X134824836Y-84344800D01*
X134824836Y-84344800D02*
X134681979Y-84392419D01*
X134681979Y-84392419D02*
X134443884Y-84392419D01*
X135872455Y-83725752D02*
X135872455Y-84392419D01*
X135634360Y-83344800D02*
X135396265Y-84059085D01*
X135396265Y-84059085D02*
X136015312Y-84059085D01*
X122732455Y-70605752D02*
X122732455Y-71272419D01*
X122494360Y-70224800D02*
X122256265Y-70939085D01*
X122256265Y-70939085D02*
X122875312Y-70939085D01*
X123161027Y-70272419D02*
X123827693Y-70272419D01*
X123827693Y-70272419D02*
X123399122Y-71272419D01*
X124399122Y-70272419D02*
X124494360Y-70272419D01*
X124494360Y-70272419D02*
X124589598Y-70320038D01*
X124589598Y-70320038D02*
X124637217Y-70367657D01*
X124637217Y-70367657D02*
X124684836Y-70462895D01*
X124684836Y-70462895D02*
X124732455Y-70653371D01*
X124732455Y-70653371D02*
X124732455Y-70891466D01*
X124732455Y-70891466D02*
X124684836Y-71081942D01*
X124684836Y-71081942D02*
X124637217Y-71177180D01*
X124637217Y-71177180D02*
X124589598Y-71224800D01*
X124589598Y-71224800D02*
X124494360Y-71272419D01*
X124494360Y-71272419D02*
X124399122Y-71272419D01*
X124399122Y-71272419D02*
X124303884Y-71224800D01*
X124303884Y-71224800D02*
X124256265Y-71177180D01*
X124256265Y-71177180D02*
X124208646Y-71081942D01*
X124208646Y-71081942D02*
X124161027Y-70891466D01*
X124161027Y-70891466D02*
X124161027Y-70653371D01*
X124161027Y-70653371D02*
X124208646Y-70462895D01*
X124208646Y-70462895D02*
X124256265Y-70367657D01*
X124256265Y-70367657D02*
X124303884Y-70320038D01*
X124303884Y-70320038D02*
X124399122Y-70272419D01*
X125922932Y-70605752D02*
X125922932Y-71605752D01*
X126399122Y-71129561D02*
X126446741Y-71224800D01*
X126446741Y-71224800D02*
X126541979Y-71272419D01*
X125922932Y-71129561D02*
X125970551Y-71224800D01*
X125970551Y-71224800D02*
X126065789Y-71272419D01*
X126065789Y-71272419D02*
X126256265Y-71272419D01*
X126256265Y-71272419D02*
X126351503Y-71224800D01*
X126351503Y-71224800D02*
X126399122Y-71129561D01*
X126399122Y-71129561D02*
X126399122Y-70605752D01*
X127303884Y-70748609D02*
X126970551Y-70748609D01*
X126970551Y-71272419D02*
X126970551Y-70272419D01*
X126970551Y-70272419D02*
X127446741Y-70272419D01*
X132643884Y-113311466D02*
X133405789Y-113311466D01*
D12*
X159083082Y-60414484D02*
X159225939Y-60485912D01*
X159225939Y-60485912D02*
X159511653Y-60485912D01*
X159511653Y-60485912D02*
X159654510Y-60414484D01*
X159654510Y-60414484D02*
X159725939Y-60271626D01*
X159725939Y-60271626D02*
X159725939Y-60200198D01*
X159725939Y-60200198D02*
X159654510Y-60057341D01*
X159654510Y-60057341D02*
X159511653Y-59985912D01*
X159511653Y-59985912D02*
X159297368Y-59985912D01*
X159297368Y-59985912D02*
X159154510Y-59914484D01*
X159154510Y-59914484D02*
X159083082Y-59771626D01*
X159083082Y-59771626D02*
X159083082Y-59700198D01*
X159083082Y-59700198D02*
X159154510Y-59557341D01*
X159154510Y-59557341D02*
X159297368Y-59485912D01*
X159297368Y-59485912D02*
X159511653Y-59485912D01*
X159511653Y-59485912D02*
X159654510Y-59557341D01*
X160225939Y-59485912D02*
X160511654Y-60485912D01*
X160511654Y-60485912D02*
X160797368Y-59771626D01*
X160797368Y-59771626D02*
X161083082Y-60485912D01*
X161083082Y-60485912D02*
X161368796Y-59485912D01*
X162583083Y-60485912D02*
X162583083Y-59700198D01*
X162583083Y-59700198D02*
X162511654Y-59557341D01*
X162511654Y-59557341D02*
X162368797Y-59485912D01*
X162368797Y-59485912D02*
X162083083Y-59485912D01*
X162083083Y-59485912D02*
X161940225Y-59557341D01*
X162583083Y-60414484D02*
X162440225Y-60485912D01*
X162440225Y-60485912D02*
X162083083Y-60485912D01*
X162083083Y-60485912D02*
X161940225Y-60414484D01*
X161940225Y-60414484D02*
X161868797Y-60271626D01*
X161868797Y-60271626D02*
X161868797Y-60128769D01*
X161868797Y-60128769D02*
X161940225Y-59985912D01*
X161940225Y-59985912D02*
X162083083Y-59914484D01*
X162083083Y-59914484D02*
X162440225Y-59914484D01*
X162440225Y-59914484D02*
X162583083Y-59843055D01*
X163511654Y-60485912D02*
X163368797Y-60414484D01*
X163368797Y-60414484D02*
X163297368Y-60271626D01*
X163297368Y-60271626D02*
X163297368Y-58985912D01*
X164297368Y-60485912D02*
X164154511Y-60414484D01*
X164154511Y-60414484D02*
X164083082Y-60271626D01*
X164083082Y-60271626D02*
X164083082Y-58985912D01*
X165083082Y-60485912D02*
X164940225Y-60414484D01*
X164940225Y-60414484D02*
X164868796Y-60343055D01*
X164868796Y-60343055D02*
X164797368Y-60200198D01*
X164797368Y-60200198D02*
X164797368Y-59771626D01*
X164797368Y-59771626D02*
X164868796Y-59628769D01*
X164868796Y-59628769D02*
X164940225Y-59557341D01*
X164940225Y-59557341D02*
X165083082Y-59485912D01*
X165083082Y-59485912D02*
X165297368Y-59485912D01*
X165297368Y-59485912D02*
X165440225Y-59557341D01*
X165440225Y-59557341D02*
X165511654Y-59628769D01*
X165511654Y-59628769D02*
X165583082Y-59771626D01*
X165583082Y-59771626D02*
X165583082Y-60200198D01*
X165583082Y-60200198D02*
X165511654Y-60343055D01*
X165511654Y-60343055D02*
X165440225Y-60414484D01*
X165440225Y-60414484D02*
X165297368Y-60485912D01*
X165297368Y-60485912D02*
X165083082Y-60485912D01*
X166083082Y-59485912D02*
X166368797Y-60485912D01*
X166368797Y-60485912D02*
X166654511Y-59771626D01*
X166654511Y-59771626D02*
X166940225Y-60485912D01*
X166940225Y-60485912D02*
X167225939Y-59485912D01*
X168940225Y-59914484D02*
X170083083Y-59914484D01*
X171797368Y-59485912D02*
X172154511Y-60485912D01*
X172154511Y-60485912D02*
X172511654Y-59485912D01*
X173868797Y-60485912D02*
X173011654Y-60485912D01*
X173440225Y-60485912D02*
X173440225Y-58985912D01*
X173440225Y-58985912D02*
X173297368Y-59200198D01*
X173297368Y-59200198D02*
X173154511Y-59343055D01*
X173154511Y-59343055D02*
X173011654Y-59414484D01*
X175154511Y-58985912D02*
X174868796Y-58985912D01*
X174868796Y-58985912D02*
X174725939Y-59057341D01*
X174725939Y-59057341D02*
X174654511Y-59128769D01*
X174654511Y-59128769D02*
X174511653Y-59343055D01*
X174511653Y-59343055D02*
X174440225Y-59628769D01*
X174440225Y-59628769D02*
X174440225Y-60200198D01*
X174440225Y-60200198D02*
X174511653Y-60343055D01*
X174511653Y-60343055D02*
X174583082Y-60414484D01*
X174583082Y-60414484D02*
X174725939Y-60485912D01*
X174725939Y-60485912D02*
X175011653Y-60485912D01*
X175011653Y-60485912D02*
X175154511Y-60414484D01*
X175154511Y-60414484D02*
X175225939Y-60343055D01*
X175225939Y-60343055D02*
X175297368Y-60200198D01*
X175297368Y-60200198D02*
X175297368Y-59843055D01*
X175297368Y-59843055D02*
X175225939Y-59700198D01*
X175225939Y-59700198D02*
X175154511Y-59628769D01*
X175154511Y-59628769D02*
X175011653Y-59557341D01*
X175011653Y-59557341D02*
X174725939Y-59557341D01*
X174725939Y-59557341D02*
X174583082Y-59628769D01*
X174583082Y-59628769D02*
X174511653Y-59700198D01*
X174511653Y-59700198D02*
X174440225Y-59843055D01*
X159154510Y-62900828D02*
X159154510Y-61400828D01*
X160011653Y-62900828D02*
X159368796Y-62043685D01*
X160011653Y-61400828D02*
X159154510Y-62257971D01*
X161297368Y-62900828D02*
X161297368Y-62115114D01*
X161297368Y-62115114D02*
X161225939Y-61972257D01*
X161225939Y-61972257D02*
X161083082Y-61900828D01*
X161083082Y-61900828D02*
X160797368Y-61900828D01*
X160797368Y-61900828D02*
X160654510Y-61972257D01*
X161297368Y-62829400D02*
X161154510Y-62900828D01*
X161154510Y-62900828D02*
X160797368Y-62900828D01*
X160797368Y-62900828D02*
X160654510Y-62829400D01*
X160654510Y-62829400D02*
X160583082Y-62686542D01*
X160583082Y-62686542D02*
X160583082Y-62543685D01*
X160583082Y-62543685D02*
X160654510Y-62400828D01*
X160654510Y-62400828D02*
X160797368Y-62329400D01*
X160797368Y-62329400D02*
X161154510Y-62329400D01*
X161154510Y-62329400D02*
X161297368Y-62257971D01*
X162011653Y-62900828D02*
X162011653Y-61900828D01*
X162011653Y-62186542D02*
X162083082Y-62043685D01*
X162083082Y-62043685D02*
X162154511Y-61972257D01*
X162154511Y-61972257D02*
X162297368Y-61900828D01*
X162297368Y-61900828D02*
X162440225Y-61900828D01*
X162940224Y-62900828D02*
X162940224Y-61400828D01*
X162940224Y-61972257D02*
X163083082Y-61900828D01*
X163083082Y-61900828D02*
X163368796Y-61900828D01*
X163368796Y-61900828D02*
X163511653Y-61972257D01*
X163511653Y-61972257D02*
X163583082Y-62043685D01*
X163583082Y-62043685D02*
X163654510Y-62186542D01*
X163654510Y-62186542D02*
X163654510Y-62615114D01*
X163654510Y-62615114D02*
X163583082Y-62757971D01*
X163583082Y-62757971D02*
X163511653Y-62829400D01*
X163511653Y-62829400D02*
X163368796Y-62900828D01*
X163368796Y-62900828D02*
X163083082Y-62900828D01*
X163083082Y-62900828D02*
X162940224Y-62829400D01*
X164940225Y-62900828D02*
X164940225Y-62115114D01*
X164940225Y-62115114D02*
X164868796Y-61972257D01*
X164868796Y-61972257D02*
X164725939Y-61900828D01*
X164725939Y-61900828D02*
X164440225Y-61900828D01*
X164440225Y-61900828D02*
X164297367Y-61972257D01*
X164940225Y-62829400D02*
X164797367Y-62900828D01*
X164797367Y-62900828D02*
X164440225Y-62900828D01*
X164440225Y-62900828D02*
X164297367Y-62829400D01*
X164297367Y-62829400D02*
X164225939Y-62686542D01*
X164225939Y-62686542D02*
X164225939Y-62543685D01*
X164225939Y-62543685D02*
X164297367Y-62400828D01*
X164297367Y-62400828D02*
X164440225Y-62329400D01*
X164440225Y-62329400D02*
X164797367Y-62329400D01*
X164797367Y-62329400D02*
X164940225Y-62257971D01*
X165654510Y-61900828D02*
X165654510Y-62900828D01*
X165654510Y-62043685D02*
X165725939Y-61972257D01*
X165725939Y-61972257D02*
X165868796Y-61900828D01*
X165868796Y-61900828D02*
X166083082Y-61900828D01*
X166083082Y-61900828D02*
X166225939Y-61972257D01*
X166225939Y-61972257D02*
X166297368Y-62115114D01*
X166297368Y-62115114D02*
X166297368Y-62900828D01*
X167654511Y-62900828D02*
X167654511Y-61400828D01*
X167654511Y-62829400D02*
X167511653Y-62900828D01*
X167511653Y-62900828D02*
X167225939Y-62900828D01*
X167225939Y-62900828D02*
X167083082Y-62829400D01*
X167083082Y-62829400D02*
X167011653Y-62757971D01*
X167011653Y-62757971D02*
X166940225Y-62615114D01*
X166940225Y-62615114D02*
X166940225Y-62186542D01*
X166940225Y-62186542D02*
X167011653Y-62043685D01*
X167011653Y-62043685D02*
X167083082Y-61972257D01*
X167083082Y-61972257D02*
X167225939Y-61900828D01*
X167225939Y-61900828D02*
X167511653Y-61900828D01*
X167511653Y-61900828D02*
X167654511Y-61972257D01*
X170583082Y-61329400D02*
X169297368Y-63257971D01*
X172225939Y-62900828D02*
X172225939Y-61400828D01*
X173083082Y-62900828D02*
X172440225Y-62043685D01*
X173083082Y-61400828D02*
X172225939Y-62257971D01*
X174368797Y-62900828D02*
X174368797Y-62115114D01*
X174368797Y-62115114D02*
X174297368Y-61972257D01*
X174297368Y-61972257D02*
X174154511Y-61900828D01*
X174154511Y-61900828D02*
X173868797Y-61900828D01*
X173868797Y-61900828D02*
X173725939Y-61972257D01*
X174368797Y-62829400D02*
X174225939Y-62900828D01*
X174225939Y-62900828D02*
X173868797Y-62900828D01*
X173868797Y-62900828D02*
X173725939Y-62829400D01*
X173725939Y-62829400D02*
X173654511Y-62686542D01*
X173654511Y-62686542D02*
X173654511Y-62543685D01*
X173654511Y-62543685D02*
X173725939Y-62400828D01*
X173725939Y-62400828D02*
X173868797Y-62329400D01*
X173868797Y-62329400D02*
X174225939Y-62329400D01*
X174225939Y-62329400D02*
X174368797Y-62257971D01*
X175083082Y-62900828D02*
X175083082Y-61900828D01*
X175083082Y-62043685D02*
X175154511Y-61972257D01*
X175154511Y-61972257D02*
X175297368Y-61900828D01*
X175297368Y-61900828D02*
X175511654Y-61900828D01*
X175511654Y-61900828D02*
X175654511Y-61972257D01*
X175654511Y-61972257D02*
X175725940Y-62115114D01*
X175725940Y-62115114D02*
X175725940Y-62900828D01*
X175725940Y-62115114D02*
X175797368Y-61972257D01*
X175797368Y-61972257D02*
X175940225Y-61900828D01*
X175940225Y-61900828D02*
X176154511Y-61900828D01*
X176154511Y-61900828D02*
X176297368Y-61972257D01*
X176297368Y-61972257D02*
X176368797Y-62115114D01*
X176368797Y-62115114D02*
X176368797Y-62900828D01*
X177725940Y-62900828D02*
X177725940Y-62115114D01*
X177725940Y-62115114D02*
X177654511Y-61972257D01*
X177654511Y-61972257D02*
X177511654Y-61900828D01*
X177511654Y-61900828D02*
X177225940Y-61900828D01*
X177225940Y-61900828D02*
X177083082Y-61972257D01*
X177725940Y-62829400D02*
X177583082Y-62900828D01*
X177583082Y-62900828D02*
X177225940Y-62900828D01*
X177225940Y-62900828D02*
X177083082Y-62829400D01*
X177083082Y-62829400D02*
X177011654Y-62686542D01*
X177011654Y-62686542D02*
X177011654Y-62543685D01*
X177011654Y-62543685D02*
X177083082Y-62400828D01*
X177083082Y-62400828D02*
X177225940Y-62329400D01*
X177225940Y-62329400D02*
X177583082Y-62329400D01*
X177583082Y-62329400D02*
X177725940Y-62257971D01*
X178440225Y-61900828D02*
X178440225Y-62900828D01*
X178440225Y-62043685D02*
X178511654Y-61972257D01*
X178511654Y-61972257D02*
X178654511Y-61900828D01*
X178654511Y-61900828D02*
X178868797Y-61900828D01*
X178868797Y-61900828D02*
X179011654Y-61972257D01*
X179011654Y-61972257D02*
X179083083Y-62115114D01*
X179083083Y-62115114D02*
X179083083Y-62900828D01*
X180440226Y-61900828D02*
X180440226Y-63115114D01*
X180440226Y-63115114D02*
X180368797Y-63257971D01*
X180368797Y-63257971D02*
X180297368Y-63329400D01*
X180297368Y-63329400D02*
X180154511Y-63400828D01*
X180154511Y-63400828D02*
X179940226Y-63400828D01*
X179940226Y-63400828D02*
X179797368Y-63329400D01*
X180440226Y-62829400D02*
X180297368Y-62900828D01*
X180297368Y-62900828D02*
X180011654Y-62900828D01*
X180011654Y-62900828D02*
X179868797Y-62829400D01*
X179868797Y-62829400D02*
X179797368Y-62757971D01*
X179797368Y-62757971D02*
X179725940Y-62615114D01*
X179725940Y-62615114D02*
X179725940Y-62186542D01*
X179725940Y-62186542D02*
X179797368Y-62043685D01*
X179797368Y-62043685D02*
X179868797Y-61972257D01*
X179868797Y-61972257D02*
X180011654Y-61900828D01*
X180011654Y-61900828D02*
X180297368Y-61900828D01*
X180297368Y-61900828D02*
X180440226Y-61972257D01*
X181154511Y-62900828D02*
X181154511Y-61900828D01*
X181154511Y-61400828D02*
X181083083Y-61472257D01*
X181083083Y-61472257D02*
X181154511Y-61543685D01*
X181154511Y-61543685D02*
X181225940Y-61472257D01*
X181225940Y-61472257D02*
X181154511Y-61400828D01*
X181154511Y-61400828D02*
X181154511Y-61543685D01*
X181868797Y-62900828D02*
X181868797Y-61900828D01*
X181868797Y-62186542D02*
X181940226Y-62043685D01*
X181940226Y-62043685D02*
X182011655Y-61972257D01*
X182011655Y-61972257D02*
X182154512Y-61900828D01*
X182154512Y-61900828D02*
X182297369Y-61900828D01*
D11*
X136583958Y-119476266D02*
X139631578Y-119476266D01*
X138107768Y-121000076D02*
X138107768Y-117952457D01*
D13*
X163238333Y-126818152D02*
X163476428Y-127484819D01*
X163714523Y-126818152D02*
X163476428Y-127484819D01*
X163476428Y-127484819D02*
X163381190Y-127722914D01*
X163381190Y-127722914D02*
X163333571Y-127770533D01*
X163333571Y-127770533D02*
X163238333Y-127818152D01*
X164476428Y-127437200D02*
X164381190Y-127484819D01*
X164381190Y-127484819D02*
X164190714Y-127484819D01*
X164190714Y-127484819D02*
X164095476Y-127437200D01*
X164095476Y-127437200D02*
X164047857Y-127341961D01*
X164047857Y-127341961D02*
X164047857Y-126961009D01*
X164047857Y-126961009D02*
X164095476Y-126865771D01*
X164095476Y-126865771D02*
X164190714Y-126818152D01*
X164190714Y-126818152D02*
X164381190Y-126818152D01*
X164381190Y-126818152D02*
X164476428Y-126865771D01*
X164476428Y-126865771D02*
X164524047Y-126961009D01*
X164524047Y-126961009D02*
X164524047Y-127056247D01*
X164524047Y-127056247D02*
X164047857Y-127151485D01*
X165095476Y-127484819D02*
X165000238Y-127437200D01*
X165000238Y-127437200D02*
X164952619Y-127341961D01*
X164952619Y-127341961D02*
X164952619Y-126484819D01*
X165619286Y-127484819D02*
X165524048Y-127437200D01*
X165524048Y-127437200D02*
X165476429Y-127341961D01*
X165476429Y-127341961D02*
X165476429Y-126484819D01*
X166143096Y-127484819D02*
X166047858Y-127437200D01*
X166047858Y-127437200D02*
X166000239Y-127389580D01*
X166000239Y-127389580D02*
X165952620Y-127294342D01*
X165952620Y-127294342D02*
X165952620Y-127008628D01*
X165952620Y-127008628D02*
X166000239Y-126913390D01*
X166000239Y-126913390D02*
X166047858Y-126865771D01*
X166047858Y-126865771D02*
X166143096Y-126818152D01*
X166143096Y-126818152D02*
X166285953Y-126818152D01*
X166285953Y-126818152D02*
X166381191Y-126865771D01*
X166381191Y-126865771D02*
X166428810Y-126913390D01*
X166428810Y-126913390D02*
X166476429Y-127008628D01*
X166476429Y-127008628D02*
X166476429Y-127294342D01*
X166476429Y-127294342D02*
X166428810Y-127389580D01*
X166428810Y-127389580D02*
X166381191Y-127437200D01*
X166381191Y-127437200D02*
X166285953Y-127484819D01*
X166285953Y-127484819D02*
X166143096Y-127484819D01*
X166809763Y-126818152D02*
X167000239Y-127484819D01*
X167000239Y-127484819D02*
X167190715Y-127008628D01*
X167190715Y-127008628D02*
X167381191Y-127484819D01*
X167381191Y-127484819D02*
X167571667Y-126818152D01*
D14*
X164809524Y-123393855D02*
X164809524Y-122593855D01*
X164809524Y-122593855D02*
X165000000Y-122593855D01*
X165000000Y-122593855D02*
X165114286Y-122631950D01*
X165114286Y-122631950D02*
X165190476Y-122708140D01*
X165190476Y-122708140D02*
X165228571Y-122784331D01*
X165228571Y-122784331D02*
X165266667Y-122936712D01*
X165266667Y-122936712D02*
X165266667Y-123050998D01*
X165266667Y-123050998D02*
X165228571Y-123203379D01*
X165228571Y-123203379D02*
X165190476Y-123279569D01*
X165190476Y-123279569D02*
X165114286Y-123355760D01*
X165114286Y-123355760D02*
X165000000Y-123393855D01*
X165000000Y-123393855D02*
X164809524Y-123393855D01*
X166028571Y-123393855D02*
X165571428Y-123393855D01*
X165800000Y-123393855D02*
X165800000Y-122593855D01*
X165800000Y-122593855D02*
X165723809Y-122708140D01*
X165723809Y-122708140D02*
X165647619Y-122784331D01*
X165647619Y-122784331D02*
X165571428Y-122822426D01*
D13*
X164554819Y-101484761D02*
X164554819Y-100865714D01*
X164554819Y-100865714D02*
X164935771Y-101199047D01*
X164935771Y-101199047D02*
X164935771Y-101056190D01*
X164935771Y-101056190D02*
X164983390Y-100960952D01*
X164983390Y-100960952D02*
X165031009Y-100913333D01*
X165031009Y-100913333D02*
X165126247Y-100865714D01*
X165126247Y-100865714D02*
X165364342Y-100865714D01*
X165364342Y-100865714D02*
X165459580Y-100913333D01*
X165459580Y-100913333D02*
X165507200Y-100960952D01*
X165507200Y-100960952D02*
X165554819Y-101056190D01*
X165554819Y-101056190D02*
X165554819Y-101341904D01*
X165554819Y-101341904D02*
X165507200Y-101437142D01*
X165507200Y-101437142D02*
X165459580Y-101484761D01*
X165459580Y-100437142D02*
X165507200Y-100389523D01*
X165507200Y-100389523D02*
X165554819Y-100437142D01*
X165554819Y-100437142D02*
X165507200Y-100484761D01*
X165507200Y-100484761D02*
X165459580Y-100437142D01*
X165459580Y-100437142D02*
X165554819Y-100437142D01*
X164554819Y-100056190D02*
X164554819Y-99437143D01*
X164554819Y-99437143D02*
X164935771Y-99770476D01*
X164935771Y-99770476D02*
X164935771Y-99627619D01*
X164935771Y-99627619D02*
X164983390Y-99532381D01*
X164983390Y-99532381D02*
X165031009Y-99484762D01*
X165031009Y-99484762D02*
X165126247Y-99437143D01*
X165126247Y-99437143D02*
X165364342Y-99437143D01*
X165364342Y-99437143D02*
X165459580Y-99484762D01*
X165459580Y-99484762D02*
X165507200Y-99532381D01*
X165507200Y-99532381D02*
X165554819Y-99627619D01*
X165554819Y-99627619D02*
X165554819Y-99913333D01*
X165554819Y-99913333D02*
X165507200Y-100008571D01*
X165507200Y-100008571D02*
X165459580Y-100056190D01*
X165554819Y-98246666D02*
X164554819Y-98246666D01*
X165173866Y-98151428D02*
X165554819Y-97865714D01*
X164888152Y-97865714D02*
X165269104Y-98246666D01*
X165554819Y-97294285D02*
X165507200Y-97389523D01*
X165507200Y-97389523D02*
X165459580Y-97437142D01*
X165459580Y-97437142D02*
X165364342Y-97484761D01*
X165364342Y-97484761D02*
X165078628Y-97484761D01*
X165078628Y-97484761D02*
X164983390Y-97437142D01*
X164983390Y-97437142D02*
X164935771Y-97389523D01*
X164935771Y-97389523D02*
X164888152Y-97294285D01*
X164888152Y-97294285D02*
X164888152Y-97151428D01*
X164888152Y-97151428D02*
X164935771Y-97056190D01*
X164935771Y-97056190D02*
X164983390Y-97008571D01*
X164983390Y-97008571D02*
X165078628Y-96960952D01*
X165078628Y-96960952D02*
X165364342Y-96960952D01*
X165364342Y-96960952D02*
X165459580Y-97008571D01*
X165459580Y-97008571D02*
X165507200Y-97056190D01*
X165507200Y-97056190D02*
X165554819Y-97151428D01*
X165554819Y-97151428D02*
X165554819Y-97294285D01*
X165554819Y-96532380D02*
X164554819Y-96532380D01*
X165554819Y-96103809D02*
X165031009Y-96103809D01*
X165031009Y-96103809D02*
X164935771Y-96151428D01*
X164935771Y-96151428D02*
X164888152Y-96246666D01*
X164888152Y-96246666D02*
X164888152Y-96389523D01*
X164888152Y-96389523D02*
X164935771Y-96484761D01*
X164935771Y-96484761D02*
X164983390Y-96532380D01*
X165554819Y-95627618D02*
X164888152Y-95627618D01*
X164983390Y-95627618D02*
X164935771Y-95579999D01*
X164935771Y-95579999D02*
X164888152Y-95484761D01*
X164888152Y-95484761D02*
X164888152Y-95341904D01*
X164888152Y-95341904D02*
X164935771Y-95246666D01*
X164935771Y-95246666D02*
X165031009Y-95199047D01*
X165031009Y-95199047D02*
X165554819Y-95199047D01*
X165031009Y-95199047D02*
X164935771Y-95151428D01*
X164935771Y-95151428D02*
X164888152Y-95056190D01*
X164888152Y-95056190D02*
X164888152Y-94913333D01*
X164888152Y-94913333D02*
X164935771Y-94818094D01*
X164935771Y-94818094D02*
X165031009Y-94770475D01*
X165031009Y-94770475D02*
X165554819Y-94770475D01*
X163184819Y-98246666D02*
X162708628Y-98579999D01*
X163184819Y-98818094D02*
X162184819Y-98818094D01*
X162184819Y-98818094D02*
X162184819Y-98437142D01*
X162184819Y-98437142D02*
X162232438Y-98341904D01*
X162232438Y-98341904D02*
X162280057Y-98294285D01*
X162280057Y-98294285D02*
X162375295Y-98246666D01*
X162375295Y-98246666D02*
X162518152Y-98246666D01*
X162518152Y-98246666D02*
X162613390Y-98294285D01*
X162613390Y-98294285D02*
X162661009Y-98341904D01*
X162661009Y-98341904D02*
X162708628Y-98437142D01*
X162708628Y-98437142D02*
X162708628Y-98818094D01*
X162184819Y-97341904D02*
X162184819Y-97818094D01*
X162184819Y-97818094D02*
X162661009Y-97865713D01*
X162661009Y-97865713D02*
X162613390Y-97818094D01*
X162613390Y-97818094D02*
X162565771Y-97722856D01*
X162565771Y-97722856D02*
X162565771Y-97484761D01*
X162565771Y-97484761D02*
X162613390Y-97389523D01*
X162613390Y-97389523D02*
X162661009Y-97341904D01*
X162661009Y-97341904D02*
X162756247Y-97294285D01*
X162756247Y-97294285D02*
X162994342Y-97294285D01*
X162994342Y-97294285D02*
X163089580Y-97341904D01*
X163089580Y-97341904D02*
X163137200Y-97389523D01*
X163137200Y-97389523D02*
X163184819Y-97484761D01*
X163184819Y-97484761D02*
X163184819Y-97722856D01*
X163184819Y-97722856D02*
X163137200Y-97818094D01*
X163137200Y-97818094D02*
X163089580Y-97865713D01*
X180511905Y-85004819D02*
X180511905Y-84004819D01*
X180511905Y-84004819D02*
X180750000Y-84004819D01*
X180750000Y-84004819D02*
X180892857Y-84052438D01*
X180892857Y-84052438D02*
X180988095Y-84147676D01*
X180988095Y-84147676D02*
X181035714Y-84242914D01*
X181035714Y-84242914D02*
X181083333Y-84433390D01*
X181083333Y-84433390D02*
X181083333Y-84576247D01*
X181083333Y-84576247D02*
X181035714Y-84766723D01*
X181035714Y-84766723D02*
X180988095Y-84861961D01*
X180988095Y-84861961D02*
X180892857Y-84957200D01*
X180892857Y-84957200D02*
X180750000Y-85004819D01*
X180750000Y-85004819D02*
X180511905Y-85004819D01*
X181940476Y-84004819D02*
X181750000Y-84004819D01*
X181750000Y-84004819D02*
X181654762Y-84052438D01*
X181654762Y-84052438D02*
X181607143Y-84100057D01*
X181607143Y-84100057D02*
X181511905Y-84242914D01*
X181511905Y-84242914D02*
X181464286Y-84433390D01*
X181464286Y-84433390D02*
X181464286Y-84814342D01*
X181464286Y-84814342D02*
X181511905Y-84909580D01*
X181511905Y-84909580D02*
X181559524Y-84957200D01*
X181559524Y-84957200D02*
X181654762Y-85004819D01*
X181654762Y-85004819D02*
X181845238Y-85004819D01*
X181845238Y-85004819D02*
X181940476Y-84957200D01*
X181940476Y-84957200D02*
X181988095Y-84909580D01*
X181988095Y-84909580D02*
X182035714Y-84814342D01*
X182035714Y-84814342D02*
X182035714Y-84576247D01*
X182035714Y-84576247D02*
X181988095Y-84481009D01*
X181988095Y-84481009D02*
X181940476Y-84433390D01*
X181940476Y-84433390D02*
X181845238Y-84385771D01*
X181845238Y-84385771D02*
X181654762Y-84385771D01*
X181654762Y-84385771D02*
X181559524Y-84433390D01*
X181559524Y-84433390D02*
X181511905Y-84481009D01*
X181511905Y-84481009D02*
X181464286Y-84576247D01*
X179862857Y-90564819D02*
X179862857Y-89564819D01*
X179862857Y-89945771D02*
X179958095Y-89898152D01*
X179958095Y-89898152D02*
X180148571Y-89898152D01*
X180148571Y-89898152D02*
X180243809Y-89945771D01*
X180243809Y-89945771D02*
X180291428Y-89993390D01*
X180291428Y-89993390D02*
X180339047Y-90088628D01*
X180339047Y-90088628D02*
X180339047Y-90374342D01*
X180339047Y-90374342D02*
X180291428Y-90469580D01*
X180291428Y-90469580D02*
X180243809Y-90517200D01*
X180243809Y-90517200D02*
X180148571Y-90564819D01*
X180148571Y-90564819D02*
X179958095Y-90564819D01*
X179958095Y-90564819D02*
X179862857Y-90517200D01*
X180910476Y-90564819D02*
X180815238Y-90517200D01*
X180815238Y-90517200D02*
X180767619Y-90421961D01*
X180767619Y-90421961D02*
X180767619Y-89564819D01*
X181720000Y-89898152D02*
X181720000Y-90564819D01*
X181291429Y-89898152D02*
X181291429Y-90421961D01*
X181291429Y-90421961D02*
X181339048Y-90517200D01*
X181339048Y-90517200D02*
X181434286Y-90564819D01*
X181434286Y-90564819D02*
X181577143Y-90564819D01*
X181577143Y-90564819D02*
X181672381Y-90517200D01*
X181672381Y-90517200D02*
X181720000Y-90469580D01*
X182577143Y-90517200D02*
X182481905Y-90564819D01*
X182481905Y-90564819D02*
X182291429Y-90564819D01*
X182291429Y-90564819D02*
X182196191Y-90517200D01*
X182196191Y-90517200D02*
X182148572Y-90421961D01*
X182148572Y-90421961D02*
X182148572Y-90041009D01*
X182148572Y-90041009D02*
X182196191Y-89945771D01*
X182196191Y-89945771D02*
X182291429Y-89898152D01*
X182291429Y-89898152D02*
X182481905Y-89898152D01*
X182481905Y-89898152D02*
X182577143Y-89945771D01*
X182577143Y-89945771D02*
X182624762Y-90041009D01*
X182624762Y-90041009D02*
X182624762Y-90136247D01*
X182624762Y-90136247D02*
X182148572Y-90231485D01*
X187870057Y-115087142D02*
X187822438Y-115039523D01*
X187822438Y-115039523D02*
X187774819Y-114944285D01*
X187774819Y-114944285D02*
X187774819Y-114706190D01*
X187774819Y-114706190D02*
X187822438Y-114610952D01*
X187822438Y-114610952D02*
X187870057Y-114563333D01*
X187870057Y-114563333D02*
X187965295Y-114515714D01*
X187965295Y-114515714D02*
X188060533Y-114515714D01*
X188060533Y-114515714D02*
X188203390Y-114563333D01*
X188203390Y-114563333D02*
X188774819Y-115134761D01*
X188774819Y-115134761D02*
X188774819Y-114515714D01*
X188679580Y-114087142D02*
X188727200Y-114039523D01*
X188727200Y-114039523D02*
X188774819Y-114087142D01*
X188774819Y-114087142D02*
X188727200Y-114134761D01*
X188727200Y-114134761D02*
X188679580Y-114087142D01*
X188679580Y-114087142D02*
X188774819Y-114087142D01*
X187870057Y-113658571D02*
X187822438Y-113610952D01*
X187822438Y-113610952D02*
X187774819Y-113515714D01*
X187774819Y-113515714D02*
X187774819Y-113277619D01*
X187774819Y-113277619D02*
X187822438Y-113182381D01*
X187822438Y-113182381D02*
X187870057Y-113134762D01*
X187870057Y-113134762D02*
X187965295Y-113087143D01*
X187965295Y-113087143D02*
X188060533Y-113087143D01*
X188060533Y-113087143D02*
X188203390Y-113134762D01*
X188203390Y-113134762D02*
X188774819Y-113706190D01*
X188774819Y-113706190D02*
X188774819Y-113087143D01*
X188774819Y-111896666D02*
X187774819Y-111896666D01*
X188393866Y-111801428D02*
X188774819Y-111515714D01*
X188108152Y-111515714D02*
X188489104Y-111896666D01*
X188774819Y-110944285D02*
X188727200Y-111039523D01*
X188727200Y-111039523D02*
X188679580Y-111087142D01*
X188679580Y-111087142D02*
X188584342Y-111134761D01*
X188584342Y-111134761D02*
X188298628Y-111134761D01*
X188298628Y-111134761D02*
X188203390Y-111087142D01*
X188203390Y-111087142D02*
X188155771Y-111039523D01*
X188155771Y-111039523D02*
X188108152Y-110944285D01*
X188108152Y-110944285D02*
X188108152Y-110801428D01*
X188108152Y-110801428D02*
X188155771Y-110706190D01*
X188155771Y-110706190D02*
X188203390Y-110658571D01*
X188203390Y-110658571D02*
X188298628Y-110610952D01*
X188298628Y-110610952D02*
X188584342Y-110610952D01*
X188584342Y-110610952D02*
X188679580Y-110658571D01*
X188679580Y-110658571D02*
X188727200Y-110706190D01*
X188727200Y-110706190D02*
X188774819Y-110801428D01*
X188774819Y-110801428D02*
X188774819Y-110944285D01*
X188774819Y-110182380D02*
X187774819Y-110182380D01*
X188774819Y-109753809D02*
X188251009Y-109753809D01*
X188251009Y-109753809D02*
X188155771Y-109801428D01*
X188155771Y-109801428D02*
X188108152Y-109896666D01*
X188108152Y-109896666D02*
X188108152Y-110039523D01*
X188108152Y-110039523D02*
X188155771Y-110134761D01*
X188155771Y-110134761D02*
X188203390Y-110182380D01*
X188774819Y-109277618D02*
X188108152Y-109277618D01*
X188203390Y-109277618D02*
X188155771Y-109229999D01*
X188155771Y-109229999D02*
X188108152Y-109134761D01*
X188108152Y-109134761D02*
X188108152Y-108991904D01*
X188108152Y-108991904D02*
X188155771Y-108896666D01*
X188155771Y-108896666D02*
X188251009Y-108849047D01*
X188251009Y-108849047D02*
X188774819Y-108849047D01*
X188251009Y-108849047D02*
X188155771Y-108801428D01*
X188155771Y-108801428D02*
X188108152Y-108706190D01*
X188108152Y-108706190D02*
X188108152Y-108563333D01*
X188108152Y-108563333D02*
X188155771Y-108468094D01*
X188155771Y-108468094D02*
X188251009Y-108420475D01*
X188251009Y-108420475D02*
X188774819Y-108420475D01*
X186404819Y-112372857D02*
X185928628Y-112706190D01*
X186404819Y-112944285D02*
X185404819Y-112944285D01*
X185404819Y-112944285D02*
X185404819Y-112563333D01*
X185404819Y-112563333D02*
X185452438Y-112468095D01*
X185452438Y-112468095D02*
X185500057Y-112420476D01*
X185500057Y-112420476D02*
X185595295Y-112372857D01*
X185595295Y-112372857D02*
X185738152Y-112372857D01*
X185738152Y-112372857D02*
X185833390Y-112420476D01*
X185833390Y-112420476D02*
X185881009Y-112468095D01*
X185881009Y-112468095D02*
X185928628Y-112563333D01*
X185928628Y-112563333D02*
X185928628Y-112944285D01*
X186404819Y-111420476D02*
X186404819Y-111991904D01*
X186404819Y-111706190D02*
X185404819Y-111706190D01*
X185404819Y-111706190D02*
X185547676Y-111801428D01*
X185547676Y-111801428D02*
X185642914Y-111896666D01*
X185642914Y-111896666D02*
X185690533Y-111991904D01*
X185500057Y-111039523D02*
X185452438Y-110991904D01*
X185452438Y-110991904D02*
X185404819Y-110896666D01*
X185404819Y-110896666D02*
X185404819Y-110658571D01*
X185404819Y-110658571D02*
X185452438Y-110563333D01*
X185452438Y-110563333D02*
X185500057Y-110515714D01*
X185500057Y-110515714D02*
X185595295Y-110468095D01*
X185595295Y-110468095D02*
X185690533Y-110468095D01*
X185690533Y-110468095D02*
X185833390Y-110515714D01*
X185833390Y-110515714D02*
X186404819Y-111087142D01*
X186404819Y-111087142D02*
X186404819Y-110468095D01*
X179830952Y-117057200D02*
X179735714Y-117104819D01*
X179735714Y-117104819D02*
X179545238Y-117104819D01*
X179545238Y-117104819D02*
X179450000Y-117057200D01*
X179450000Y-117057200D02*
X179402381Y-116961961D01*
X179402381Y-116961961D02*
X179402381Y-116581009D01*
X179402381Y-116581009D02*
X179450000Y-116485771D01*
X179450000Y-116485771D02*
X179545238Y-116438152D01*
X179545238Y-116438152D02*
X179735714Y-116438152D01*
X179735714Y-116438152D02*
X179830952Y-116485771D01*
X179830952Y-116485771D02*
X179878571Y-116581009D01*
X179878571Y-116581009D02*
X179878571Y-116676247D01*
X179878571Y-116676247D02*
X179402381Y-116771485D01*
X180735714Y-117057200D02*
X180640476Y-117104819D01*
X180640476Y-117104819D02*
X180450000Y-117104819D01*
X180450000Y-117104819D02*
X180354762Y-117057200D01*
X180354762Y-117057200D02*
X180307143Y-117009580D01*
X180307143Y-117009580D02*
X180259524Y-116914342D01*
X180259524Y-116914342D02*
X180259524Y-116628628D01*
X180259524Y-116628628D02*
X180307143Y-116533390D01*
X180307143Y-116533390D02*
X180354762Y-116485771D01*
X180354762Y-116485771D02*
X180450000Y-116438152D01*
X180450000Y-116438152D02*
X180640476Y-116438152D01*
X180640476Y-116438152D02*
X180735714Y-116485771D01*
X181164286Y-117104819D02*
X181164286Y-116104819D01*
X181592857Y-117104819D02*
X181592857Y-116581009D01*
X181592857Y-116581009D02*
X181545238Y-116485771D01*
X181545238Y-116485771D02*
X181450000Y-116438152D01*
X181450000Y-116438152D02*
X181307143Y-116438152D01*
X181307143Y-116438152D02*
X181211905Y-116485771D01*
X181211905Y-116485771D02*
X181164286Y-116533390D01*
X182211905Y-117104819D02*
X182116667Y-117057200D01*
X182116667Y-117057200D02*
X182069048Y-117009580D01*
X182069048Y-117009580D02*
X182021429Y-116914342D01*
X182021429Y-116914342D02*
X182021429Y-116628628D01*
X182021429Y-116628628D02*
X182069048Y-116533390D01*
X182069048Y-116533390D02*
X182116667Y-116485771D01*
X182116667Y-116485771D02*
X182211905Y-116438152D01*
X182211905Y-116438152D02*
X182354762Y-116438152D01*
X182354762Y-116438152D02*
X182450000Y-116485771D01*
X182450000Y-116485771D02*
X182497619Y-116533390D01*
X182497619Y-116533390D02*
X182545238Y-116628628D01*
X182545238Y-116628628D02*
X182545238Y-116914342D01*
X182545238Y-116914342D02*
X182497619Y-117009580D01*
X182497619Y-117009580D02*
X182450000Y-117057200D01*
X182450000Y-117057200D02*
X182354762Y-117104819D01*
X182354762Y-117104819D02*
X182211905Y-117104819D01*
X183402381Y-116438152D02*
X183402381Y-117104819D01*
X183164286Y-116057200D02*
X182926191Y-116771485D01*
X182926191Y-116771485D02*
X183545238Y-116771485D01*
X155752619Y-127719819D02*
X155752619Y-127053152D01*
X155752619Y-127243628D02*
X155800238Y-127148390D01*
X155800238Y-127148390D02*
X155847857Y-127100771D01*
X155847857Y-127100771D02*
X155943095Y-127053152D01*
X155943095Y-127053152D02*
X156038333Y-127053152D01*
X156752619Y-127672200D02*
X156657381Y-127719819D01*
X156657381Y-127719819D02*
X156466905Y-127719819D01*
X156466905Y-127719819D02*
X156371667Y-127672200D01*
X156371667Y-127672200D02*
X156324048Y-127576961D01*
X156324048Y-127576961D02*
X156324048Y-127196009D01*
X156324048Y-127196009D02*
X156371667Y-127100771D01*
X156371667Y-127100771D02*
X156466905Y-127053152D01*
X156466905Y-127053152D02*
X156657381Y-127053152D01*
X156657381Y-127053152D02*
X156752619Y-127100771D01*
X156752619Y-127100771D02*
X156800238Y-127196009D01*
X156800238Y-127196009D02*
X156800238Y-127291247D01*
X156800238Y-127291247D02*
X156324048Y-127386485D01*
X157657381Y-127719819D02*
X157657381Y-126719819D01*
X157657381Y-127672200D02*
X157562143Y-127719819D01*
X157562143Y-127719819D02*
X157371667Y-127719819D01*
X157371667Y-127719819D02*
X157276429Y-127672200D01*
X157276429Y-127672200D02*
X157228810Y-127624580D01*
X157228810Y-127624580D02*
X157181191Y-127529342D01*
X157181191Y-127529342D02*
X157181191Y-127243628D01*
X157181191Y-127243628D02*
X157228810Y-127148390D01*
X157228810Y-127148390D02*
X157276429Y-127100771D01*
X157276429Y-127100771D02*
X157371667Y-127053152D01*
X157371667Y-127053152D02*
X157562143Y-127053152D01*
X157562143Y-127053152D02*
X157657381Y-127100771D01*
D14*
X156109524Y-123393855D02*
X156109524Y-122593855D01*
X156109524Y-122593855D02*
X156300000Y-122593855D01*
X156300000Y-122593855D02*
X156414286Y-122631950D01*
X156414286Y-122631950D02*
X156490476Y-122708140D01*
X156490476Y-122708140D02*
X156528571Y-122784331D01*
X156528571Y-122784331D02*
X156566667Y-122936712D01*
X156566667Y-122936712D02*
X156566667Y-123050998D01*
X156566667Y-123050998D02*
X156528571Y-123203379D01*
X156528571Y-123203379D02*
X156490476Y-123279569D01*
X156490476Y-123279569D02*
X156414286Y-123355760D01*
X156414286Y-123355760D02*
X156300000Y-123393855D01*
X156300000Y-123393855D02*
X156109524Y-123393855D01*
X156871428Y-122670045D02*
X156909524Y-122631950D01*
X156909524Y-122631950D02*
X156985714Y-122593855D01*
X156985714Y-122593855D02*
X157176190Y-122593855D01*
X157176190Y-122593855D02*
X157252381Y-122631950D01*
X157252381Y-122631950D02*
X157290476Y-122670045D01*
X157290476Y-122670045D02*
X157328571Y-122746236D01*
X157328571Y-122746236D02*
X157328571Y-122822426D01*
X157328571Y-122822426D02*
X157290476Y-122936712D01*
X157290476Y-122936712D02*
X156833333Y-123393855D01*
X156833333Y-123393855D02*
X157328571Y-123393855D01*
D13*
X135454819Y-78630952D02*
X135407200Y-78726190D01*
X135407200Y-78726190D02*
X135359580Y-78773809D01*
X135359580Y-78773809D02*
X135264342Y-78821428D01*
X135264342Y-78821428D02*
X134978628Y-78821428D01*
X134978628Y-78821428D02*
X134883390Y-78773809D01*
X134883390Y-78773809D02*
X134835771Y-78726190D01*
X134835771Y-78726190D02*
X134788152Y-78630952D01*
X134788152Y-78630952D02*
X134788152Y-78488095D01*
X134788152Y-78488095D02*
X134835771Y-78392857D01*
X134835771Y-78392857D02*
X134883390Y-78345238D01*
X134883390Y-78345238D02*
X134978628Y-78297619D01*
X134978628Y-78297619D02*
X135264342Y-78297619D01*
X135264342Y-78297619D02*
X135359580Y-78345238D01*
X135359580Y-78345238D02*
X135407200Y-78392857D01*
X135407200Y-78392857D02*
X135454819Y-78488095D01*
X135454819Y-78488095D02*
X135454819Y-78630952D01*
X135454819Y-77440476D02*
X134454819Y-77440476D01*
X135407200Y-77440476D02*
X135454819Y-77535714D01*
X135454819Y-77535714D02*
X135454819Y-77726190D01*
X135454819Y-77726190D02*
X135407200Y-77821428D01*
X135407200Y-77821428D02*
X135359580Y-77869047D01*
X135359580Y-77869047D02*
X135264342Y-77916666D01*
X135264342Y-77916666D02*
X134978628Y-77916666D01*
X134978628Y-77916666D02*
X134883390Y-77869047D01*
X134883390Y-77869047D02*
X134835771Y-77821428D01*
X134835771Y-77821428D02*
X134788152Y-77726190D01*
X134788152Y-77726190D02*
X134788152Y-77535714D01*
X134788152Y-77535714D02*
X134835771Y-77440476D01*
X135454819Y-76535714D02*
X134454819Y-76535714D01*
X135407200Y-76535714D02*
X135454819Y-76630952D01*
X135454819Y-76630952D02*
X135454819Y-76821428D01*
X135454819Y-76821428D02*
X135407200Y-76916666D01*
X135407200Y-76916666D02*
X135359580Y-76964285D01*
X135359580Y-76964285D02*
X135264342Y-77011904D01*
X135264342Y-77011904D02*
X134978628Y-77011904D01*
X134978628Y-77011904D02*
X134883390Y-76964285D01*
X134883390Y-76964285D02*
X134835771Y-76916666D01*
X134835771Y-76916666D02*
X134788152Y-76821428D01*
X134788152Y-76821428D02*
X134788152Y-76630952D01*
X134788152Y-76630952D02*
X134835771Y-76535714D01*
X135407200Y-76107142D02*
X135454819Y-76011904D01*
X135454819Y-76011904D02*
X135454819Y-75821428D01*
X135454819Y-75821428D02*
X135407200Y-75726190D01*
X135407200Y-75726190D02*
X135311961Y-75678571D01*
X135311961Y-75678571D02*
X135264342Y-75678571D01*
X135264342Y-75678571D02*
X135169104Y-75726190D01*
X135169104Y-75726190D02*
X135121485Y-75821428D01*
X135121485Y-75821428D02*
X135121485Y-75964285D01*
X135121485Y-75964285D02*
X135073866Y-76059523D01*
X135073866Y-76059523D02*
X134978628Y-76107142D01*
X134978628Y-76107142D02*
X134931009Y-76107142D01*
X134931009Y-76107142D02*
X134835771Y-76059523D01*
X134835771Y-76059523D02*
X134788152Y-75964285D01*
X134788152Y-75964285D02*
X134788152Y-75821428D01*
X134788152Y-75821428D02*
X134835771Y-75726190D01*
X125859580Y-64869317D02*
X125907200Y-64916936D01*
X125907200Y-64916936D02*
X125954819Y-65059793D01*
X125954819Y-65059793D02*
X125954819Y-65155031D01*
X125954819Y-65155031D02*
X125907200Y-65297888D01*
X125907200Y-65297888D02*
X125811961Y-65393126D01*
X125811961Y-65393126D02*
X125716723Y-65440745D01*
X125716723Y-65440745D02*
X125526247Y-65488364D01*
X125526247Y-65488364D02*
X125383390Y-65488364D01*
X125383390Y-65488364D02*
X125192914Y-65440745D01*
X125192914Y-65440745D02*
X125097676Y-65393126D01*
X125097676Y-65393126D02*
X125002438Y-65297888D01*
X125002438Y-65297888D02*
X124954819Y-65155031D01*
X124954819Y-65155031D02*
X124954819Y-65059793D01*
X124954819Y-65059793D02*
X125002438Y-64916936D01*
X125002438Y-64916936D02*
X125050057Y-64869317D01*
X125954819Y-63916936D02*
X125954819Y-64488364D01*
X125954819Y-64202650D02*
X124954819Y-64202650D01*
X124954819Y-64202650D02*
X125097676Y-64297888D01*
X125097676Y-64297888D02*
X125192914Y-64393126D01*
X125192914Y-64393126D02*
X125240533Y-64488364D01*
X164650057Y-115437142D02*
X164602438Y-115389523D01*
X164602438Y-115389523D02*
X164554819Y-115294285D01*
X164554819Y-115294285D02*
X164554819Y-115056190D01*
X164554819Y-115056190D02*
X164602438Y-114960952D01*
X164602438Y-114960952D02*
X164650057Y-114913333D01*
X164650057Y-114913333D02*
X164745295Y-114865714D01*
X164745295Y-114865714D02*
X164840533Y-114865714D01*
X164840533Y-114865714D02*
X164983390Y-114913333D01*
X164983390Y-114913333D02*
X165554819Y-115484761D01*
X165554819Y-115484761D02*
X165554819Y-114865714D01*
X165459580Y-114437142D02*
X165507200Y-114389523D01*
X165507200Y-114389523D02*
X165554819Y-114437142D01*
X165554819Y-114437142D02*
X165507200Y-114484761D01*
X165507200Y-114484761D02*
X165459580Y-114437142D01*
X165459580Y-114437142D02*
X165554819Y-114437142D01*
X164650057Y-114008571D02*
X164602438Y-113960952D01*
X164602438Y-113960952D02*
X164554819Y-113865714D01*
X164554819Y-113865714D02*
X164554819Y-113627619D01*
X164554819Y-113627619D02*
X164602438Y-113532381D01*
X164602438Y-113532381D02*
X164650057Y-113484762D01*
X164650057Y-113484762D02*
X164745295Y-113437143D01*
X164745295Y-113437143D02*
X164840533Y-113437143D01*
X164840533Y-113437143D02*
X164983390Y-113484762D01*
X164983390Y-113484762D02*
X165554819Y-114056190D01*
X165554819Y-114056190D02*
X165554819Y-113437143D01*
X165554819Y-112246666D02*
X164554819Y-112246666D01*
X165173866Y-112151428D02*
X165554819Y-111865714D01*
X164888152Y-111865714D02*
X165269104Y-112246666D01*
X165554819Y-111294285D02*
X165507200Y-111389523D01*
X165507200Y-111389523D02*
X165459580Y-111437142D01*
X165459580Y-111437142D02*
X165364342Y-111484761D01*
X165364342Y-111484761D02*
X165078628Y-111484761D01*
X165078628Y-111484761D02*
X164983390Y-111437142D01*
X164983390Y-111437142D02*
X164935771Y-111389523D01*
X164935771Y-111389523D02*
X164888152Y-111294285D01*
X164888152Y-111294285D02*
X164888152Y-111151428D01*
X164888152Y-111151428D02*
X164935771Y-111056190D01*
X164935771Y-111056190D02*
X164983390Y-111008571D01*
X164983390Y-111008571D02*
X165078628Y-110960952D01*
X165078628Y-110960952D02*
X165364342Y-110960952D01*
X165364342Y-110960952D02*
X165459580Y-111008571D01*
X165459580Y-111008571D02*
X165507200Y-111056190D01*
X165507200Y-111056190D02*
X165554819Y-111151428D01*
X165554819Y-111151428D02*
X165554819Y-111294285D01*
X165554819Y-110532380D02*
X164554819Y-110532380D01*
X165554819Y-110103809D02*
X165031009Y-110103809D01*
X165031009Y-110103809D02*
X164935771Y-110151428D01*
X164935771Y-110151428D02*
X164888152Y-110246666D01*
X164888152Y-110246666D02*
X164888152Y-110389523D01*
X164888152Y-110389523D02*
X164935771Y-110484761D01*
X164935771Y-110484761D02*
X164983390Y-110532380D01*
X165554819Y-109627618D02*
X164888152Y-109627618D01*
X164983390Y-109627618D02*
X164935771Y-109579999D01*
X164935771Y-109579999D02*
X164888152Y-109484761D01*
X164888152Y-109484761D02*
X164888152Y-109341904D01*
X164888152Y-109341904D02*
X164935771Y-109246666D01*
X164935771Y-109246666D02*
X165031009Y-109199047D01*
X165031009Y-109199047D02*
X165554819Y-109199047D01*
X165031009Y-109199047D02*
X164935771Y-109151428D01*
X164935771Y-109151428D02*
X164888152Y-109056190D01*
X164888152Y-109056190D02*
X164888152Y-108913333D01*
X164888152Y-108913333D02*
X164935771Y-108818094D01*
X164935771Y-108818094D02*
X165031009Y-108770475D01*
X165031009Y-108770475D02*
X165554819Y-108770475D01*
X163184819Y-112246666D02*
X162708628Y-112579999D01*
X163184819Y-112818094D02*
X162184819Y-112818094D01*
X162184819Y-112818094D02*
X162184819Y-112437142D01*
X162184819Y-112437142D02*
X162232438Y-112341904D01*
X162232438Y-112341904D02*
X162280057Y-112294285D01*
X162280057Y-112294285D02*
X162375295Y-112246666D01*
X162375295Y-112246666D02*
X162518152Y-112246666D01*
X162518152Y-112246666D02*
X162613390Y-112294285D01*
X162613390Y-112294285D02*
X162661009Y-112341904D01*
X162661009Y-112341904D02*
X162708628Y-112437142D01*
X162708628Y-112437142D02*
X162708628Y-112818094D01*
X162518152Y-111389523D02*
X163184819Y-111389523D01*
X162137200Y-111627618D02*
X162851485Y-111865713D01*
X162851485Y-111865713D02*
X162851485Y-111246666D01*
X154650057Y-115437142D02*
X154602438Y-115389523D01*
X154602438Y-115389523D02*
X154554819Y-115294285D01*
X154554819Y-115294285D02*
X154554819Y-115056190D01*
X154554819Y-115056190D02*
X154602438Y-114960952D01*
X154602438Y-114960952D02*
X154650057Y-114913333D01*
X154650057Y-114913333D02*
X154745295Y-114865714D01*
X154745295Y-114865714D02*
X154840533Y-114865714D01*
X154840533Y-114865714D02*
X154983390Y-114913333D01*
X154983390Y-114913333D02*
X155554819Y-115484761D01*
X155554819Y-115484761D02*
X155554819Y-114865714D01*
X155459580Y-114437142D02*
X155507200Y-114389523D01*
X155507200Y-114389523D02*
X155554819Y-114437142D01*
X155554819Y-114437142D02*
X155507200Y-114484761D01*
X155507200Y-114484761D02*
X155459580Y-114437142D01*
X155459580Y-114437142D02*
X155554819Y-114437142D01*
X154650057Y-114008571D02*
X154602438Y-113960952D01*
X154602438Y-113960952D02*
X154554819Y-113865714D01*
X154554819Y-113865714D02*
X154554819Y-113627619D01*
X154554819Y-113627619D02*
X154602438Y-113532381D01*
X154602438Y-113532381D02*
X154650057Y-113484762D01*
X154650057Y-113484762D02*
X154745295Y-113437143D01*
X154745295Y-113437143D02*
X154840533Y-113437143D01*
X154840533Y-113437143D02*
X154983390Y-113484762D01*
X154983390Y-113484762D02*
X155554819Y-114056190D01*
X155554819Y-114056190D02*
X155554819Y-113437143D01*
X155554819Y-112246666D02*
X154554819Y-112246666D01*
X155173866Y-112151428D02*
X155554819Y-111865714D01*
X154888152Y-111865714D02*
X155269104Y-112246666D01*
X155554819Y-111294285D02*
X155507200Y-111389523D01*
X155507200Y-111389523D02*
X155459580Y-111437142D01*
X155459580Y-111437142D02*
X155364342Y-111484761D01*
X155364342Y-111484761D02*
X155078628Y-111484761D01*
X155078628Y-111484761D02*
X154983390Y-111437142D01*
X154983390Y-111437142D02*
X154935771Y-111389523D01*
X154935771Y-111389523D02*
X154888152Y-111294285D01*
X154888152Y-111294285D02*
X154888152Y-111151428D01*
X154888152Y-111151428D02*
X154935771Y-111056190D01*
X154935771Y-111056190D02*
X154983390Y-111008571D01*
X154983390Y-111008571D02*
X155078628Y-110960952D01*
X155078628Y-110960952D02*
X155364342Y-110960952D01*
X155364342Y-110960952D02*
X155459580Y-111008571D01*
X155459580Y-111008571D02*
X155507200Y-111056190D01*
X155507200Y-111056190D02*
X155554819Y-111151428D01*
X155554819Y-111151428D02*
X155554819Y-111294285D01*
X155554819Y-110532380D02*
X154554819Y-110532380D01*
X155554819Y-110103809D02*
X155031009Y-110103809D01*
X155031009Y-110103809D02*
X154935771Y-110151428D01*
X154935771Y-110151428D02*
X154888152Y-110246666D01*
X154888152Y-110246666D02*
X154888152Y-110389523D01*
X154888152Y-110389523D02*
X154935771Y-110484761D01*
X154935771Y-110484761D02*
X154983390Y-110532380D01*
X155554819Y-109627618D02*
X154888152Y-109627618D01*
X154983390Y-109627618D02*
X154935771Y-109579999D01*
X154935771Y-109579999D02*
X154888152Y-109484761D01*
X154888152Y-109484761D02*
X154888152Y-109341904D01*
X154888152Y-109341904D02*
X154935771Y-109246666D01*
X154935771Y-109246666D02*
X155031009Y-109199047D01*
X155031009Y-109199047D02*
X155554819Y-109199047D01*
X155031009Y-109199047D02*
X154935771Y-109151428D01*
X154935771Y-109151428D02*
X154888152Y-109056190D01*
X154888152Y-109056190D02*
X154888152Y-108913333D01*
X154888152Y-108913333D02*
X154935771Y-108818094D01*
X154935771Y-108818094D02*
X155031009Y-108770475D01*
X155031009Y-108770475D02*
X155554819Y-108770475D01*
X153184819Y-112722857D02*
X152708628Y-113056190D01*
X153184819Y-113294285D02*
X152184819Y-113294285D01*
X152184819Y-113294285D02*
X152184819Y-112913333D01*
X152184819Y-112913333D02*
X152232438Y-112818095D01*
X152232438Y-112818095D02*
X152280057Y-112770476D01*
X152280057Y-112770476D02*
X152375295Y-112722857D01*
X152375295Y-112722857D02*
X152518152Y-112722857D01*
X152518152Y-112722857D02*
X152613390Y-112770476D01*
X152613390Y-112770476D02*
X152661009Y-112818095D01*
X152661009Y-112818095D02*
X152708628Y-112913333D01*
X152708628Y-112913333D02*
X152708628Y-113294285D01*
X153184819Y-111770476D02*
X153184819Y-112341904D01*
X153184819Y-112056190D02*
X152184819Y-112056190D01*
X152184819Y-112056190D02*
X152327676Y-112151428D01*
X152327676Y-112151428D02*
X152422914Y-112246666D01*
X152422914Y-112246666D02*
X152470533Y-112341904D01*
X152184819Y-110865714D02*
X152184819Y-111341904D01*
X152184819Y-111341904D02*
X152661009Y-111389523D01*
X152661009Y-111389523D02*
X152613390Y-111341904D01*
X152613390Y-111341904D02*
X152565771Y-111246666D01*
X152565771Y-111246666D02*
X152565771Y-111008571D01*
X152565771Y-111008571D02*
X152613390Y-110913333D01*
X152613390Y-110913333D02*
X152661009Y-110865714D01*
X152661009Y-110865714D02*
X152756247Y-110818095D01*
X152756247Y-110818095D02*
X152994342Y-110818095D01*
X152994342Y-110818095D02*
X153089580Y-110865714D01*
X153089580Y-110865714D02*
X153137200Y-110913333D01*
X153137200Y-110913333D02*
X153184819Y-111008571D01*
X153184819Y-111008571D02*
X153184819Y-111246666D01*
X153184819Y-111246666D02*
X153137200Y-111341904D01*
X153137200Y-111341904D02*
X153089580Y-111389523D01*
X148124819Y-116038094D02*
X148124819Y-115419047D01*
X148124819Y-115419047D02*
X148505771Y-115752380D01*
X148505771Y-115752380D02*
X148505771Y-115609523D01*
X148505771Y-115609523D02*
X148553390Y-115514285D01*
X148553390Y-115514285D02*
X148601009Y-115466666D01*
X148601009Y-115466666D02*
X148696247Y-115419047D01*
X148696247Y-115419047D02*
X148934342Y-115419047D01*
X148934342Y-115419047D02*
X149029580Y-115466666D01*
X149029580Y-115466666D02*
X149077200Y-115514285D01*
X149077200Y-115514285D02*
X149124819Y-115609523D01*
X149124819Y-115609523D02*
X149124819Y-115895237D01*
X149124819Y-115895237D02*
X149077200Y-115990475D01*
X149077200Y-115990475D02*
X149029580Y-116038094D01*
X148124819Y-115085713D02*
X148124819Y-114466666D01*
X148124819Y-114466666D02*
X148505771Y-114799999D01*
X148505771Y-114799999D02*
X148505771Y-114657142D01*
X148505771Y-114657142D02*
X148553390Y-114561904D01*
X148553390Y-114561904D02*
X148601009Y-114514285D01*
X148601009Y-114514285D02*
X148696247Y-114466666D01*
X148696247Y-114466666D02*
X148934342Y-114466666D01*
X148934342Y-114466666D02*
X149029580Y-114514285D01*
X149029580Y-114514285D02*
X149077200Y-114561904D01*
X149077200Y-114561904D02*
X149124819Y-114657142D01*
X149124819Y-114657142D02*
X149124819Y-114942856D01*
X149124819Y-114942856D02*
X149077200Y-115038094D01*
X149077200Y-115038094D02*
X149029580Y-115085713D01*
X148124819Y-113847618D02*
X148124819Y-113752380D01*
X148124819Y-113752380D02*
X148172438Y-113657142D01*
X148172438Y-113657142D02*
X148220057Y-113609523D01*
X148220057Y-113609523D02*
X148315295Y-113561904D01*
X148315295Y-113561904D02*
X148505771Y-113514285D01*
X148505771Y-113514285D02*
X148743866Y-113514285D01*
X148743866Y-113514285D02*
X148934342Y-113561904D01*
X148934342Y-113561904D02*
X149029580Y-113609523D01*
X149029580Y-113609523D02*
X149077200Y-113657142D01*
X149077200Y-113657142D02*
X149124819Y-113752380D01*
X149124819Y-113752380D02*
X149124819Y-113847618D01*
X149124819Y-113847618D02*
X149077200Y-113942856D01*
X149077200Y-113942856D02*
X149029580Y-113990475D01*
X149029580Y-113990475D02*
X148934342Y-114038094D01*
X148934342Y-114038094D02*
X148743866Y-114085713D01*
X148743866Y-114085713D02*
X148505771Y-114085713D01*
X148505771Y-114085713D02*
X148315295Y-114038094D01*
X148315295Y-114038094D02*
X148220057Y-113990475D01*
X148220057Y-113990475D02*
X148172438Y-113942856D01*
X148172438Y-113942856D02*
X148124819Y-113847618D01*
X149124819Y-112180951D02*
X149077200Y-112276189D01*
X149077200Y-112276189D02*
X149029580Y-112323808D01*
X149029580Y-112323808D02*
X148934342Y-112371427D01*
X148934342Y-112371427D02*
X148648628Y-112371427D01*
X148648628Y-112371427D02*
X148553390Y-112323808D01*
X148553390Y-112323808D02*
X148505771Y-112276189D01*
X148505771Y-112276189D02*
X148458152Y-112180951D01*
X148458152Y-112180951D02*
X148458152Y-112038094D01*
X148458152Y-112038094D02*
X148505771Y-111942856D01*
X148505771Y-111942856D02*
X148553390Y-111895237D01*
X148553390Y-111895237D02*
X148648628Y-111847618D01*
X148648628Y-111847618D02*
X148934342Y-111847618D01*
X148934342Y-111847618D02*
X149029580Y-111895237D01*
X149029580Y-111895237D02*
X149077200Y-111942856D01*
X149077200Y-111942856D02*
X149124819Y-112038094D01*
X149124819Y-112038094D02*
X149124819Y-112180951D01*
X149124819Y-111419046D02*
X148124819Y-111419046D01*
X149124819Y-110990475D02*
X148601009Y-110990475D01*
X148601009Y-110990475D02*
X148505771Y-111038094D01*
X148505771Y-111038094D02*
X148458152Y-111133332D01*
X148458152Y-111133332D02*
X148458152Y-111276189D01*
X148458152Y-111276189D02*
X148505771Y-111371427D01*
X148505771Y-111371427D02*
X148553390Y-111419046D01*
X149124819Y-110514284D02*
X148458152Y-110514284D01*
X148553390Y-110514284D02*
X148505771Y-110466665D01*
X148505771Y-110466665D02*
X148458152Y-110371427D01*
X148458152Y-110371427D02*
X148458152Y-110228570D01*
X148458152Y-110228570D02*
X148505771Y-110133332D01*
X148505771Y-110133332D02*
X148601009Y-110085713D01*
X148601009Y-110085713D02*
X149124819Y-110085713D01*
X148601009Y-110085713D02*
X148505771Y-110038094D01*
X148505771Y-110038094D02*
X148458152Y-109942856D01*
X148458152Y-109942856D02*
X148458152Y-109799999D01*
X148458152Y-109799999D02*
X148505771Y-109704760D01*
X148505771Y-109704760D02*
X148601009Y-109657141D01*
X148601009Y-109657141D02*
X149124819Y-109657141D01*
X146754819Y-112966666D02*
X146278628Y-113299999D01*
X146754819Y-113538094D02*
X145754819Y-113538094D01*
X145754819Y-113538094D02*
X145754819Y-113157142D01*
X145754819Y-113157142D02*
X145802438Y-113061904D01*
X145802438Y-113061904D02*
X145850057Y-113014285D01*
X145850057Y-113014285D02*
X145945295Y-112966666D01*
X145945295Y-112966666D02*
X146088152Y-112966666D01*
X146088152Y-112966666D02*
X146183390Y-113014285D01*
X146183390Y-113014285D02*
X146231009Y-113061904D01*
X146231009Y-113061904D02*
X146278628Y-113157142D01*
X146278628Y-113157142D02*
X146278628Y-113538094D01*
X145754819Y-112633332D02*
X145754819Y-112014285D01*
X145754819Y-112014285D02*
X146135771Y-112347618D01*
X146135771Y-112347618D02*
X146135771Y-112204761D01*
X146135771Y-112204761D02*
X146183390Y-112109523D01*
X146183390Y-112109523D02*
X146231009Y-112061904D01*
X146231009Y-112061904D02*
X146326247Y-112014285D01*
X146326247Y-112014285D02*
X146564342Y-112014285D01*
X146564342Y-112014285D02*
X146659580Y-112061904D01*
X146659580Y-112061904D02*
X146707200Y-112109523D01*
X146707200Y-112109523D02*
X146754819Y-112204761D01*
X146754819Y-112204761D02*
X146754819Y-112490475D01*
X146754819Y-112490475D02*
X146707200Y-112585713D01*
X146707200Y-112585713D02*
X146659580Y-112633332D01*
X177774819Y-101134761D02*
X177774819Y-100515714D01*
X177774819Y-100515714D02*
X178155771Y-100849047D01*
X178155771Y-100849047D02*
X178155771Y-100706190D01*
X178155771Y-100706190D02*
X178203390Y-100610952D01*
X178203390Y-100610952D02*
X178251009Y-100563333D01*
X178251009Y-100563333D02*
X178346247Y-100515714D01*
X178346247Y-100515714D02*
X178584342Y-100515714D01*
X178584342Y-100515714D02*
X178679580Y-100563333D01*
X178679580Y-100563333D02*
X178727200Y-100610952D01*
X178727200Y-100610952D02*
X178774819Y-100706190D01*
X178774819Y-100706190D02*
X178774819Y-100991904D01*
X178774819Y-100991904D02*
X178727200Y-101087142D01*
X178727200Y-101087142D02*
X178679580Y-101134761D01*
X178679580Y-100087142D02*
X178727200Y-100039523D01*
X178727200Y-100039523D02*
X178774819Y-100087142D01*
X178774819Y-100087142D02*
X178727200Y-100134761D01*
X178727200Y-100134761D02*
X178679580Y-100087142D01*
X178679580Y-100087142D02*
X178774819Y-100087142D01*
X177774819Y-99706190D02*
X177774819Y-99087143D01*
X177774819Y-99087143D02*
X178155771Y-99420476D01*
X178155771Y-99420476D02*
X178155771Y-99277619D01*
X178155771Y-99277619D02*
X178203390Y-99182381D01*
X178203390Y-99182381D02*
X178251009Y-99134762D01*
X178251009Y-99134762D02*
X178346247Y-99087143D01*
X178346247Y-99087143D02*
X178584342Y-99087143D01*
X178584342Y-99087143D02*
X178679580Y-99134762D01*
X178679580Y-99134762D02*
X178727200Y-99182381D01*
X178727200Y-99182381D02*
X178774819Y-99277619D01*
X178774819Y-99277619D02*
X178774819Y-99563333D01*
X178774819Y-99563333D02*
X178727200Y-99658571D01*
X178727200Y-99658571D02*
X178679580Y-99706190D01*
X178774819Y-97896666D02*
X177774819Y-97896666D01*
X178393866Y-97801428D02*
X178774819Y-97515714D01*
X178108152Y-97515714D02*
X178489104Y-97896666D01*
X178774819Y-96944285D02*
X178727200Y-97039523D01*
X178727200Y-97039523D02*
X178679580Y-97087142D01*
X178679580Y-97087142D02*
X178584342Y-97134761D01*
X178584342Y-97134761D02*
X178298628Y-97134761D01*
X178298628Y-97134761D02*
X178203390Y-97087142D01*
X178203390Y-97087142D02*
X178155771Y-97039523D01*
X178155771Y-97039523D02*
X178108152Y-96944285D01*
X178108152Y-96944285D02*
X178108152Y-96801428D01*
X178108152Y-96801428D02*
X178155771Y-96706190D01*
X178155771Y-96706190D02*
X178203390Y-96658571D01*
X178203390Y-96658571D02*
X178298628Y-96610952D01*
X178298628Y-96610952D02*
X178584342Y-96610952D01*
X178584342Y-96610952D02*
X178679580Y-96658571D01*
X178679580Y-96658571D02*
X178727200Y-96706190D01*
X178727200Y-96706190D02*
X178774819Y-96801428D01*
X178774819Y-96801428D02*
X178774819Y-96944285D01*
X178774819Y-96182380D02*
X177774819Y-96182380D01*
X178774819Y-95753809D02*
X178251009Y-95753809D01*
X178251009Y-95753809D02*
X178155771Y-95801428D01*
X178155771Y-95801428D02*
X178108152Y-95896666D01*
X178108152Y-95896666D02*
X178108152Y-96039523D01*
X178108152Y-96039523D02*
X178155771Y-96134761D01*
X178155771Y-96134761D02*
X178203390Y-96182380D01*
X178774819Y-95277618D02*
X178108152Y-95277618D01*
X178203390Y-95277618D02*
X178155771Y-95229999D01*
X178155771Y-95229999D02*
X178108152Y-95134761D01*
X178108152Y-95134761D02*
X178108152Y-94991904D01*
X178108152Y-94991904D02*
X178155771Y-94896666D01*
X178155771Y-94896666D02*
X178251009Y-94849047D01*
X178251009Y-94849047D02*
X178774819Y-94849047D01*
X178251009Y-94849047D02*
X178155771Y-94801428D01*
X178155771Y-94801428D02*
X178108152Y-94706190D01*
X178108152Y-94706190D02*
X178108152Y-94563333D01*
X178108152Y-94563333D02*
X178155771Y-94468094D01*
X178155771Y-94468094D02*
X178251009Y-94420475D01*
X178251009Y-94420475D02*
X178774819Y-94420475D01*
X176404819Y-97896666D02*
X175928628Y-98229999D01*
X176404819Y-98468094D02*
X175404819Y-98468094D01*
X175404819Y-98468094D02*
X175404819Y-98087142D01*
X175404819Y-98087142D02*
X175452438Y-97991904D01*
X175452438Y-97991904D02*
X175500057Y-97944285D01*
X175500057Y-97944285D02*
X175595295Y-97896666D01*
X175595295Y-97896666D02*
X175738152Y-97896666D01*
X175738152Y-97896666D02*
X175833390Y-97944285D01*
X175833390Y-97944285D02*
X175881009Y-97991904D01*
X175881009Y-97991904D02*
X175928628Y-98087142D01*
X175928628Y-98087142D02*
X175928628Y-98468094D01*
X175404819Y-97563332D02*
X175404819Y-96896666D01*
X175404819Y-96896666D02*
X176404819Y-97325237D01*
X159684819Y-101318094D02*
X159684819Y-100699047D01*
X159684819Y-100699047D02*
X160065771Y-101032380D01*
X160065771Y-101032380D02*
X160065771Y-100889523D01*
X160065771Y-100889523D02*
X160113390Y-100794285D01*
X160113390Y-100794285D02*
X160161009Y-100746666D01*
X160161009Y-100746666D02*
X160256247Y-100699047D01*
X160256247Y-100699047D02*
X160494342Y-100699047D01*
X160494342Y-100699047D02*
X160589580Y-100746666D01*
X160589580Y-100746666D02*
X160637200Y-100794285D01*
X160637200Y-100794285D02*
X160684819Y-100889523D01*
X160684819Y-100889523D02*
X160684819Y-101175237D01*
X160684819Y-101175237D02*
X160637200Y-101270475D01*
X160637200Y-101270475D02*
X160589580Y-101318094D01*
X159684819Y-100365713D02*
X159684819Y-99746666D01*
X159684819Y-99746666D02*
X160065771Y-100079999D01*
X160065771Y-100079999D02*
X160065771Y-99937142D01*
X160065771Y-99937142D02*
X160113390Y-99841904D01*
X160113390Y-99841904D02*
X160161009Y-99794285D01*
X160161009Y-99794285D02*
X160256247Y-99746666D01*
X160256247Y-99746666D02*
X160494342Y-99746666D01*
X160494342Y-99746666D02*
X160589580Y-99794285D01*
X160589580Y-99794285D02*
X160637200Y-99841904D01*
X160637200Y-99841904D02*
X160684819Y-99937142D01*
X160684819Y-99937142D02*
X160684819Y-100222856D01*
X160684819Y-100222856D02*
X160637200Y-100318094D01*
X160637200Y-100318094D02*
X160589580Y-100365713D01*
X159684819Y-99127618D02*
X159684819Y-99032380D01*
X159684819Y-99032380D02*
X159732438Y-98937142D01*
X159732438Y-98937142D02*
X159780057Y-98889523D01*
X159780057Y-98889523D02*
X159875295Y-98841904D01*
X159875295Y-98841904D02*
X160065771Y-98794285D01*
X160065771Y-98794285D02*
X160303866Y-98794285D01*
X160303866Y-98794285D02*
X160494342Y-98841904D01*
X160494342Y-98841904D02*
X160589580Y-98889523D01*
X160589580Y-98889523D02*
X160637200Y-98937142D01*
X160637200Y-98937142D02*
X160684819Y-99032380D01*
X160684819Y-99032380D02*
X160684819Y-99127618D01*
X160684819Y-99127618D02*
X160637200Y-99222856D01*
X160637200Y-99222856D02*
X160589580Y-99270475D01*
X160589580Y-99270475D02*
X160494342Y-99318094D01*
X160494342Y-99318094D02*
X160303866Y-99365713D01*
X160303866Y-99365713D02*
X160065771Y-99365713D01*
X160065771Y-99365713D02*
X159875295Y-99318094D01*
X159875295Y-99318094D02*
X159780057Y-99270475D01*
X159780057Y-99270475D02*
X159732438Y-99222856D01*
X159732438Y-99222856D02*
X159684819Y-99127618D01*
X160684819Y-97460951D02*
X160637200Y-97556189D01*
X160637200Y-97556189D02*
X160589580Y-97603808D01*
X160589580Y-97603808D02*
X160494342Y-97651427D01*
X160494342Y-97651427D02*
X160208628Y-97651427D01*
X160208628Y-97651427D02*
X160113390Y-97603808D01*
X160113390Y-97603808D02*
X160065771Y-97556189D01*
X160065771Y-97556189D02*
X160018152Y-97460951D01*
X160018152Y-97460951D02*
X160018152Y-97318094D01*
X160018152Y-97318094D02*
X160065771Y-97222856D01*
X160065771Y-97222856D02*
X160113390Y-97175237D01*
X160113390Y-97175237D02*
X160208628Y-97127618D01*
X160208628Y-97127618D02*
X160494342Y-97127618D01*
X160494342Y-97127618D02*
X160589580Y-97175237D01*
X160589580Y-97175237D02*
X160637200Y-97222856D01*
X160637200Y-97222856D02*
X160684819Y-97318094D01*
X160684819Y-97318094D02*
X160684819Y-97460951D01*
X160684819Y-96699046D02*
X159684819Y-96699046D01*
X160684819Y-96270475D02*
X160161009Y-96270475D01*
X160161009Y-96270475D02*
X160065771Y-96318094D01*
X160065771Y-96318094D02*
X160018152Y-96413332D01*
X160018152Y-96413332D02*
X160018152Y-96556189D01*
X160018152Y-96556189D02*
X160065771Y-96651427D01*
X160065771Y-96651427D02*
X160113390Y-96699046D01*
X160684819Y-95794284D02*
X160018152Y-95794284D01*
X160113390Y-95794284D02*
X160065771Y-95746665D01*
X160065771Y-95746665D02*
X160018152Y-95651427D01*
X160018152Y-95651427D02*
X160018152Y-95508570D01*
X160018152Y-95508570D02*
X160065771Y-95413332D01*
X160065771Y-95413332D02*
X160161009Y-95365713D01*
X160161009Y-95365713D02*
X160684819Y-95365713D01*
X160161009Y-95365713D02*
X160065771Y-95318094D01*
X160065771Y-95318094D02*
X160018152Y-95222856D01*
X160018152Y-95222856D02*
X160018152Y-95079999D01*
X160018152Y-95079999D02*
X160065771Y-94984760D01*
X160065771Y-94984760D02*
X160161009Y-94937141D01*
X160161009Y-94937141D02*
X160684819Y-94937141D01*
X158184819Y-98722857D02*
X157708628Y-99056190D01*
X158184819Y-99294285D02*
X157184819Y-99294285D01*
X157184819Y-99294285D02*
X157184819Y-98913333D01*
X157184819Y-98913333D02*
X157232438Y-98818095D01*
X157232438Y-98818095D02*
X157280057Y-98770476D01*
X157280057Y-98770476D02*
X157375295Y-98722857D01*
X157375295Y-98722857D02*
X157518152Y-98722857D01*
X157518152Y-98722857D02*
X157613390Y-98770476D01*
X157613390Y-98770476D02*
X157661009Y-98818095D01*
X157661009Y-98818095D02*
X157708628Y-98913333D01*
X157708628Y-98913333D02*
X157708628Y-99294285D01*
X158184819Y-97770476D02*
X158184819Y-98341904D01*
X158184819Y-98056190D02*
X157184819Y-98056190D01*
X157184819Y-98056190D02*
X157327676Y-98151428D01*
X157327676Y-98151428D02*
X157422914Y-98246666D01*
X157422914Y-98246666D02*
X157470533Y-98341904D01*
X157518152Y-96913333D02*
X158184819Y-96913333D01*
X157137200Y-97151428D02*
X157851485Y-97389523D01*
X157851485Y-97389523D02*
X157851485Y-96770476D01*
X138896666Y-89054819D02*
X138896666Y-89769104D01*
X138896666Y-89769104D02*
X138849047Y-89911961D01*
X138849047Y-89911961D02*
X138753809Y-90007200D01*
X138753809Y-90007200D02*
X138610952Y-90054819D01*
X138610952Y-90054819D02*
X138515714Y-90054819D01*
X139801428Y-89388152D02*
X139801428Y-90054819D01*
X139563333Y-89007200D02*
X139325238Y-89721485D01*
X139325238Y-89721485D02*
X139944285Y-89721485D01*
X179830952Y-106557200D02*
X179735714Y-106604819D01*
X179735714Y-106604819D02*
X179545238Y-106604819D01*
X179545238Y-106604819D02*
X179450000Y-106557200D01*
X179450000Y-106557200D02*
X179402381Y-106461961D01*
X179402381Y-106461961D02*
X179402381Y-106081009D01*
X179402381Y-106081009D02*
X179450000Y-105985771D01*
X179450000Y-105985771D02*
X179545238Y-105938152D01*
X179545238Y-105938152D02*
X179735714Y-105938152D01*
X179735714Y-105938152D02*
X179830952Y-105985771D01*
X179830952Y-105985771D02*
X179878571Y-106081009D01*
X179878571Y-106081009D02*
X179878571Y-106176247D01*
X179878571Y-106176247D02*
X179402381Y-106271485D01*
X180735714Y-106557200D02*
X180640476Y-106604819D01*
X180640476Y-106604819D02*
X180450000Y-106604819D01*
X180450000Y-106604819D02*
X180354762Y-106557200D01*
X180354762Y-106557200D02*
X180307143Y-106509580D01*
X180307143Y-106509580D02*
X180259524Y-106414342D01*
X180259524Y-106414342D02*
X180259524Y-106128628D01*
X180259524Y-106128628D02*
X180307143Y-106033390D01*
X180307143Y-106033390D02*
X180354762Y-105985771D01*
X180354762Y-105985771D02*
X180450000Y-105938152D01*
X180450000Y-105938152D02*
X180640476Y-105938152D01*
X180640476Y-105938152D02*
X180735714Y-105985771D01*
X181164286Y-106604819D02*
X181164286Y-105604819D01*
X181592857Y-106604819D02*
X181592857Y-106081009D01*
X181592857Y-106081009D02*
X181545238Y-105985771D01*
X181545238Y-105985771D02*
X181450000Y-105938152D01*
X181450000Y-105938152D02*
X181307143Y-105938152D01*
X181307143Y-105938152D02*
X181211905Y-105985771D01*
X181211905Y-105985771D02*
X181164286Y-106033390D01*
X182211905Y-106604819D02*
X182116667Y-106557200D01*
X182116667Y-106557200D02*
X182069048Y-106509580D01*
X182069048Y-106509580D02*
X182021429Y-106414342D01*
X182021429Y-106414342D02*
X182021429Y-106128628D01*
X182021429Y-106128628D02*
X182069048Y-106033390D01*
X182069048Y-106033390D02*
X182116667Y-105985771D01*
X182116667Y-105985771D02*
X182211905Y-105938152D01*
X182211905Y-105938152D02*
X182354762Y-105938152D01*
X182354762Y-105938152D02*
X182450000Y-105985771D01*
X182450000Y-105985771D02*
X182497619Y-106033390D01*
X182497619Y-106033390D02*
X182545238Y-106128628D01*
X182545238Y-106128628D02*
X182545238Y-106414342D01*
X182545238Y-106414342D02*
X182497619Y-106509580D01*
X182497619Y-106509580D02*
X182450000Y-106557200D01*
X182450000Y-106557200D02*
X182354762Y-106604819D01*
X182354762Y-106604819D02*
X182211905Y-106604819D01*
X182878572Y-105604819D02*
X183497619Y-105604819D01*
X183497619Y-105604819D02*
X183164286Y-105985771D01*
X183164286Y-105985771D02*
X183307143Y-105985771D01*
X183307143Y-105985771D02*
X183402381Y-106033390D01*
X183402381Y-106033390D02*
X183450000Y-106081009D01*
X183450000Y-106081009D02*
X183497619Y-106176247D01*
X183497619Y-106176247D02*
X183497619Y-106414342D01*
X183497619Y-106414342D02*
X183450000Y-106509580D01*
X183450000Y-106509580D02*
X183402381Y-106557200D01*
X183402381Y-106557200D02*
X183307143Y-106604819D01*
X183307143Y-106604819D02*
X183021429Y-106604819D01*
X183021429Y-106604819D02*
X182926191Y-106557200D01*
X182926191Y-106557200D02*
X182878572Y-106509580D01*
X156610952Y-117407200D02*
X156515714Y-117454819D01*
X156515714Y-117454819D02*
X156325238Y-117454819D01*
X156325238Y-117454819D02*
X156230000Y-117407200D01*
X156230000Y-117407200D02*
X156182381Y-117311961D01*
X156182381Y-117311961D02*
X156182381Y-116931009D01*
X156182381Y-116931009D02*
X156230000Y-116835771D01*
X156230000Y-116835771D02*
X156325238Y-116788152D01*
X156325238Y-116788152D02*
X156515714Y-116788152D01*
X156515714Y-116788152D02*
X156610952Y-116835771D01*
X156610952Y-116835771D02*
X156658571Y-116931009D01*
X156658571Y-116931009D02*
X156658571Y-117026247D01*
X156658571Y-117026247D02*
X156182381Y-117121485D01*
X157515714Y-117407200D02*
X157420476Y-117454819D01*
X157420476Y-117454819D02*
X157230000Y-117454819D01*
X157230000Y-117454819D02*
X157134762Y-117407200D01*
X157134762Y-117407200D02*
X157087143Y-117359580D01*
X157087143Y-117359580D02*
X157039524Y-117264342D01*
X157039524Y-117264342D02*
X157039524Y-116978628D01*
X157039524Y-116978628D02*
X157087143Y-116883390D01*
X157087143Y-116883390D02*
X157134762Y-116835771D01*
X157134762Y-116835771D02*
X157230000Y-116788152D01*
X157230000Y-116788152D02*
X157420476Y-116788152D01*
X157420476Y-116788152D02*
X157515714Y-116835771D01*
X157944286Y-117454819D02*
X157944286Y-116454819D01*
X158372857Y-117454819D02*
X158372857Y-116931009D01*
X158372857Y-116931009D02*
X158325238Y-116835771D01*
X158325238Y-116835771D02*
X158230000Y-116788152D01*
X158230000Y-116788152D02*
X158087143Y-116788152D01*
X158087143Y-116788152D02*
X157991905Y-116835771D01*
X157991905Y-116835771D02*
X157944286Y-116883390D01*
X158991905Y-117454819D02*
X158896667Y-117407200D01*
X158896667Y-117407200D02*
X158849048Y-117359580D01*
X158849048Y-117359580D02*
X158801429Y-117264342D01*
X158801429Y-117264342D02*
X158801429Y-116978628D01*
X158801429Y-116978628D02*
X158849048Y-116883390D01*
X158849048Y-116883390D02*
X158896667Y-116835771D01*
X158896667Y-116835771D02*
X158991905Y-116788152D01*
X158991905Y-116788152D02*
X159134762Y-116788152D01*
X159134762Y-116788152D02*
X159230000Y-116835771D01*
X159230000Y-116835771D02*
X159277619Y-116883390D01*
X159277619Y-116883390D02*
X159325238Y-116978628D01*
X159325238Y-116978628D02*
X159325238Y-117264342D01*
X159325238Y-117264342D02*
X159277619Y-117359580D01*
X159277619Y-117359580D02*
X159230000Y-117407200D01*
X159230000Y-117407200D02*
X159134762Y-117454819D01*
X159134762Y-117454819D02*
X158991905Y-117454819D01*
X159706191Y-116550057D02*
X159753810Y-116502438D01*
X159753810Y-116502438D02*
X159849048Y-116454819D01*
X159849048Y-116454819D02*
X160087143Y-116454819D01*
X160087143Y-116454819D02*
X160182381Y-116502438D01*
X160182381Y-116502438D02*
X160230000Y-116550057D01*
X160230000Y-116550057D02*
X160277619Y-116645295D01*
X160277619Y-116645295D02*
X160277619Y-116740533D01*
X160277619Y-116740533D02*
X160230000Y-116883390D01*
X160230000Y-116883390D02*
X159658572Y-117454819D01*
X159658572Y-117454819D02*
X160277619Y-117454819D01*
X141888152Y-118504762D02*
X142888152Y-118504762D01*
X141935771Y-118504762D02*
X141888152Y-118409524D01*
X141888152Y-118409524D02*
X141888152Y-118219048D01*
X141888152Y-118219048D02*
X141935771Y-118123810D01*
X141935771Y-118123810D02*
X141983390Y-118076191D01*
X141983390Y-118076191D02*
X142078628Y-118028572D01*
X142078628Y-118028572D02*
X142364342Y-118028572D01*
X142364342Y-118028572D02*
X142459580Y-118076191D01*
X142459580Y-118076191D02*
X142507200Y-118123810D01*
X142507200Y-118123810D02*
X142554819Y-118219048D01*
X142554819Y-118219048D02*
X142554819Y-118409524D01*
X142554819Y-118409524D02*
X142507200Y-118504762D01*
X142554819Y-117457143D02*
X142507200Y-117552381D01*
X142507200Y-117552381D02*
X142459580Y-117600000D01*
X142459580Y-117600000D02*
X142364342Y-117647619D01*
X142364342Y-117647619D02*
X142078628Y-117647619D01*
X142078628Y-117647619D02*
X141983390Y-117600000D01*
X141983390Y-117600000D02*
X141935771Y-117552381D01*
X141935771Y-117552381D02*
X141888152Y-117457143D01*
X141888152Y-117457143D02*
X141888152Y-117314286D01*
X141888152Y-117314286D02*
X141935771Y-117219048D01*
X141935771Y-117219048D02*
X141983390Y-117171429D01*
X141983390Y-117171429D02*
X142078628Y-117123810D01*
X142078628Y-117123810D02*
X142364342Y-117123810D01*
X142364342Y-117123810D02*
X142459580Y-117171429D01*
X142459580Y-117171429D02*
X142507200Y-117219048D01*
X142507200Y-117219048D02*
X142554819Y-117314286D01*
X142554819Y-117314286D02*
X142554819Y-117457143D01*
X141888152Y-116790476D02*
X142554819Y-116600000D01*
X142554819Y-116600000D02*
X142078628Y-116409524D01*
X142078628Y-116409524D02*
X142554819Y-116219048D01*
X142554819Y-116219048D02*
X141888152Y-116028572D01*
X142507200Y-115266667D02*
X142554819Y-115361905D01*
X142554819Y-115361905D02*
X142554819Y-115552381D01*
X142554819Y-115552381D02*
X142507200Y-115647619D01*
X142507200Y-115647619D02*
X142411961Y-115695238D01*
X142411961Y-115695238D02*
X142031009Y-115695238D01*
X142031009Y-115695238D02*
X141935771Y-115647619D01*
X141935771Y-115647619D02*
X141888152Y-115552381D01*
X141888152Y-115552381D02*
X141888152Y-115361905D01*
X141888152Y-115361905D02*
X141935771Y-115266667D01*
X141935771Y-115266667D02*
X142031009Y-115219048D01*
X142031009Y-115219048D02*
X142126247Y-115219048D01*
X142126247Y-115219048D02*
X142221485Y-115695238D01*
X142554819Y-114790476D02*
X141888152Y-114790476D01*
X142078628Y-114790476D02*
X141983390Y-114742857D01*
X141983390Y-114742857D02*
X141935771Y-114695238D01*
X141935771Y-114695238D02*
X141888152Y-114600000D01*
X141888152Y-114600000D02*
X141888152Y-114504762D01*
X141888152Y-113552380D02*
X141888152Y-113171428D01*
X141554819Y-113409523D02*
X142411961Y-113409523D01*
X142411961Y-113409523D02*
X142507200Y-113361904D01*
X142507200Y-113361904D02*
X142554819Y-113266666D01*
X142554819Y-113266666D02*
X142554819Y-113171428D01*
X142507200Y-112457142D02*
X142554819Y-112552380D01*
X142554819Y-112552380D02*
X142554819Y-112742856D01*
X142554819Y-112742856D02*
X142507200Y-112838094D01*
X142507200Y-112838094D02*
X142411961Y-112885713D01*
X142411961Y-112885713D02*
X142031009Y-112885713D01*
X142031009Y-112885713D02*
X141935771Y-112838094D01*
X141935771Y-112838094D02*
X141888152Y-112742856D01*
X141888152Y-112742856D02*
X141888152Y-112552380D01*
X141888152Y-112552380D02*
X141935771Y-112457142D01*
X141935771Y-112457142D02*
X142031009Y-112409523D01*
X142031009Y-112409523D02*
X142126247Y-112409523D01*
X142126247Y-112409523D02*
X142221485Y-112885713D01*
X142554819Y-111980951D02*
X141888152Y-111980951D01*
X142078628Y-111980951D02*
X141983390Y-111933332D01*
X141983390Y-111933332D02*
X141935771Y-111885713D01*
X141935771Y-111885713D02*
X141888152Y-111790475D01*
X141888152Y-111790475D02*
X141888152Y-111695237D01*
X142554819Y-111361903D02*
X141888152Y-111361903D01*
X141983390Y-111361903D02*
X141935771Y-111314284D01*
X141935771Y-111314284D02*
X141888152Y-111219046D01*
X141888152Y-111219046D02*
X141888152Y-111076189D01*
X141888152Y-111076189D02*
X141935771Y-110980951D01*
X141935771Y-110980951D02*
X142031009Y-110933332D01*
X142031009Y-110933332D02*
X142554819Y-110933332D01*
X142031009Y-110933332D02*
X141935771Y-110885713D01*
X141935771Y-110885713D02*
X141888152Y-110790475D01*
X141888152Y-110790475D02*
X141888152Y-110647618D01*
X141888152Y-110647618D02*
X141935771Y-110552379D01*
X141935771Y-110552379D02*
X142031009Y-110504760D01*
X142031009Y-110504760D02*
X142554819Y-110504760D01*
X142554819Y-110028570D02*
X141888152Y-110028570D01*
X141554819Y-110028570D02*
X141602438Y-110076189D01*
X141602438Y-110076189D02*
X141650057Y-110028570D01*
X141650057Y-110028570D02*
X141602438Y-109980951D01*
X141602438Y-109980951D02*
X141554819Y-110028570D01*
X141554819Y-110028570D02*
X141650057Y-110028570D01*
X141888152Y-109552380D02*
X142554819Y-109552380D01*
X141983390Y-109552380D02*
X141935771Y-109504761D01*
X141935771Y-109504761D02*
X141888152Y-109409523D01*
X141888152Y-109409523D02*
X141888152Y-109266666D01*
X141888152Y-109266666D02*
X141935771Y-109171428D01*
X141935771Y-109171428D02*
X142031009Y-109123809D01*
X142031009Y-109123809D02*
X142554819Y-109123809D01*
X142554819Y-108219047D02*
X142031009Y-108219047D01*
X142031009Y-108219047D02*
X141935771Y-108266666D01*
X141935771Y-108266666D02*
X141888152Y-108361904D01*
X141888152Y-108361904D02*
X141888152Y-108552380D01*
X141888152Y-108552380D02*
X141935771Y-108647618D01*
X142507200Y-108219047D02*
X142554819Y-108314285D01*
X142554819Y-108314285D02*
X142554819Y-108552380D01*
X142554819Y-108552380D02*
X142507200Y-108647618D01*
X142507200Y-108647618D02*
X142411961Y-108695237D01*
X142411961Y-108695237D02*
X142316723Y-108695237D01*
X142316723Y-108695237D02*
X142221485Y-108647618D01*
X142221485Y-108647618D02*
X142173866Y-108552380D01*
X142173866Y-108552380D02*
X142173866Y-108314285D01*
X142173866Y-108314285D02*
X142126247Y-108219047D01*
X142554819Y-107599999D02*
X142507200Y-107695237D01*
X142507200Y-107695237D02*
X142411961Y-107742856D01*
X142411961Y-107742856D02*
X141554819Y-107742856D01*
X187774819Y-101134761D02*
X187774819Y-100515714D01*
X187774819Y-100515714D02*
X188155771Y-100849047D01*
X188155771Y-100849047D02*
X188155771Y-100706190D01*
X188155771Y-100706190D02*
X188203390Y-100610952D01*
X188203390Y-100610952D02*
X188251009Y-100563333D01*
X188251009Y-100563333D02*
X188346247Y-100515714D01*
X188346247Y-100515714D02*
X188584342Y-100515714D01*
X188584342Y-100515714D02*
X188679580Y-100563333D01*
X188679580Y-100563333D02*
X188727200Y-100610952D01*
X188727200Y-100610952D02*
X188774819Y-100706190D01*
X188774819Y-100706190D02*
X188774819Y-100991904D01*
X188774819Y-100991904D02*
X188727200Y-101087142D01*
X188727200Y-101087142D02*
X188679580Y-101134761D01*
X188679580Y-100087142D02*
X188727200Y-100039523D01*
X188727200Y-100039523D02*
X188774819Y-100087142D01*
X188774819Y-100087142D02*
X188727200Y-100134761D01*
X188727200Y-100134761D02*
X188679580Y-100087142D01*
X188679580Y-100087142D02*
X188774819Y-100087142D01*
X187774819Y-99706190D02*
X187774819Y-99087143D01*
X187774819Y-99087143D02*
X188155771Y-99420476D01*
X188155771Y-99420476D02*
X188155771Y-99277619D01*
X188155771Y-99277619D02*
X188203390Y-99182381D01*
X188203390Y-99182381D02*
X188251009Y-99134762D01*
X188251009Y-99134762D02*
X188346247Y-99087143D01*
X188346247Y-99087143D02*
X188584342Y-99087143D01*
X188584342Y-99087143D02*
X188679580Y-99134762D01*
X188679580Y-99134762D02*
X188727200Y-99182381D01*
X188727200Y-99182381D02*
X188774819Y-99277619D01*
X188774819Y-99277619D02*
X188774819Y-99563333D01*
X188774819Y-99563333D02*
X188727200Y-99658571D01*
X188727200Y-99658571D02*
X188679580Y-99706190D01*
X188774819Y-97896666D02*
X187774819Y-97896666D01*
X188393866Y-97801428D02*
X188774819Y-97515714D01*
X188108152Y-97515714D02*
X188489104Y-97896666D01*
X188774819Y-96944285D02*
X188727200Y-97039523D01*
X188727200Y-97039523D02*
X188679580Y-97087142D01*
X188679580Y-97087142D02*
X188584342Y-97134761D01*
X188584342Y-97134761D02*
X188298628Y-97134761D01*
X188298628Y-97134761D02*
X188203390Y-97087142D01*
X188203390Y-97087142D02*
X188155771Y-97039523D01*
X188155771Y-97039523D02*
X188108152Y-96944285D01*
X188108152Y-96944285D02*
X188108152Y-96801428D01*
X188108152Y-96801428D02*
X188155771Y-96706190D01*
X188155771Y-96706190D02*
X188203390Y-96658571D01*
X188203390Y-96658571D02*
X188298628Y-96610952D01*
X188298628Y-96610952D02*
X188584342Y-96610952D01*
X188584342Y-96610952D02*
X188679580Y-96658571D01*
X188679580Y-96658571D02*
X188727200Y-96706190D01*
X188727200Y-96706190D02*
X188774819Y-96801428D01*
X188774819Y-96801428D02*
X188774819Y-96944285D01*
X188774819Y-96182380D02*
X187774819Y-96182380D01*
X188774819Y-95753809D02*
X188251009Y-95753809D01*
X188251009Y-95753809D02*
X188155771Y-95801428D01*
X188155771Y-95801428D02*
X188108152Y-95896666D01*
X188108152Y-95896666D02*
X188108152Y-96039523D01*
X188108152Y-96039523D02*
X188155771Y-96134761D01*
X188155771Y-96134761D02*
X188203390Y-96182380D01*
X188774819Y-95277618D02*
X188108152Y-95277618D01*
X188203390Y-95277618D02*
X188155771Y-95229999D01*
X188155771Y-95229999D02*
X188108152Y-95134761D01*
X188108152Y-95134761D02*
X188108152Y-94991904D01*
X188108152Y-94991904D02*
X188155771Y-94896666D01*
X188155771Y-94896666D02*
X188251009Y-94849047D01*
X188251009Y-94849047D02*
X188774819Y-94849047D01*
X188251009Y-94849047D02*
X188155771Y-94801428D01*
X188155771Y-94801428D02*
X188108152Y-94706190D01*
X188108152Y-94706190D02*
X188108152Y-94563333D01*
X188108152Y-94563333D02*
X188155771Y-94468094D01*
X188155771Y-94468094D02*
X188251009Y-94420475D01*
X188251009Y-94420475D02*
X188774819Y-94420475D01*
X186404819Y-98372857D02*
X185928628Y-98706190D01*
X186404819Y-98944285D02*
X185404819Y-98944285D01*
X185404819Y-98944285D02*
X185404819Y-98563333D01*
X185404819Y-98563333D02*
X185452438Y-98468095D01*
X185452438Y-98468095D02*
X185500057Y-98420476D01*
X185500057Y-98420476D02*
X185595295Y-98372857D01*
X185595295Y-98372857D02*
X185738152Y-98372857D01*
X185738152Y-98372857D02*
X185833390Y-98420476D01*
X185833390Y-98420476D02*
X185881009Y-98468095D01*
X185881009Y-98468095D02*
X185928628Y-98563333D01*
X185928628Y-98563333D02*
X185928628Y-98944285D01*
X186404819Y-97420476D02*
X186404819Y-97991904D01*
X186404819Y-97706190D02*
X185404819Y-97706190D01*
X185404819Y-97706190D02*
X185547676Y-97801428D01*
X185547676Y-97801428D02*
X185642914Y-97896666D01*
X185642914Y-97896666D02*
X185690533Y-97991904D01*
X185404819Y-96801428D02*
X185404819Y-96706190D01*
X185404819Y-96706190D02*
X185452438Y-96610952D01*
X185452438Y-96610952D02*
X185500057Y-96563333D01*
X185500057Y-96563333D02*
X185595295Y-96515714D01*
X185595295Y-96515714D02*
X185785771Y-96468095D01*
X185785771Y-96468095D02*
X186023866Y-96468095D01*
X186023866Y-96468095D02*
X186214342Y-96515714D01*
X186214342Y-96515714D02*
X186309580Y-96563333D01*
X186309580Y-96563333D02*
X186357200Y-96610952D01*
X186357200Y-96610952D02*
X186404819Y-96706190D01*
X186404819Y-96706190D02*
X186404819Y-96801428D01*
X186404819Y-96801428D02*
X186357200Y-96896666D01*
X186357200Y-96896666D02*
X186309580Y-96944285D01*
X186309580Y-96944285D02*
X186214342Y-96991904D01*
X186214342Y-96991904D02*
X186023866Y-97039523D01*
X186023866Y-97039523D02*
X185785771Y-97039523D01*
X185785771Y-97039523D02*
X185595295Y-96991904D01*
X185595295Y-96991904D02*
X185500057Y-96944285D01*
X185500057Y-96944285D02*
X185452438Y-96896666D01*
X185452438Y-96896666D02*
X185404819Y-96801428D01*
X135097200Y-67726190D02*
X135144819Y-67821428D01*
X135144819Y-67821428D02*
X135144819Y-68011904D01*
X135144819Y-68011904D02*
X135097200Y-68107142D01*
X135097200Y-68107142D02*
X135001961Y-68154761D01*
X135001961Y-68154761D02*
X134621009Y-68154761D01*
X134621009Y-68154761D02*
X134525771Y-68107142D01*
X134525771Y-68107142D02*
X134478152Y-68011904D01*
X134478152Y-68011904D02*
X134478152Y-67821428D01*
X134478152Y-67821428D02*
X134525771Y-67726190D01*
X134525771Y-67726190D02*
X134621009Y-67678571D01*
X134621009Y-67678571D02*
X134716247Y-67678571D01*
X134716247Y-67678571D02*
X134811485Y-68154761D01*
X134478152Y-67345237D02*
X135144819Y-67107142D01*
X135144819Y-67107142D02*
X134478152Y-66869047D01*
X135097200Y-66107142D02*
X135144819Y-66202380D01*
X135144819Y-66202380D02*
X135144819Y-66392856D01*
X135144819Y-66392856D02*
X135097200Y-66488094D01*
X135097200Y-66488094D02*
X135001961Y-66535713D01*
X135001961Y-66535713D02*
X134621009Y-66535713D01*
X134621009Y-66535713D02*
X134525771Y-66488094D01*
X134525771Y-66488094D02*
X134478152Y-66392856D01*
X134478152Y-66392856D02*
X134478152Y-66202380D01*
X134478152Y-66202380D02*
X134525771Y-66107142D01*
X134525771Y-66107142D02*
X134621009Y-66059523D01*
X134621009Y-66059523D02*
X134716247Y-66059523D01*
X134716247Y-66059523D02*
X134811485Y-66535713D01*
X134478152Y-65630951D02*
X135144819Y-65630951D01*
X134573390Y-65630951D02*
X134525771Y-65583332D01*
X134525771Y-65583332D02*
X134478152Y-65488094D01*
X134478152Y-65488094D02*
X134478152Y-65345237D01*
X134478152Y-65345237D02*
X134525771Y-65249999D01*
X134525771Y-65249999D02*
X134621009Y-65202380D01*
X134621009Y-65202380D02*
X135144819Y-65202380D01*
X135097200Y-64773808D02*
X135144819Y-64678570D01*
X135144819Y-64678570D02*
X135144819Y-64488094D01*
X135144819Y-64488094D02*
X135097200Y-64392856D01*
X135097200Y-64392856D02*
X135001961Y-64345237D01*
X135001961Y-64345237D02*
X134954342Y-64345237D01*
X134954342Y-64345237D02*
X134859104Y-64392856D01*
X134859104Y-64392856D02*
X134811485Y-64488094D01*
X134811485Y-64488094D02*
X134811485Y-64630951D01*
X134811485Y-64630951D02*
X134763866Y-64726189D01*
X134763866Y-64726189D02*
X134668628Y-64773808D01*
X134668628Y-64773808D02*
X134621009Y-64773808D01*
X134621009Y-64773808D02*
X134525771Y-64726189D01*
X134525771Y-64726189D02*
X134478152Y-64630951D01*
X134478152Y-64630951D02*
X134478152Y-64488094D01*
X134478152Y-64488094D02*
X134525771Y-64392856D01*
X154554819Y-101484761D02*
X154554819Y-100865714D01*
X154554819Y-100865714D02*
X154935771Y-101199047D01*
X154935771Y-101199047D02*
X154935771Y-101056190D01*
X154935771Y-101056190D02*
X154983390Y-100960952D01*
X154983390Y-100960952D02*
X155031009Y-100913333D01*
X155031009Y-100913333D02*
X155126247Y-100865714D01*
X155126247Y-100865714D02*
X155364342Y-100865714D01*
X155364342Y-100865714D02*
X155459580Y-100913333D01*
X155459580Y-100913333D02*
X155507200Y-100960952D01*
X155507200Y-100960952D02*
X155554819Y-101056190D01*
X155554819Y-101056190D02*
X155554819Y-101341904D01*
X155554819Y-101341904D02*
X155507200Y-101437142D01*
X155507200Y-101437142D02*
X155459580Y-101484761D01*
X155459580Y-100437142D02*
X155507200Y-100389523D01*
X155507200Y-100389523D02*
X155554819Y-100437142D01*
X155554819Y-100437142D02*
X155507200Y-100484761D01*
X155507200Y-100484761D02*
X155459580Y-100437142D01*
X155459580Y-100437142D02*
X155554819Y-100437142D01*
X154554819Y-100056190D02*
X154554819Y-99437143D01*
X154554819Y-99437143D02*
X154935771Y-99770476D01*
X154935771Y-99770476D02*
X154935771Y-99627619D01*
X154935771Y-99627619D02*
X154983390Y-99532381D01*
X154983390Y-99532381D02*
X155031009Y-99484762D01*
X155031009Y-99484762D02*
X155126247Y-99437143D01*
X155126247Y-99437143D02*
X155364342Y-99437143D01*
X155364342Y-99437143D02*
X155459580Y-99484762D01*
X155459580Y-99484762D02*
X155507200Y-99532381D01*
X155507200Y-99532381D02*
X155554819Y-99627619D01*
X155554819Y-99627619D02*
X155554819Y-99913333D01*
X155554819Y-99913333D02*
X155507200Y-100008571D01*
X155507200Y-100008571D02*
X155459580Y-100056190D01*
X155554819Y-98246666D02*
X154554819Y-98246666D01*
X155173866Y-98151428D02*
X155554819Y-97865714D01*
X154888152Y-97865714D02*
X155269104Y-98246666D01*
X155554819Y-97294285D02*
X155507200Y-97389523D01*
X155507200Y-97389523D02*
X155459580Y-97437142D01*
X155459580Y-97437142D02*
X155364342Y-97484761D01*
X155364342Y-97484761D02*
X155078628Y-97484761D01*
X155078628Y-97484761D02*
X154983390Y-97437142D01*
X154983390Y-97437142D02*
X154935771Y-97389523D01*
X154935771Y-97389523D02*
X154888152Y-97294285D01*
X154888152Y-97294285D02*
X154888152Y-97151428D01*
X154888152Y-97151428D02*
X154935771Y-97056190D01*
X154935771Y-97056190D02*
X154983390Y-97008571D01*
X154983390Y-97008571D02*
X155078628Y-96960952D01*
X155078628Y-96960952D02*
X155364342Y-96960952D01*
X155364342Y-96960952D02*
X155459580Y-97008571D01*
X155459580Y-97008571D02*
X155507200Y-97056190D01*
X155507200Y-97056190D02*
X155554819Y-97151428D01*
X155554819Y-97151428D02*
X155554819Y-97294285D01*
X155554819Y-96532380D02*
X154554819Y-96532380D01*
X155554819Y-96103809D02*
X155031009Y-96103809D01*
X155031009Y-96103809D02*
X154935771Y-96151428D01*
X154935771Y-96151428D02*
X154888152Y-96246666D01*
X154888152Y-96246666D02*
X154888152Y-96389523D01*
X154888152Y-96389523D02*
X154935771Y-96484761D01*
X154935771Y-96484761D02*
X154983390Y-96532380D01*
X155554819Y-95627618D02*
X154888152Y-95627618D01*
X154983390Y-95627618D02*
X154935771Y-95579999D01*
X154935771Y-95579999D02*
X154888152Y-95484761D01*
X154888152Y-95484761D02*
X154888152Y-95341904D01*
X154888152Y-95341904D02*
X154935771Y-95246666D01*
X154935771Y-95246666D02*
X155031009Y-95199047D01*
X155031009Y-95199047D02*
X155554819Y-95199047D01*
X155031009Y-95199047D02*
X154935771Y-95151428D01*
X154935771Y-95151428D02*
X154888152Y-95056190D01*
X154888152Y-95056190D02*
X154888152Y-94913333D01*
X154888152Y-94913333D02*
X154935771Y-94818094D01*
X154935771Y-94818094D02*
X155031009Y-94770475D01*
X155031009Y-94770475D02*
X155554819Y-94770475D01*
X153184819Y-98722857D02*
X152708628Y-99056190D01*
X153184819Y-99294285D02*
X152184819Y-99294285D01*
X152184819Y-99294285D02*
X152184819Y-98913333D01*
X152184819Y-98913333D02*
X152232438Y-98818095D01*
X152232438Y-98818095D02*
X152280057Y-98770476D01*
X152280057Y-98770476D02*
X152375295Y-98722857D01*
X152375295Y-98722857D02*
X152518152Y-98722857D01*
X152518152Y-98722857D02*
X152613390Y-98770476D01*
X152613390Y-98770476D02*
X152661009Y-98818095D01*
X152661009Y-98818095D02*
X152708628Y-98913333D01*
X152708628Y-98913333D02*
X152708628Y-99294285D01*
X153184819Y-97770476D02*
X153184819Y-98341904D01*
X153184819Y-98056190D02*
X152184819Y-98056190D01*
X152184819Y-98056190D02*
X152327676Y-98151428D01*
X152327676Y-98151428D02*
X152422914Y-98246666D01*
X152422914Y-98246666D02*
X152470533Y-98341904D01*
X152184819Y-97437142D02*
X152184819Y-96818095D01*
X152184819Y-96818095D02*
X152565771Y-97151428D01*
X152565771Y-97151428D02*
X152565771Y-97008571D01*
X152565771Y-97008571D02*
X152613390Y-96913333D01*
X152613390Y-96913333D02*
X152661009Y-96865714D01*
X152661009Y-96865714D02*
X152756247Y-96818095D01*
X152756247Y-96818095D02*
X152994342Y-96818095D01*
X152994342Y-96818095D02*
X153089580Y-96865714D01*
X153089580Y-96865714D02*
X153137200Y-96913333D01*
X153137200Y-96913333D02*
X153184819Y-97008571D01*
X153184819Y-97008571D02*
X153184819Y-97294285D01*
X153184819Y-97294285D02*
X153137200Y-97389523D01*
X153137200Y-97389523D02*
X153089580Y-97437142D01*
X156610952Y-106907200D02*
X156515714Y-106954819D01*
X156515714Y-106954819D02*
X156325238Y-106954819D01*
X156325238Y-106954819D02*
X156230000Y-106907200D01*
X156230000Y-106907200D02*
X156182381Y-106811961D01*
X156182381Y-106811961D02*
X156182381Y-106431009D01*
X156182381Y-106431009D02*
X156230000Y-106335771D01*
X156230000Y-106335771D02*
X156325238Y-106288152D01*
X156325238Y-106288152D02*
X156515714Y-106288152D01*
X156515714Y-106288152D02*
X156610952Y-106335771D01*
X156610952Y-106335771D02*
X156658571Y-106431009D01*
X156658571Y-106431009D02*
X156658571Y-106526247D01*
X156658571Y-106526247D02*
X156182381Y-106621485D01*
X157515714Y-106907200D02*
X157420476Y-106954819D01*
X157420476Y-106954819D02*
X157230000Y-106954819D01*
X157230000Y-106954819D02*
X157134762Y-106907200D01*
X157134762Y-106907200D02*
X157087143Y-106859580D01*
X157087143Y-106859580D02*
X157039524Y-106764342D01*
X157039524Y-106764342D02*
X157039524Y-106478628D01*
X157039524Y-106478628D02*
X157087143Y-106383390D01*
X157087143Y-106383390D02*
X157134762Y-106335771D01*
X157134762Y-106335771D02*
X157230000Y-106288152D01*
X157230000Y-106288152D02*
X157420476Y-106288152D01*
X157420476Y-106288152D02*
X157515714Y-106335771D01*
X157944286Y-106954819D02*
X157944286Y-105954819D01*
X158372857Y-106954819D02*
X158372857Y-106431009D01*
X158372857Y-106431009D02*
X158325238Y-106335771D01*
X158325238Y-106335771D02*
X158230000Y-106288152D01*
X158230000Y-106288152D02*
X158087143Y-106288152D01*
X158087143Y-106288152D02*
X157991905Y-106335771D01*
X157991905Y-106335771D02*
X157944286Y-106383390D01*
X158991905Y-106954819D02*
X158896667Y-106907200D01*
X158896667Y-106907200D02*
X158849048Y-106859580D01*
X158849048Y-106859580D02*
X158801429Y-106764342D01*
X158801429Y-106764342D02*
X158801429Y-106478628D01*
X158801429Y-106478628D02*
X158849048Y-106383390D01*
X158849048Y-106383390D02*
X158896667Y-106335771D01*
X158896667Y-106335771D02*
X158991905Y-106288152D01*
X158991905Y-106288152D02*
X159134762Y-106288152D01*
X159134762Y-106288152D02*
X159230000Y-106335771D01*
X159230000Y-106335771D02*
X159277619Y-106383390D01*
X159277619Y-106383390D02*
X159325238Y-106478628D01*
X159325238Y-106478628D02*
X159325238Y-106764342D01*
X159325238Y-106764342D02*
X159277619Y-106859580D01*
X159277619Y-106859580D02*
X159230000Y-106907200D01*
X159230000Y-106907200D02*
X159134762Y-106954819D01*
X159134762Y-106954819D02*
X158991905Y-106954819D01*
X160277619Y-106954819D02*
X159706191Y-106954819D01*
X159991905Y-106954819D02*
X159991905Y-105954819D01*
X159991905Y-105954819D02*
X159896667Y-106097676D01*
X159896667Y-106097676D02*
X159801429Y-106192914D01*
X159801429Y-106192914D02*
X159706191Y-106240533D01*
X148124819Y-89618094D02*
X148124819Y-88999047D01*
X148124819Y-88999047D02*
X148505771Y-89332380D01*
X148505771Y-89332380D02*
X148505771Y-89189523D01*
X148505771Y-89189523D02*
X148553390Y-89094285D01*
X148553390Y-89094285D02*
X148601009Y-89046666D01*
X148601009Y-89046666D02*
X148696247Y-88999047D01*
X148696247Y-88999047D02*
X148934342Y-88999047D01*
X148934342Y-88999047D02*
X149029580Y-89046666D01*
X149029580Y-89046666D02*
X149077200Y-89094285D01*
X149077200Y-89094285D02*
X149124819Y-89189523D01*
X149124819Y-89189523D02*
X149124819Y-89475237D01*
X149124819Y-89475237D02*
X149077200Y-89570475D01*
X149077200Y-89570475D02*
X149029580Y-89618094D01*
X148124819Y-88665713D02*
X148124819Y-88046666D01*
X148124819Y-88046666D02*
X148505771Y-88379999D01*
X148505771Y-88379999D02*
X148505771Y-88237142D01*
X148505771Y-88237142D02*
X148553390Y-88141904D01*
X148553390Y-88141904D02*
X148601009Y-88094285D01*
X148601009Y-88094285D02*
X148696247Y-88046666D01*
X148696247Y-88046666D02*
X148934342Y-88046666D01*
X148934342Y-88046666D02*
X149029580Y-88094285D01*
X149029580Y-88094285D02*
X149077200Y-88141904D01*
X149077200Y-88141904D02*
X149124819Y-88237142D01*
X149124819Y-88237142D02*
X149124819Y-88522856D01*
X149124819Y-88522856D02*
X149077200Y-88618094D01*
X149077200Y-88618094D02*
X149029580Y-88665713D01*
X148124819Y-87427618D02*
X148124819Y-87332380D01*
X148124819Y-87332380D02*
X148172438Y-87237142D01*
X148172438Y-87237142D02*
X148220057Y-87189523D01*
X148220057Y-87189523D02*
X148315295Y-87141904D01*
X148315295Y-87141904D02*
X148505771Y-87094285D01*
X148505771Y-87094285D02*
X148743866Y-87094285D01*
X148743866Y-87094285D02*
X148934342Y-87141904D01*
X148934342Y-87141904D02*
X149029580Y-87189523D01*
X149029580Y-87189523D02*
X149077200Y-87237142D01*
X149077200Y-87237142D02*
X149124819Y-87332380D01*
X149124819Y-87332380D02*
X149124819Y-87427618D01*
X149124819Y-87427618D02*
X149077200Y-87522856D01*
X149077200Y-87522856D02*
X149029580Y-87570475D01*
X149029580Y-87570475D02*
X148934342Y-87618094D01*
X148934342Y-87618094D02*
X148743866Y-87665713D01*
X148743866Y-87665713D02*
X148505771Y-87665713D01*
X148505771Y-87665713D02*
X148315295Y-87618094D01*
X148315295Y-87618094D02*
X148220057Y-87570475D01*
X148220057Y-87570475D02*
X148172438Y-87522856D01*
X148172438Y-87522856D02*
X148124819Y-87427618D01*
X149124819Y-85760951D02*
X149077200Y-85856189D01*
X149077200Y-85856189D02*
X149029580Y-85903808D01*
X149029580Y-85903808D02*
X148934342Y-85951427D01*
X148934342Y-85951427D02*
X148648628Y-85951427D01*
X148648628Y-85951427D02*
X148553390Y-85903808D01*
X148553390Y-85903808D02*
X148505771Y-85856189D01*
X148505771Y-85856189D02*
X148458152Y-85760951D01*
X148458152Y-85760951D02*
X148458152Y-85618094D01*
X148458152Y-85618094D02*
X148505771Y-85522856D01*
X148505771Y-85522856D02*
X148553390Y-85475237D01*
X148553390Y-85475237D02*
X148648628Y-85427618D01*
X148648628Y-85427618D02*
X148934342Y-85427618D01*
X148934342Y-85427618D02*
X149029580Y-85475237D01*
X149029580Y-85475237D02*
X149077200Y-85522856D01*
X149077200Y-85522856D02*
X149124819Y-85618094D01*
X149124819Y-85618094D02*
X149124819Y-85760951D01*
X149124819Y-84999046D02*
X148124819Y-84999046D01*
X149124819Y-84570475D02*
X148601009Y-84570475D01*
X148601009Y-84570475D02*
X148505771Y-84618094D01*
X148505771Y-84618094D02*
X148458152Y-84713332D01*
X148458152Y-84713332D02*
X148458152Y-84856189D01*
X148458152Y-84856189D02*
X148505771Y-84951427D01*
X148505771Y-84951427D02*
X148553390Y-84999046D01*
X149124819Y-84094284D02*
X148458152Y-84094284D01*
X148553390Y-84094284D02*
X148505771Y-84046665D01*
X148505771Y-84046665D02*
X148458152Y-83951427D01*
X148458152Y-83951427D02*
X148458152Y-83808570D01*
X148458152Y-83808570D02*
X148505771Y-83713332D01*
X148505771Y-83713332D02*
X148601009Y-83665713D01*
X148601009Y-83665713D02*
X149124819Y-83665713D01*
X148601009Y-83665713D02*
X148505771Y-83618094D01*
X148505771Y-83618094D02*
X148458152Y-83522856D01*
X148458152Y-83522856D02*
X148458152Y-83379999D01*
X148458152Y-83379999D02*
X148505771Y-83284760D01*
X148505771Y-83284760D02*
X148601009Y-83237141D01*
X148601009Y-83237141D02*
X149124819Y-83237141D01*
X146754819Y-86546666D02*
X146278628Y-86879999D01*
X146754819Y-87118094D02*
X145754819Y-87118094D01*
X145754819Y-87118094D02*
X145754819Y-86737142D01*
X145754819Y-86737142D02*
X145802438Y-86641904D01*
X145802438Y-86641904D02*
X145850057Y-86594285D01*
X145850057Y-86594285D02*
X145945295Y-86546666D01*
X145945295Y-86546666D02*
X146088152Y-86546666D01*
X146088152Y-86546666D02*
X146183390Y-86594285D01*
X146183390Y-86594285D02*
X146231009Y-86641904D01*
X146231009Y-86641904D02*
X146278628Y-86737142D01*
X146278628Y-86737142D02*
X146278628Y-87118094D01*
X146754819Y-85594285D02*
X146754819Y-86165713D01*
X146754819Y-85879999D02*
X145754819Y-85879999D01*
X145754819Y-85879999D02*
X145897676Y-85975237D01*
X145897676Y-85975237D02*
X145992914Y-86070475D01*
X145992914Y-86070475D02*
X146040533Y-86165713D01*
X182904819Y-100888094D02*
X182904819Y-100269047D01*
X182904819Y-100269047D02*
X183285771Y-100602380D01*
X183285771Y-100602380D02*
X183285771Y-100459523D01*
X183285771Y-100459523D02*
X183333390Y-100364285D01*
X183333390Y-100364285D02*
X183381009Y-100316666D01*
X183381009Y-100316666D02*
X183476247Y-100269047D01*
X183476247Y-100269047D02*
X183714342Y-100269047D01*
X183714342Y-100269047D02*
X183809580Y-100316666D01*
X183809580Y-100316666D02*
X183857200Y-100364285D01*
X183857200Y-100364285D02*
X183904819Y-100459523D01*
X183904819Y-100459523D02*
X183904819Y-100745237D01*
X183904819Y-100745237D02*
X183857200Y-100840475D01*
X183857200Y-100840475D02*
X183809580Y-100888094D01*
X182904819Y-99935713D02*
X182904819Y-99316666D01*
X182904819Y-99316666D02*
X183285771Y-99649999D01*
X183285771Y-99649999D02*
X183285771Y-99507142D01*
X183285771Y-99507142D02*
X183333390Y-99411904D01*
X183333390Y-99411904D02*
X183381009Y-99364285D01*
X183381009Y-99364285D02*
X183476247Y-99316666D01*
X183476247Y-99316666D02*
X183714342Y-99316666D01*
X183714342Y-99316666D02*
X183809580Y-99364285D01*
X183809580Y-99364285D02*
X183857200Y-99411904D01*
X183857200Y-99411904D02*
X183904819Y-99507142D01*
X183904819Y-99507142D02*
X183904819Y-99792856D01*
X183904819Y-99792856D02*
X183857200Y-99888094D01*
X183857200Y-99888094D02*
X183809580Y-99935713D01*
X182904819Y-98697618D02*
X182904819Y-98602380D01*
X182904819Y-98602380D02*
X182952438Y-98507142D01*
X182952438Y-98507142D02*
X183000057Y-98459523D01*
X183000057Y-98459523D02*
X183095295Y-98411904D01*
X183095295Y-98411904D02*
X183285771Y-98364285D01*
X183285771Y-98364285D02*
X183523866Y-98364285D01*
X183523866Y-98364285D02*
X183714342Y-98411904D01*
X183714342Y-98411904D02*
X183809580Y-98459523D01*
X183809580Y-98459523D02*
X183857200Y-98507142D01*
X183857200Y-98507142D02*
X183904819Y-98602380D01*
X183904819Y-98602380D02*
X183904819Y-98697618D01*
X183904819Y-98697618D02*
X183857200Y-98792856D01*
X183857200Y-98792856D02*
X183809580Y-98840475D01*
X183809580Y-98840475D02*
X183714342Y-98888094D01*
X183714342Y-98888094D02*
X183523866Y-98935713D01*
X183523866Y-98935713D02*
X183285771Y-98935713D01*
X183285771Y-98935713D02*
X183095295Y-98888094D01*
X183095295Y-98888094D02*
X183000057Y-98840475D01*
X183000057Y-98840475D02*
X182952438Y-98792856D01*
X182952438Y-98792856D02*
X182904819Y-98697618D01*
X183904819Y-97030951D02*
X183857200Y-97126189D01*
X183857200Y-97126189D02*
X183809580Y-97173808D01*
X183809580Y-97173808D02*
X183714342Y-97221427D01*
X183714342Y-97221427D02*
X183428628Y-97221427D01*
X183428628Y-97221427D02*
X183333390Y-97173808D01*
X183333390Y-97173808D02*
X183285771Y-97126189D01*
X183285771Y-97126189D02*
X183238152Y-97030951D01*
X183238152Y-97030951D02*
X183238152Y-96888094D01*
X183238152Y-96888094D02*
X183285771Y-96792856D01*
X183285771Y-96792856D02*
X183333390Y-96745237D01*
X183333390Y-96745237D02*
X183428628Y-96697618D01*
X183428628Y-96697618D02*
X183714342Y-96697618D01*
X183714342Y-96697618D02*
X183809580Y-96745237D01*
X183809580Y-96745237D02*
X183857200Y-96792856D01*
X183857200Y-96792856D02*
X183904819Y-96888094D01*
X183904819Y-96888094D02*
X183904819Y-97030951D01*
X183904819Y-96269046D02*
X182904819Y-96269046D01*
X183904819Y-95840475D02*
X183381009Y-95840475D01*
X183381009Y-95840475D02*
X183285771Y-95888094D01*
X183285771Y-95888094D02*
X183238152Y-95983332D01*
X183238152Y-95983332D02*
X183238152Y-96126189D01*
X183238152Y-96126189D02*
X183285771Y-96221427D01*
X183285771Y-96221427D02*
X183333390Y-96269046D01*
X183904819Y-95364284D02*
X183238152Y-95364284D01*
X183333390Y-95364284D02*
X183285771Y-95316665D01*
X183285771Y-95316665D02*
X183238152Y-95221427D01*
X183238152Y-95221427D02*
X183238152Y-95078570D01*
X183238152Y-95078570D02*
X183285771Y-94983332D01*
X183285771Y-94983332D02*
X183381009Y-94935713D01*
X183381009Y-94935713D02*
X183904819Y-94935713D01*
X183381009Y-94935713D02*
X183285771Y-94888094D01*
X183285771Y-94888094D02*
X183238152Y-94792856D01*
X183238152Y-94792856D02*
X183238152Y-94649999D01*
X183238152Y-94649999D02*
X183285771Y-94554760D01*
X183285771Y-94554760D02*
X183381009Y-94507141D01*
X183381009Y-94507141D02*
X183904819Y-94507141D01*
X181404819Y-97896666D02*
X180928628Y-98229999D01*
X181404819Y-98468094D02*
X180404819Y-98468094D01*
X180404819Y-98468094D02*
X180404819Y-98087142D01*
X180404819Y-98087142D02*
X180452438Y-97991904D01*
X180452438Y-97991904D02*
X180500057Y-97944285D01*
X180500057Y-97944285D02*
X180595295Y-97896666D01*
X180595295Y-97896666D02*
X180738152Y-97896666D01*
X180738152Y-97896666D02*
X180833390Y-97944285D01*
X180833390Y-97944285D02*
X180881009Y-97991904D01*
X180881009Y-97991904D02*
X180928628Y-98087142D01*
X180928628Y-98087142D02*
X180928628Y-98468094D01*
X180833390Y-97325237D02*
X180785771Y-97420475D01*
X180785771Y-97420475D02*
X180738152Y-97468094D01*
X180738152Y-97468094D02*
X180642914Y-97515713D01*
X180642914Y-97515713D02*
X180595295Y-97515713D01*
X180595295Y-97515713D02*
X180500057Y-97468094D01*
X180500057Y-97468094D02*
X180452438Y-97420475D01*
X180452438Y-97420475D02*
X180404819Y-97325237D01*
X180404819Y-97325237D02*
X180404819Y-97134761D01*
X180404819Y-97134761D02*
X180452438Y-97039523D01*
X180452438Y-97039523D02*
X180500057Y-96991904D01*
X180500057Y-96991904D02*
X180595295Y-96944285D01*
X180595295Y-96944285D02*
X180642914Y-96944285D01*
X180642914Y-96944285D02*
X180738152Y-96991904D01*
X180738152Y-96991904D02*
X180785771Y-97039523D01*
X180785771Y-97039523D02*
X180833390Y-97134761D01*
X180833390Y-97134761D02*
X180833390Y-97325237D01*
X180833390Y-97325237D02*
X180881009Y-97420475D01*
X180881009Y-97420475D02*
X180928628Y-97468094D01*
X180928628Y-97468094D02*
X181023866Y-97515713D01*
X181023866Y-97515713D02*
X181214342Y-97515713D01*
X181214342Y-97515713D02*
X181309580Y-97468094D01*
X181309580Y-97468094D02*
X181357200Y-97420475D01*
X181357200Y-97420475D02*
X181404819Y-97325237D01*
X181404819Y-97325237D02*
X181404819Y-97134761D01*
X181404819Y-97134761D02*
X181357200Y-97039523D01*
X181357200Y-97039523D02*
X181309580Y-96991904D01*
X181309580Y-96991904D02*
X181214342Y-96944285D01*
X181214342Y-96944285D02*
X181023866Y-96944285D01*
X181023866Y-96944285D02*
X180928628Y-96991904D01*
X180928628Y-96991904D02*
X180881009Y-97039523D01*
X180881009Y-97039523D02*
X180833390Y-97134761D01*
X188446905Y-85004819D02*
X188446905Y-84004819D01*
X188446905Y-84004819D02*
X188685000Y-84004819D01*
X188685000Y-84004819D02*
X188827857Y-84052438D01*
X188827857Y-84052438D02*
X188923095Y-84147676D01*
X188923095Y-84147676D02*
X188970714Y-84242914D01*
X188970714Y-84242914D02*
X189018333Y-84433390D01*
X189018333Y-84433390D02*
X189018333Y-84576247D01*
X189018333Y-84576247D02*
X188970714Y-84766723D01*
X188970714Y-84766723D02*
X188923095Y-84861961D01*
X188923095Y-84861961D02*
X188827857Y-84957200D01*
X188827857Y-84957200D02*
X188685000Y-85004819D01*
X188685000Y-85004819D02*
X188446905Y-85004819D01*
X189351667Y-84004819D02*
X190018333Y-84004819D01*
X190018333Y-84004819D02*
X189589762Y-85004819D01*
X187822857Y-90564819D02*
X187822857Y-89564819D01*
X187822857Y-89945771D02*
X187918095Y-89898152D01*
X187918095Y-89898152D02*
X188108571Y-89898152D01*
X188108571Y-89898152D02*
X188203809Y-89945771D01*
X188203809Y-89945771D02*
X188251428Y-89993390D01*
X188251428Y-89993390D02*
X188299047Y-90088628D01*
X188299047Y-90088628D02*
X188299047Y-90374342D01*
X188299047Y-90374342D02*
X188251428Y-90469580D01*
X188251428Y-90469580D02*
X188203809Y-90517200D01*
X188203809Y-90517200D02*
X188108571Y-90564819D01*
X188108571Y-90564819D02*
X187918095Y-90564819D01*
X187918095Y-90564819D02*
X187822857Y-90517200D01*
X188870476Y-90564819D02*
X188775238Y-90517200D01*
X188775238Y-90517200D02*
X188727619Y-90421961D01*
X188727619Y-90421961D02*
X188727619Y-89564819D01*
X189680000Y-89898152D02*
X189680000Y-90564819D01*
X189251429Y-89898152D02*
X189251429Y-90421961D01*
X189251429Y-90421961D02*
X189299048Y-90517200D01*
X189299048Y-90517200D02*
X189394286Y-90564819D01*
X189394286Y-90564819D02*
X189537143Y-90564819D01*
X189537143Y-90564819D02*
X189632381Y-90517200D01*
X189632381Y-90517200D02*
X189680000Y-90469580D01*
X190537143Y-90517200D02*
X190441905Y-90564819D01*
X190441905Y-90564819D02*
X190251429Y-90564819D01*
X190251429Y-90564819D02*
X190156191Y-90517200D01*
X190156191Y-90517200D02*
X190108572Y-90421961D01*
X190108572Y-90421961D02*
X190108572Y-90041009D01*
X190108572Y-90041009D02*
X190156191Y-89945771D01*
X190156191Y-89945771D02*
X190251429Y-89898152D01*
X190251429Y-89898152D02*
X190441905Y-89898152D01*
X190441905Y-89898152D02*
X190537143Y-89945771D01*
X190537143Y-89945771D02*
X190584762Y-90041009D01*
X190584762Y-90041009D02*
X190584762Y-90136247D01*
X190584762Y-90136247D02*
X190108572Y-90231485D01*
X192774819Y-100968094D02*
X192774819Y-100349047D01*
X192774819Y-100349047D02*
X193155771Y-100682380D01*
X193155771Y-100682380D02*
X193155771Y-100539523D01*
X193155771Y-100539523D02*
X193203390Y-100444285D01*
X193203390Y-100444285D02*
X193251009Y-100396666D01*
X193251009Y-100396666D02*
X193346247Y-100349047D01*
X193346247Y-100349047D02*
X193584342Y-100349047D01*
X193584342Y-100349047D02*
X193679580Y-100396666D01*
X193679580Y-100396666D02*
X193727200Y-100444285D01*
X193727200Y-100444285D02*
X193774819Y-100539523D01*
X193774819Y-100539523D02*
X193774819Y-100825237D01*
X193774819Y-100825237D02*
X193727200Y-100920475D01*
X193727200Y-100920475D02*
X193679580Y-100968094D01*
X192774819Y-100015713D02*
X192774819Y-99396666D01*
X192774819Y-99396666D02*
X193155771Y-99729999D01*
X193155771Y-99729999D02*
X193155771Y-99587142D01*
X193155771Y-99587142D02*
X193203390Y-99491904D01*
X193203390Y-99491904D02*
X193251009Y-99444285D01*
X193251009Y-99444285D02*
X193346247Y-99396666D01*
X193346247Y-99396666D02*
X193584342Y-99396666D01*
X193584342Y-99396666D02*
X193679580Y-99444285D01*
X193679580Y-99444285D02*
X193727200Y-99491904D01*
X193727200Y-99491904D02*
X193774819Y-99587142D01*
X193774819Y-99587142D02*
X193774819Y-99872856D01*
X193774819Y-99872856D02*
X193727200Y-99968094D01*
X193727200Y-99968094D02*
X193679580Y-100015713D01*
X192774819Y-98777618D02*
X192774819Y-98682380D01*
X192774819Y-98682380D02*
X192822438Y-98587142D01*
X192822438Y-98587142D02*
X192870057Y-98539523D01*
X192870057Y-98539523D02*
X192965295Y-98491904D01*
X192965295Y-98491904D02*
X193155771Y-98444285D01*
X193155771Y-98444285D02*
X193393866Y-98444285D01*
X193393866Y-98444285D02*
X193584342Y-98491904D01*
X193584342Y-98491904D02*
X193679580Y-98539523D01*
X193679580Y-98539523D02*
X193727200Y-98587142D01*
X193727200Y-98587142D02*
X193774819Y-98682380D01*
X193774819Y-98682380D02*
X193774819Y-98777618D01*
X193774819Y-98777618D02*
X193727200Y-98872856D01*
X193727200Y-98872856D02*
X193679580Y-98920475D01*
X193679580Y-98920475D02*
X193584342Y-98968094D01*
X193584342Y-98968094D02*
X193393866Y-99015713D01*
X193393866Y-99015713D02*
X193155771Y-99015713D01*
X193155771Y-99015713D02*
X192965295Y-98968094D01*
X192965295Y-98968094D02*
X192870057Y-98920475D01*
X192870057Y-98920475D02*
X192822438Y-98872856D01*
X192822438Y-98872856D02*
X192774819Y-98777618D01*
X193774819Y-97110951D02*
X193727200Y-97206189D01*
X193727200Y-97206189D02*
X193679580Y-97253808D01*
X193679580Y-97253808D02*
X193584342Y-97301427D01*
X193584342Y-97301427D02*
X193298628Y-97301427D01*
X193298628Y-97301427D02*
X193203390Y-97253808D01*
X193203390Y-97253808D02*
X193155771Y-97206189D01*
X193155771Y-97206189D02*
X193108152Y-97110951D01*
X193108152Y-97110951D02*
X193108152Y-96968094D01*
X193108152Y-96968094D02*
X193155771Y-96872856D01*
X193155771Y-96872856D02*
X193203390Y-96825237D01*
X193203390Y-96825237D02*
X193298628Y-96777618D01*
X193298628Y-96777618D02*
X193584342Y-96777618D01*
X193584342Y-96777618D02*
X193679580Y-96825237D01*
X193679580Y-96825237D02*
X193727200Y-96872856D01*
X193727200Y-96872856D02*
X193774819Y-96968094D01*
X193774819Y-96968094D02*
X193774819Y-97110951D01*
X193774819Y-96349046D02*
X192774819Y-96349046D01*
X193774819Y-95920475D02*
X193251009Y-95920475D01*
X193251009Y-95920475D02*
X193155771Y-95968094D01*
X193155771Y-95968094D02*
X193108152Y-96063332D01*
X193108152Y-96063332D02*
X193108152Y-96206189D01*
X193108152Y-96206189D02*
X193155771Y-96301427D01*
X193155771Y-96301427D02*
X193203390Y-96349046D01*
X193774819Y-95444284D02*
X193108152Y-95444284D01*
X193203390Y-95444284D02*
X193155771Y-95396665D01*
X193155771Y-95396665D02*
X193108152Y-95301427D01*
X193108152Y-95301427D02*
X193108152Y-95158570D01*
X193108152Y-95158570D02*
X193155771Y-95063332D01*
X193155771Y-95063332D02*
X193251009Y-95015713D01*
X193251009Y-95015713D02*
X193774819Y-95015713D01*
X193251009Y-95015713D02*
X193155771Y-94968094D01*
X193155771Y-94968094D02*
X193108152Y-94872856D01*
X193108152Y-94872856D02*
X193108152Y-94729999D01*
X193108152Y-94729999D02*
X193155771Y-94634760D01*
X193155771Y-94634760D02*
X193251009Y-94587141D01*
X193251009Y-94587141D02*
X193774819Y-94587141D01*
X191404819Y-98372857D02*
X190928628Y-98706190D01*
X191404819Y-98944285D02*
X190404819Y-98944285D01*
X190404819Y-98944285D02*
X190404819Y-98563333D01*
X190404819Y-98563333D02*
X190452438Y-98468095D01*
X190452438Y-98468095D02*
X190500057Y-98420476D01*
X190500057Y-98420476D02*
X190595295Y-98372857D01*
X190595295Y-98372857D02*
X190738152Y-98372857D01*
X190738152Y-98372857D02*
X190833390Y-98420476D01*
X190833390Y-98420476D02*
X190881009Y-98468095D01*
X190881009Y-98468095D02*
X190928628Y-98563333D01*
X190928628Y-98563333D02*
X190928628Y-98944285D01*
X191404819Y-97420476D02*
X191404819Y-97991904D01*
X191404819Y-97706190D02*
X190404819Y-97706190D01*
X190404819Y-97706190D02*
X190547676Y-97801428D01*
X190547676Y-97801428D02*
X190642914Y-97896666D01*
X190642914Y-97896666D02*
X190690533Y-97991904D01*
X191404819Y-96468095D02*
X191404819Y-97039523D01*
X191404819Y-96753809D02*
X190404819Y-96753809D01*
X190404819Y-96753809D02*
X190547676Y-96849047D01*
X190547676Y-96849047D02*
X190642914Y-96944285D01*
X190642914Y-96944285D02*
X190690533Y-97039523D01*
X159861905Y-85054819D02*
X159861905Y-84054819D01*
X159861905Y-84054819D02*
X160100000Y-84054819D01*
X160100000Y-84054819D02*
X160242857Y-84102438D01*
X160242857Y-84102438D02*
X160338095Y-84197676D01*
X160338095Y-84197676D02*
X160385714Y-84292914D01*
X160385714Y-84292914D02*
X160433333Y-84483390D01*
X160433333Y-84483390D02*
X160433333Y-84626247D01*
X160433333Y-84626247D02*
X160385714Y-84816723D01*
X160385714Y-84816723D02*
X160338095Y-84911961D01*
X160338095Y-84911961D02*
X160242857Y-85007200D01*
X160242857Y-85007200D02*
X160100000Y-85054819D01*
X160100000Y-85054819D02*
X159861905Y-85054819D01*
X161338095Y-84054819D02*
X160861905Y-84054819D01*
X160861905Y-84054819D02*
X160814286Y-84531009D01*
X160814286Y-84531009D02*
X160861905Y-84483390D01*
X160861905Y-84483390D02*
X160957143Y-84435771D01*
X160957143Y-84435771D02*
X161195238Y-84435771D01*
X161195238Y-84435771D02*
X161290476Y-84483390D01*
X161290476Y-84483390D02*
X161338095Y-84531009D01*
X161338095Y-84531009D02*
X161385714Y-84626247D01*
X161385714Y-84626247D02*
X161385714Y-84864342D01*
X161385714Y-84864342D02*
X161338095Y-84959580D01*
X161338095Y-84959580D02*
X161290476Y-85007200D01*
X161290476Y-85007200D02*
X161195238Y-85054819D01*
X161195238Y-85054819D02*
X160957143Y-85054819D01*
X160957143Y-85054819D02*
X160861905Y-85007200D01*
X160861905Y-85007200D02*
X160814286Y-84959580D01*
X158812857Y-90614819D02*
X158812857Y-89614819D01*
X158812857Y-89995771D02*
X158908095Y-89948152D01*
X158908095Y-89948152D02*
X159098571Y-89948152D01*
X159098571Y-89948152D02*
X159193809Y-89995771D01*
X159193809Y-89995771D02*
X159241428Y-90043390D01*
X159241428Y-90043390D02*
X159289047Y-90138628D01*
X159289047Y-90138628D02*
X159289047Y-90424342D01*
X159289047Y-90424342D02*
X159241428Y-90519580D01*
X159241428Y-90519580D02*
X159193809Y-90567200D01*
X159193809Y-90567200D02*
X159098571Y-90614819D01*
X159098571Y-90614819D02*
X158908095Y-90614819D01*
X158908095Y-90614819D02*
X158812857Y-90567200D01*
X159860476Y-90614819D02*
X159765238Y-90567200D01*
X159765238Y-90567200D02*
X159717619Y-90471961D01*
X159717619Y-90471961D02*
X159717619Y-89614819D01*
X160670000Y-89948152D02*
X160670000Y-90614819D01*
X160241429Y-89948152D02*
X160241429Y-90471961D01*
X160241429Y-90471961D02*
X160289048Y-90567200D01*
X160289048Y-90567200D02*
X160384286Y-90614819D01*
X160384286Y-90614819D02*
X160527143Y-90614819D01*
X160527143Y-90614819D02*
X160622381Y-90567200D01*
X160622381Y-90567200D02*
X160670000Y-90519580D01*
X161527143Y-90567200D02*
X161431905Y-90614819D01*
X161431905Y-90614819D02*
X161241429Y-90614819D01*
X161241429Y-90614819D02*
X161146191Y-90567200D01*
X161146191Y-90567200D02*
X161098572Y-90471961D01*
X161098572Y-90471961D02*
X161098572Y-90091009D01*
X161098572Y-90091009D02*
X161146191Y-89995771D01*
X161146191Y-89995771D02*
X161241429Y-89948152D01*
X161241429Y-89948152D02*
X161431905Y-89948152D01*
X161431905Y-89948152D02*
X161527143Y-89995771D01*
X161527143Y-89995771D02*
X161574762Y-90091009D01*
X161574762Y-90091009D02*
X161574762Y-90186247D01*
X161574762Y-90186247D02*
X161098572Y-90281485D01*
X177870057Y-115007142D02*
X177822438Y-114959523D01*
X177822438Y-114959523D02*
X177774819Y-114864285D01*
X177774819Y-114864285D02*
X177774819Y-114626190D01*
X177774819Y-114626190D02*
X177822438Y-114530952D01*
X177822438Y-114530952D02*
X177870057Y-114483333D01*
X177870057Y-114483333D02*
X177965295Y-114435714D01*
X177965295Y-114435714D02*
X178060533Y-114435714D01*
X178060533Y-114435714D02*
X178203390Y-114483333D01*
X178203390Y-114483333D02*
X178774819Y-115054761D01*
X178774819Y-115054761D02*
X178774819Y-114435714D01*
X178679580Y-114007142D02*
X178727200Y-113959523D01*
X178727200Y-113959523D02*
X178774819Y-114007142D01*
X178774819Y-114007142D02*
X178727200Y-114054761D01*
X178727200Y-114054761D02*
X178679580Y-114007142D01*
X178679580Y-114007142D02*
X178774819Y-114007142D01*
X177870057Y-113578571D02*
X177822438Y-113530952D01*
X177822438Y-113530952D02*
X177774819Y-113435714D01*
X177774819Y-113435714D02*
X177774819Y-113197619D01*
X177774819Y-113197619D02*
X177822438Y-113102381D01*
X177822438Y-113102381D02*
X177870057Y-113054762D01*
X177870057Y-113054762D02*
X177965295Y-113007143D01*
X177965295Y-113007143D02*
X178060533Y-113007143D01*
X178060533Y-113007143D02*
X178203390Y-113054762D01*
X178203390Y-113054762D02*
X178774819Y-113626190D01*
X178774819Y-113626190D02*
X178774819Y-113007143D01*
X178774819Y-111816666D02*
X177774819Y-111816666D01*
X178393866Y-111721428D02*
X178774819Y-111435714D01*
X178108152Y-111435714D02*
X178489104Y-111816666D01*
X178774819Y-110864285D02*
X178727200Y-110959523D01*
X178727200Y-110959523D02*
X178679580Y-111007142D01*
X178679580Y-111007142D02*
X178584342Y-111054761D01*
X178584342Y-111054761D02*
X178298628Y-111054761D01*
X178298628Y-111054761D02*
X178203390Y-111007142D01*
X178203390Y-111007142D02*
X178155771Y-110959523D01*
X178155771Y-110959523D02*
X178108152Y-110864285D01*
X178108152Y-110864285D02*
X178108152Y-110721428D01*
X178108152Y-110721428D02*
X178155771Y-110626190D01*
X178155771Y-110626190D02*
X178203390Y-110578571D01*
X178203390Y-110578571D02*
X178298628Y-110530952D01*
X178298628Y-110530952D02*
X178584342Y-110530952D01*
X178584342Y-110530952D02*
X178679580Y-110578571D01*
X178679580Y-110578571D02*
X178727200Y-110626190D01*
X178727200Y-110626190D02*
X178774819Y-110721428D01*
X178774819Y-110721428D02*
X178774819Y-110864285D01*
X178774819Y-110102380D02*
X177774819Y-110102380D01*
X178774819Y-109673809D02*
X178251009Y-109673809D01*
X178251009Y-109673809D02*
X178155771Y-109721428D01*
X178155771Y-109721428D02*
X178108152Y-109816666D01*
X178108152Y-109816666D02*
X178108152Y-109959523D01*
X178108152Y-109959523D02*
X178155771Y-110054761D01*
X178155771Y-110054761D02*
X178203390Y-110102380D01*
X178774819Y-109197618D02*
X178108152Y-109197618D01*
X178203390Y-109197618D02*
X178155771Y-109149999D01*
X178155771Y-109149999D02*
X178108152Y-109054761D01*
X178108152Y-109054761D02*
X178108152Y-108911904D01*
X178108152Y-108911904D02*
X178155771Y-108816666D01*
X178155771Y-108816666D02*
X178251009Y-108769047D01*
X178251009Y-108769047D02*
X178774819Y-108769047D01*
X178251009Y-108769047D02*
X178155771Y-108721428D01*
X178155771Y-108721428D02*
X178108152Y-108626190D01*
X178108152Y-108626190D02*
X178108152Y-108483333D01*
X178108152Y-108483333D02*
X178155771Y-108388094D01*
X178155771Y-108388094D02*
X178251009Y-108340475D01*
X178251009Y-108340475D02*
X178774819Y-108340475D01*
X176404819Y-111816666D02*
X175928628Y-112149999D01*
X176404819Y-112388094D02*
X175404819Y-112388094D01*
X175404819Y-112388094D02*
X175404819Y-112007142D01*
X175404819Y-112007142D02*
X175452438Y-111911904D01*
X175452438Y-111911904D02*
X175500057Y-111864285D01*
X175500057Y-111864285D02*
X175595295Y-111816666D01*
X175595295Y-111816666D02*
X175738152Y-111816666D01*
X175738152Y-111816666D02*
X175833390Y-111864285D01*
X175833390Y-111864285D02*
X175881009Y-111911904D01*
X175881009Y-111911904D02*
X175928628Y-112007142D01*
X175928628Y-112007142D02*
X175928628Y-112388094D01*
X176404819Y-111340475D02*
X176404819Y-111149999D01*
X176404819Y-111149999D02*
X176357200Y-111054761D01*
X176357200Y-111054761D02*
X176309580Y-111007142D01*
X176309580Y-111007142D02*
X176166723Y-110911904D01*
X176166723Y-110911904D02*
X175976247Y-110864285D01*
X175976247Y-110864285D02*
X175595295Y-110864285D01*
X175595295Y-110864285D02*
X175500057Y-110911904D01*
X175500057Y-110911904D02*
X175452438Y-110959523D01*
X175452438Y-110959523D02*
X175404819Y-111054761D01*
X175404819Y-111054761D02*
X175404819Y-111245237D01*
X175404819Y-111245237D02*
X175452438Y-111340475D01*
X175452438Y-111340475D02*
X175500057Y-111388094D01*
X175500057Y-111388094D02*
X175595295Y-111435713D01*
X175595295Y-111435713D02*
X175833390Y-111435713D01*
X175833390Y-111435713D02*
X175928628Y-111388094D01*
X175928628Y-111388094D02*
X175976247Y-111340475D01*
X175976247Y-111340475D02*
X176023866Y-111245237D01*
X176023866Y-111245237D02*
X176023866Y-111054761D01*
X176023866Y-111054761D02*
X175976247Y-110959523D01*
X175976247Y-110959523D02*
X175928628Y-110911904D01*
X175928628Y-110911904D02*
X175833390Y-110864285D01*
X152161905Y-85054819D02*
X152161905Y-84054819D01*
X152161905Y-84054819D02*
X152400000Y-84054819D01*
X152400000Y-84054819D02*
X152542857Y-84102438D01*
X152542857Y-84102438D02*
X152638095Y-84197676D01*
X152638095Y-84197676D02*
X152685714Y-84292914D01*
X152685714Y-84292914D02*
X152733333Y-84483390D01*
X152733333Y-84483390D02*
X152733333Y-84626247D01*
X152733333Y-84626247D02*
X152685714Y-84816723D01*
X152685714Y-84816723D02*
X152638095Y-84911961D01*
X152638095Y-84911961D02*
X152542857Y-85007200D01*
X152542857Y-85007200D02*
X152400000Y-85054819D01*
X152400000Y-85054819D02*
X152161905Y-85054819D01*
X153304762Y-84483390D02*
X153209524Y-84435771D01*
X153209524Y-84435771D02*
X153161905Y-84388152D01*
X153161905Y-84388152D02*
X153114286Y-84292914D01*
X153114286Y-84292914D02*
X153114286Y-84245295D01*
X153114286Y-84245295D02*
X153161905Y-84150057D01*
X153161905Y-84150057D02*
X153209524Y-84102438D01*
X153209524Y-84102438D02*
X153304762Y-84054819D01*
X153304762Y-84054819D02*
X153495238Y-84054819D01*
X153495238Y-84054819D02*
X153590476Y-84102438D01*
X153590476Y-84102438D02*
X153638095Y-84150057D01*
X153638095Y-84150057D02*
X153685714Y-84245295D01*
X153685714Y-84245295D02*
X153685714Y-84292914D01*
X153685714Y-84292914D02*
X153638095Y-84388152D01*
X153638095Y-84388152D02*
X153590476Y-84435771D01*
X153590476Y-84435771D02*
X153495238Y-84483390D01*
X153495238Y-84483390D02*
X153304762Y-84483390D01*
X153304762Y-84483390D02*
X153209524Y-84531009D01*
X153209524Y-84531009D02*
X153161905Y-84578628D01*
X153161905Y-84578628D02*
X153114286Y-84673866D01*
X153114286Y-84673866D02*
X153114286Y-84864342D01*
X153114286Y-84864342D02*
X153161905Y-84959580D01*
X153161905Y-84959580D02*
X153209524Y-85007200D01*
X153209524Y-85007200D02*
X153304762Y-85054819D01*
X153304762Y-85054819D02*
X153495238Y-85054819D01*
X153495238Y-85054819D02*
X153590476Y-85007200D01*
X153590476Y-85007200D02*
X153638095Y-84959580D01*
X153638095Y-84959580D02*
X153685714Y-84864342D01*
X153685714Y-84864342D02*
X153685714Y-84673866D01*
X153685714Y-84673866D02*
X153638095Y-84578628D01*
X153638095Y-84578628D02*
X153590476Y-84531009D01*
X153590476Y-84531009D02*
X153495238Y-84483390D01*
X151582857Y-90574819D02*
X151582857Y-89574819D01*
X151582857Y-89955771D02*
X151678095Y-89908152D01*
X151678095Y-89908152D02*
X151868571Y-89908152D01*
X151868571Y-89908152D02*
X151963809Y-89955771D01*
X151963809Y-89955771D02*
X152011428Y-90003390D01*
X152011428Y-90003390D02*
X152059047Y-90098628D01*
X152059047Y-90098628D02*
X152059047Y-90384342D01*
X152059047Y-90384342D02*
X152011428Y-90479580D01*
X152011428Y-90479580D02*
X151963809Y-90527200D01*
X151963809Y-90527200D02*
X151868571Y-90574819D01*
X151868571Y-90574819D02*
X151678095Y-90574819D01*
X151678095Y-90574819D02*
X151582857Y-90527200D01*
X152630476Y-90574819D02*
X152535238Y-90527200D01*
X152535238Y-90527200D02*
X152487619Y-90431961D01*
X152487619Y-90431961D02*
X152487619Y-89574819D01*
X153440000Y-89908152D02*
X153440000Y-90574819D01*
X153011429Y-89908152D02*
X153011429Y-90431961D01*
X153011429Y-90431961D02*
X153059048Y-90527200D01*
X153059048Y-90527200D02*
X153154286Y-90574819D01*
X153154286Y-90574819D02*
X153297143Y-90574819D01*
X153297143Y-90574819D02*
X153392381Y-90527200D01*
X153392381Y-90527200D02*
X153440000Y-90479580D01*
X154297143Y-90527200D02*
X154201905Y-90574819D01*
X154201905Y-90574819D02*
X154011429Y-90574819D01*
X154011429Y-90574819D02*
X153916191Y-90527200D01*
X153916191Y-90527200D02*
X153868572Y-90431961D01*
X153868572Y-90431961D02*
X153868572Y-90051009D01*
X153868572Y-90051009D02*
X153916191Y-89955771D01*
X153916191Y-89955771D02*
X154011429Y-89908152D01*
X154011429Y-89908152D02*
X154201905Y-89908152D01*
X154201905Y-89908152D02*
X154297143Y-89955771D01*
X154297143Y-89955771D02*
X154344762Y-90051009D01*
X154344762Y-90051009D02*
X154344762Y-90146247D01*
X154344762Y-90146247D02*
X153868572Y-90241485D01*
X146600237Y-126953152D02*
X146600237Y-127762676D01*
X146600237Y-127762676D02*
X146552618Y-127857914D01*
X146552618Y-127857914D02*
X146504999Y-127905533D01*
X146504999Y-127905533D02*
X146409761Y-127953152D01*
X146409761Y-127953152D02*
X146266904Y-127953152D01*
X146266904Y-127953152D02*
X146171666Y-127905533D01*
X146600237Y-127572200D02*
X146504999Y-127619819D01*
X146504999Y-127619819D02*
X146314523Y-127619819D01*
X146314523Y-127619819D02*
X146219285Y-127572200D01*
X146219285Y-127572200D02*
X146171666Y-127524580D01*
X146171666Y-127524580D02*
X146124047Y-127429342D01*
X146124047Y-127429342D02*
X146124047Y-127143628D01*
X146124047Y-127143628D02*
X146171666Y-127048390D01*
X146171666Y-127048390D02*
X146219285Y-127000771D01*
X146219285Y-127000771D02*
X146314523Y-126953152D01*
X146314523Y-126953152D02*
X146504999Y-126953152D01*
X146504999Y-126953152D02*
X146600237Y-127000771D01*
X147076428Y-127619819D02*
X147076428Y-126953152D01*
X147076428Y-127143628D02*
X147124047Y-127048390D01*
X147124047Y-127048390D02*
X147171666Y-127000771D01*
X147171666Y-127000771D02*
X147266904Y-126953152D01*
X147266904Y-126953152D02*
X147362142Y-126953152D01*
X148076428Y-127572200D02*
X147981190Y-127619819D01*
X147981190Y-127619819D02*
X147790714Y-127619819D01*
X147790714Y-127619819D02*
X147695476Y-127572200D01*
X147695476Y-127572200D02*
X147647857Y-127476961D01*
X147647857Y-127476961D02*
X147647857Y-127096009D01*
X147647857Y-127096009D02*
X147695476Y-127000771D01*
X147695476Y-127000771D02*
X147790714Y-126953152D01*
X147790714Y-126953152D02*
X147981190Y-126953152D01*
X147981190Y-126953152D02*
X148076428Y-127000771D01*
X148076428Y-127000771D02*
X148124047Y-127096009D01*
X148124047Y-127096009D02*
X148124047Y-127191247D01*
X148124047Y-127191247D02*
X147647857Y-127286485D01*
X148933571Y-127572200D02*
X148838333Y-127619819D01*
X148838333Y-127619819D02*
X148647857Y-127619819D01*
X148647857Y-127619819D02*
X148552619Y-127572200D01*
X148552619Y-127572200D02*
X148505000Y-127476961D01*
X148505000Y-127476961D02*
X148505000Y-127096009D01*
X148505000Y-127096009D02*
X148552619Y-127000771D01*
X148552619Y-127000771D02*
X148647857Y-126953152D01*
X148647857Y-126953152D02*
X148838333Y-126953152D01*
X148838333Y-126953152D02*
X148933571Y-127000771D01*
X148933571Y-127000771D02*
X148981190Y-127096009D01*
X148981190Y-127096009D02*
X148981190Y-127191247D01*
X148981190Y-127191247D02*
X148505000Y-127286485D01*
X149409762Y-126953152D02*
X149409762Y-127619819D01*
X149409762Y-127048390D02*
X149457381Y-127000771D01*
X149457381Y-127000771D02*
X149552619Y-126953152D01*
X149552619Y-126953152D02*
X149695476Y-126953152D01*
X149695476Y-126953152D02*
X149790714Y-127000771D01*
X149790714Y-127000771D02*
X149838333Y-127096009D01*
X149838333Y-127096009D02*
X149838333Y-127619819D01*
D14*
X147409524Y-123293855D02*
X147409524Y-122493855D01*
X147409524Y-122493855D02*
X147600000Y-122493855D01*
X147600000Y-122493855D02*
X147714286Y-122531950D01*
X147714286Y-122531950D02*
X147790476Y-122608140D01*
X147790476Y-122608140D02*
X147828571Y-122684331D01*
X147828571Y-122684331D02*
X147866667Y-122836712D01*
X147866667Y-122836712D02*
X147866667Y-122950998D01*
X147866667Y-122950998D02*
X147828571Y-123103379D01*
X147828571Y-123103379D02*
X147790476Y-123179569D01*
X147790476Y-123179569D02*
X147714286Y-123255760D01*
X147714286Y-123255760D02*
X147600000Y-123293855D01*
X147600000Y-123293855D02*
X147409524Y-123293855D01*
X148133333Y-122493855D02*
X148628571Y-122493855D01*
X148628571Y-122493855D02*
X148361905Y-122798617D01*
X148361905Y-122798617D02*
X148476190Y-122798617D01*
X148476190Y-122798617D02*
X148552381Y-122836712D01*
X148552381Y-122836712D02*
X148590476Y-122874807D01*
X148590476Y-122874807D02*
X148628571Y-122950998D01*
X148628571Y-122950998D02*
X148628571Y-123141474D01*
X148628571Y-123141474D02*
X148590476Y-123217664D01*
X148590476Y-123217664D02*
X148552381Y-123255760D01*
X148552381Y-123255760D02*
X148476190Y-123293855D01*
X148476190Y-123293855D02*
X148247619Y-123293855D01*
X148247619Y-123293855D02*
X148171428Y-123255760D01*
X148171428Y-123255760D02*
X148133333Y-123217664D01*
D13*
X169054819Y-101318094D02*
X169054819Y-100699047D01*
X169054819Y-100699047D02*
X169435771Y-101032380D01*
X169435771Y-101032380D02*
X169435771Y-100889523D01*
X169435771Y-100889523D02*
X169483390Y-100794285D01*
X169483390Y-100794285D02*
X169531009Y-100746666D01*
X169531009Y-100746666D02*
X169626247Y-100699047D01*
X169626247Y-100699047D02*
X169864342Y-100699047D01*
X169864342Y-100699047D02*
X169959580Y-100746666D01*
X169959580Y-100746666D02*
X170007200Y-100794285D01*
X170007200Y-100794285D02*
X170054819Y-100889523D01*
X170054819Y-100889523D02*
X170054819Y-101175237D01*
X170054819Y-101175237D02*
X170007200Y-101270475D01*
X170007200Y-101270475D02*
X169959580Y-101318094D01*
X169054819Y-100365713D02*
X169054819Y-99746666D01*
X169054819Y-99746666D02*
X169435771Y-100079999D01*
X169435771Y-100079999D02*
X169435771Y-99937142D01*
X169435771Y-99937142D02*
X169483390Y-99841904D01*
X169483390Y-99841904D02*
X169531009Y-99794285D01*
X169531009Y-99794285D02*
X169626247Y-99746666D01*
X169626247Y-99746666D02*
X169864342Y-99746666D01*
X169864342Y-99746666D02*
X169959580Y-99794285D01*
X169959580Y-99794285D02*
X170007200Y-99841904D01*
X170007200Y-99841904D02*
X170054819Y-99937142D01*
X170054819Y-99937142D02*
X170054819Y-100222856D01*
X170054819Y-100222856D02*
X170007200Y-100318094D01*
X170007200Y-100318094D02*
X169959580Y-100365713D01*
X169054819Y-99127618D02*
X169054819Y-99032380D01*
X169054819Y-99032380D02*
X169102438Y-98937142D01*
X169102438Y-98937142D02*
X169150057Y-98889523D01*
X169150057Y-98889523D02*
X169245295Y-98841904D01*
X169245295Y-98841904D02*
X169435771Y-98794285D01*
X169435771Y-98794285D02*
X169673866Y-98794285D01*
X169673866Y-98794285D02*
X169864342Y-98841904D01*
X169864342Y-98841904D02*
X169959580Y-98889523D01*
X169959580Y-98889523D02*
X170007200Y-98937142D01*
X170007200Y-98937142D02*
X170054819Y-99032380D01*
X170054819Y-99032380D02*
X170054819Y-99127618D01*
X170054819Y-99127618D02*
X170007200Y-99222856D01*
X170007200Y-99222856D02*
X169959580Y-99270475D01*
X169959580Y-99270475D02*
X169864342Y-99318094D01*
X169864342Y-99318094D02*
X169673866Y-99365713D01*
X169673866Y-99365713D02*
X169435771Y-99365713D01*
X169435771Y-99365713D02*
X169245295Y-99318094D01*
X169245295Y-99318094D02*
X169150057Y-99270475D01*
X169150057Y-99270475D02*
X169102438Y-99222856D01*
X169102438Y-99222856D02*
X169054819Y-99127618D01*
X170054819Y-97460951D02*
X170007200Y-97556189D01*
X170007200Y-97556189D02*
X169959580Y-97603808D01*
X169959580Y-97603808D02*
X169864342Y-97651427D01*
X169864342Y-97651427D02*
X169578628Y-97651427D01*
X169578628Y-97651427D02*
X169483390Y-97603808D01*
X169483390Y-97603808D02*
X169435771Y-97556189D01*
X169435771Y-97556189D02*
X169388152Y-97460951D01*
X169388152Y-97460951D02*
X169388152Y-97318094D01*
X169388152Y-97318094D02*
X169435771Y-97222856D01*
X169435771Y-97222856D02*
X169483390Y-97175237D01*
X169483390Y-97175237D02*
X169578628Y-97127618D01*
X169578628Y-97127618D02*
X169864342Y-97127618D01*
X169864342Y-97127618D02*
X169959580Y-97175237D01*
X169959580Y-97175237D02*
X170007200Y-97222856D01*
X170007200Y-97222856D02*
X170054819Y-97318094D01*
X170054819Y-97318094D02*
X170054819Y-97460951D01*
X170054819Y-96699046D02*
X169054819Y-96699046D01*
X170054819Y-96270475D02*
X169531009Y-96270475D01*
X169531009Y-96270475D02*
X169435771Y-96318094D01*
X169435771Y-96318094D02*
X169388152Y-96413332D01*
X169388152Y-96413332D02*
X169388152Y-96556189D01*
X169388152Y-96556189D02*
X169435771Y-96651427D01*
X169435771Y-96651427D02*
X169483390Y-96699046D01*
X170054819Y-95794284D02*
X169388152Y-95794284D01*
X169483390Y-95794284D02*
X169435771Y-95746665D01*
X169435771Y-95746665D02*
X169388152Y-95651427D01*
X169388152Y-95651427D02*
X169388152Y-95508570D01*
X169388152Y-95508570D02*
X169435771Y-95413332D01*
X169435771Y-95413332D02*
X169531009Y-95365713D01*
X169531009Y-95365713D02*
X170054819Y-95365713D01*
X169531009Y-95365713D02*
X169435771Y-95318094D01*
X169435771Y-95318094D02*
X169388152Y-95222856D01*
X169388152Y-95222856D02*
X169388152Y-95079999D01*
X169388152Y-95079999D02*
X169435771Y-94984760D01*
X169435771Y-94984760D02*
X169531009Y-94937141D01*
X169531009Y-94937141D02*
X170054819Y-94937141D01*
X167684819Y-98246666D02*
X167208628Y-98579999D01*
X167684819Y-98818094D02*
X166684819Y-98818094D01*
X166684819Y-98818094D02*
X166684819Y-98437142D01*
X166684819Y-98437142D02*
X166732438Y-98341904D01*
X166732438Y-98341904D02*
X166780057Y-98294285D01*
X166780057Y-98294285D02*
X166875295Y-98246666D01*
X166875295Y-98246666D02*
X167018152Y-98246666D01*
X167018152Y-98246666D02*
X167113390Y-98294285D01*
X167113390Y-98294285D02*
X167161009Y-98341904D01*
X167161009Y-98341904D02*
X167208628Y-98437142D01*
X167208628Y-98437142D02*
X167208628Y-98818094D01*
X166684819Y-97389523D02*
X166684819Y-97579999D01*
X166684819Y-97579999D02*
X166732438Y-97675237D01*
X166732438Y-97675237D02*
X166780057Y-97722856D01*
X166780057Y-97722856D02*
X166922914Y-97818094D01*
X166922914Y-97818094D02*
X167113390Y-97865713D01*
X167113390Y-97865713D02*
X167494342Y-97865713D01*
X167494342Y-97865713D02*
X167589580Y-97818094D01*
X167589580Y-97818094D02*
X167637200Y-97770475D01*
X167637200Y-97770475D02*
X167684819Y-97675237D01*
X167684819Y-97675237D02*
X167684819Y-97484761D01*
X167684819Y-97484761D02*
X167637200Y-97389523D01*
X167637200Y-97389523D02*
X167589580Y-97341904D01*
X167589580Y-97341904D02*
X167494342Y-97294285D01*
X167494342Y-97294285D02*
X167256247Y-97294285D01*
X167256247Y-97294285D02*
X167161009Y-97341904D01*
X167161009Y-97341904D02*
X167113390Y-97389523D01*
X167113390Y-97389523D02*
X167065771Y-97484761D01*
X167065771Y-97484761D02*
X167065771Y-97675237D01*
X167065771Y-97675237D02*
X167113390Y-97770475D01*
X167113390Y-97770475D02*
X167161009Y-97818094D01*
X167161009Y-97818094D02*
X167256247Y-97865713D01*
X169616667Y-90807200D02*
X169759524Y-90854819D01*
X169759524Y-90854819D02*
X169997619Y-90854819D01*
X169997619Y-90854819D02*
X170092857Y-90807200D01*
X170092857Y-90807200D02*
X170140476Y-90759580D01*
X170140476Y-90759580D02*
X170188095Y-90664342D01*
X170188095Y-90664342D02*
X170188095Y-90569104D01*
X170188095Y-90569104D02*
X170140476Y-90473866D01*
X170140476Y-90473866D02*
X170092857Y-90426247D01*
X170092857Y-90426247D02*
X169997619Y-90378628D01*
X169997619Y-90378628D02*
X169807143Y-90331009D01*
X169807143Y-90331009D02*
X169711905Y-90283390D01*
X169711905Y-90283390D02*
X169664286Y-90235771D01*
X169664286Y-90235771D02*
X169616667Y-90140533D01*
X169616667Y-90140533D02*
X169616667Y-90045295D01*
X169616667Y-90045295D02*
X169664286Y-89950057D01*
X169664286Y-89950057D02*
X169711905Y-89902438D01*
X169711905Y-89902438D02*
X169807143Y-89854819D01*
X169807143Y-89854819D02*
X170045238Y-89854819D01*
X170045238Y-89854819D02*
X170188095Y-89902438D01*
X170521429Y-89854819D02*
X170759524Y-90854819D01*
X170759524Y-90854819D02*
X170950000Y-90140533D01*
X170950000Y-90140533D02*
X171140476Y-90854819D01*
X171140476Y-90854819D02*
X171378572Y-89854819D01*
X172283333Y-90854819D02*
X171711905Y-90854819D01*
X171997619Y-90854819D02*
X171997619Y-89854819D01*
X171997619Y-89854819D02*
X171902381Y-89997676D01*
X171902381Y-89997676D02*
X171807143Y-90092914D01*
X171807143Y-90092914D02*
X171711905Y-90140533D01*
X131896666Y-89054819D02*
X131896666Y-89769104D01*
X131896666Y-89769104D02*
X131849047Y-89911961D01*
X131849047Y-89911961D02*
X131753809Y-90007200D01*
X131753809Y-90007200D02*
X131610952Y-90054819D01*
X131610952Y-90054819D02*
X131515714Y-90054819D01*
X132277619Y-89054819D02*
X132896666Y-89054819D01*
X132896666Y-89054819D02*
X132563333Y-89435771D01*
X132563333Y-89435771D02*
X132706190Y-89435771D01*
X132706190Y-89435771D02*
X132801428Y-89483390D01*
X132801428Y-89483390D02*
X132849047Y-89531009D01*
X132849047Y-89531009D02*
X132896666Y-89626247D01*
X132896666Y-89626247D02*
X132896666Y-89864342D01*
X132896666Y-89864342D02*
X132849047Y-89959580D01*
X132849047Y-89959580D02*
X132801428Y-90007200D01*
X132801428Y-90007200D02*
X132706190Y-90054819D01*
X132706190Y-90054819D02*
X132420476Y-90054819D01*
X132420476Y-90054819D02*
X132325238Y-90007200D01*
X132325238Y-90007200D02*
X132277619Y-89959580D01*
X148124819Y-102918094D02*
X148124819Y-102299047D01*
X148124819Y-102299047D02*
X148505771Y-102632380D01*
X148505771Y-102632380D02*
X148505771Y-102489523D01*
X148505771Y-102489523D02*
X148553390Y-102394285D01*
X148553390Y-102394285D02*
X148601009Y-102346666D01*
X148601009Y-102346666D02*
X148696247Y-102299047D01*
X148696247Y-102299047D02*
X148934342Y-102299047D01*
X148934342Y-102299047D02*
X149029580Y-102346666D01*
X149029580Y-102346666D02*
X149077200Y-102394285D01*
X149077200Y-102394285D02*
X149124819Y-102489523D01*
X149124819Y-102489523D02*
X149124819Y-102775237D01*
X149124819Y-102775237D02*
X149077200Y-102870475D01*
X149077200Y-102870475D02*
X149029580Y-102918094D01*
X148124819Y-101965713D02*
X148124819Y-101346666D01*
X148124819Y-101346666D02*
X148505771Y-101679999D01*
X148505771Y-101679999D02*
X148505771Y-101537142D01*
X148505771Y-101537142D02*
X148553390Y-101441904D01*
X148553390Y-101441904D02*
X148601009Y-101394285D01*
X148601009Y-101394285D02*
X148696247Y-101346666D01*
X148696247Y-101346666D02*
X148934342Y-101346666D01*
X148934342Y-101346666D02*
X149029580Y-101394285D01*
X149029580Y-101394285D02*
X149077200Y-101441904D01*
X149077200Y-101441904D02*
X149124819Y-101537142D01*
X149124819Y-101537142D02*
X149124819Y-101822856D01*
X149124819Y-101822856D02*
X149077200Y-101918094D01*
X149077200Y-101918094D02*
X149029580Y-101965713D01*
X148124819Y-100727618D02*
X148124819Y-100632380D01*
X148124819Y-100632380D02*
X148172438Y-100537142D01*
X148172438Y-100537142D02*
X148220057Y-100489523D01*
X148220057Y-100489523D02*
X148315295Y-100441904D01*
X148315295Y-100441904D02*
X148505771Y-100394285D01*
X148505771Y-100394285D02*
X148743866Y-100394285D01*
X148743866Y-100394285D02*
X148934342Y-100441904D01*
X148934342Y-100441904D02*
X149029580Y-100489523D01*
X149029580Y-100489523D02*
X149077200Y-100537142D01*
X149077200Y-100537142D02*
X149124819Y-100632380D01*
X149124819Y-100632380D02*
X149124819Y-100727618D01*
X149124819Y-100727618D02*
X149077200Y-100822856D01*
X149077200Y-100822856D02*
X149029580Y-100870475D01*
X149029580Y-100870475D02*
X148934342Y-100918094D01*
X148934342Y-100918094D02*
X148743866Y-100965713D01*
X148743866Y-100965713D02*
X148505771Y-100965713D01*
X148505771Y-100965713D02*
X148315295Y-100918094D01*
X148315295Y-100918094D02*
X148220057Y-100870475D01*
X148220057Y-100870475D02*
X148172438Y-100822856D01*
X148172438Y-100822856D02*
X148124819Y-100727618D01*
X149124819Y-99060951D02*
X149077200Y-99156189D01*
X149077200Y-99156189D02*
X149029580Y-99203808D01*
X149029580Y-99203808D02*
X148934342Y-99251427D01*
X148934342Y-99251427D02*
X148648628Y-99251427D01*
X148648628Y-99251427D02*
X148553390Y-99203808D01*
X148553390Y-99203808D02*
X148505771Y-99156189D01*
X148505771Y-99156189D02*
X148458152Y-99060951D01*
X148458152Y-99060951D02*
X148458152Y-98918094D01*
X148458152Y-98918094D02*
X148505771Y-98822856D01*
X148505771Y-98822856D02*
X148553390Y-98775237D01*
X148553390Y-98775237D02*
X148648628Y-98727618D01*
X148648628Y-98727618D02*
X148934342Y-98727618D01*
X148934342Y-98727618D02*
X149029580Y-98775237D01*
X149029580Y-98775237D02*
X149077200Y-98822856D01*
X149077200Y-98822856D02*
X149124819Y-98918094D01*
X149124819Y-98918094D02*
X149124819Y-99060951D01*
X149124819Y-98299046D02*
X148124819Y-98299046D01*
X149124819Y-97870475D02*
X148601009Y-97870475D01*
X148601009Y-97870475D02*
X148505771Y-97918094D01*
X148505771Y-97918094D02*
X148458152Y-98013332D01*
X148458152Y-98013332D02*
X148458152Y-98156189D01*
X148458152Y-98156189D02*
X148505771Y-98251427D01*
X148505771Y-98251427D02*
X148553390Y-98299046D01*
X149124819Y-97394284D02*
X148458152Y-97394284D01*
X148553390Y-97394284D02*
X148505771Y-97346665D01*
X148505771Y-97346665D02*
X148458152Y-97251427D01*
X148458152Y-97251427D02*
X148458152Y-97108570D01*
X148458152Y-97108570D02*
X148505771Y-97013332D01*
X148505771Y-97013332D02*
X148601009Y-96965713D01*
X148601009Y-96965713D02*
X149124819Y-96965713D01*
X148601009Y-96965713D02*
X148505771Y-96918094D01*
X148505771Y-96918094D02*
X148458152Y-96822856D01*
X148458152Y-96822856D02*
X148458152Y-96679999D01*
X148458152Y-96679999D02*
X148505771Y-96584760D01*
X148505771Y-96584760D02*
X148601009Y-96537141D01*
X148601009Y-96537141D02*
X149124819Y-96537141D01*
X146754819Y-99846666D02*
X146278628Y-100179999D01*
X146754819Y-100418094D02*
X145754819Y-100418094D01*
X145754819Y-100418094D02*
X145754819Y-100037142D01*
X145754819Y-100037142D02*
X145802438Y-99941904D01*
X145802438Y-99941904D02*
X145850057Y-99894285D01*
X145850057Y-99894285D02*
X145945295Y-99846666D01*
X145945295Y-99846666D02*
X146088152Y-99846666D01*
X146088152Y-99846666D02*
X146183390Y-99894285D01*
X146183390Y-99894285D02*
X146231009Y-99941904D01*
X146231009Y-99941904D02*
X146278628Y-100037142D01*
X146278628Y-100037142D02*
X146278628Y-100418094D01*
X145850057Y-99465713D02*
X145802438Y-99418094D01*
X145802438Y-99418094D02*
X145754819Y-99322856D01*
X145754819Y-99322856D02*
X145754819Y-99084761D01*
X145754819Y-99084761D02*
X145802438Y-98989523D01*
X145802438Y-98989523D02*
X145850057Y-98941904D01*
X145850057Y-98941904D02*
X145945295Y-98894285D01*
X145945295Y-98894285D02*
X146040533Y-98894285D01*
X146040533Y-98894285D02*
X146183390Y-98941904D01*
X146183390Y-98941904D02*
X146754819Y-99513332D01*
X146754819Y-99513332D02*
X146754819Y-98894285D01*
X136535713Y-63204819D02*
X136202380Y-62728628D01*
X135964285Y-63204819D02*
X135964285Y-62204819D01*
X135964285Y-62204819D02*
X136345237Y-62204819D01*
X136345237Y-62204819D02*
X136440475Y-62252438D01*
X136440475Y-62252438D02*
X136488094Y-62300057D01*
X136488094Y-62300057D02*
X136535713Y-62395295D01*
X136535713Y-62395295D02*
X136535713Y-62538152D01*
X136535713Y-62538152D02*
X136488094Y-62633390D01*
X136488094Y-62633390D02*
X136440475Y-62681009D01*
X136440475Y-62681009D02*
X136345237Y-62728628D01*
X136345237Y-62728628D02*
X135964285Y-62728628D01*
X137392856Y-63204819D02*
X137392856Y-62681009D01*
X137392856Y-62681009D02*
X137345237Y-62585771D01*
X137345237Y-62585771D02*
X137249999Y-62538152D01*
X137249999Y-62538152D02*
X137059523Y-62538152D01*
X137059523Y-62538152D02*
X136964285Y-62585771D01*
X137392856Y-63157200D02*
X137297618Y-63204819D01*
X137297618Y-63204819D02*
X137059523Y-63204819D01*
X137059523Y-63204819D02*
X136964285Y-63157200D01*
X136964285Y-63157200D02*
X136916666Y-63061961D01*
X136916666Y-63061961D02*
X136916666Y-62966723D01*
X136916666Y-62966723D02*
X136964285Y-62871485D01*
X136964285Y-62871485D02*
X137059523Y-62823866D01*
X137059523Y-62823866D02*
X137297618Y-62823866D01*
X137297618Y-62823866D02*
X137392856Y-62776247D01*
X137821428Y-63157200D02*
X137916666Y-63204819D01*
X137916666Y-63204819D02*
X138107142Y-63204819D01*
X138107142Y-63204819D02*
X138202380Y-63157200D01*
X138202380Y-63157200D02*
X138249999Y-63061961D01*
X138249999Y-63061961D02*
X138249999Y-63014342D01*
X138249999Y-63014342D02*
X138202380Y-62919104D01*
X138202380Y-62919104D02*
X138107142Y-62871485D01*
X138107142Y-62871485D02*
X137964285Y-62871485D01*
X137964285Y-62871485D02*
X137869047Y-62823866D01*
X137869047Y-62823866D02*
X137821428Y-62728628D01*
X137821428Y-62728628D02*
X137821428Y-62681009D01*
X137821428Y-62681009D02*
X137869047Y-62585771D01*
X137869047Y-62585771D02*
X137964285Y-62538152D01*
X137964285Y-62538152D02*
X138107142Y-62538152D01*
X138107142Y-62538152D02*
X138202380Y-62585771D01*
X138678571Y-62538152D02*
X138678571Y-63538152D01*
X138678571Y-62585771D02*
X138773809Y-62538152D01*
X138773809Y-62538152D02*
X138964285Y-62538152D01*
X138964285Y-62538152D02*
X139059523Y-62585771D01*
X139059523Y-62585771D02*
X139107142Y-62633390D01*
X139107142Y-62633390D02*
X139154761Y-62728628D01*
X139154761Y-62728628D02*
X139154761Y-63014342D01*
X139154761Y-63014342D02*
X139107142Y-63109580D01*
X139107142Y-63109580D02*
X139059523Y-63157200D01*
X139059523Y-63157200D02*
X138964285Y-63204819D01*
X138964285Y-63204819D02*
X138773809Y-63204819D01*
X138773809Y-63204819D02*
X138678571Y-63157200D01*
X139583333Y-63204819D02*
X139583333Y-62204819D01*
X139583333Y-62585771D02*
X139678571Y-62538152D01*
X139678571Y-62538152D02*
X139869047Y-62538152D01*
X139869047Y-62538152D02*
X139964285Y-62585771D01*
X139964285Y-62585771D02*
X140011904Y-62633390D01*
X140011904Y-62633390D02*
X140059523Y-62728628D01*
X140059523Y-62728628D02*
X140059523Y-63014342D01*
X140059523Y-63014342D02*
X140011904Y-63109580D01*
X140011904Y-63109580D02*
X139964285Y-63157200D01*
X139964285Y-63157200D02*
X139869047Y-63204819D01*
X139869047Y-63204819D02*
X139678571Y-63204819D01*
X139678571Y-63204819D02*
X139583333Y-63157200D01*
X140869047Y-63157200D02*
X140773809Y-63204819D01*
X140773809Y-63204819D02*
X140583333Y-63204819D01*
X140583333Y-63204819D02*
X140488095Y-63157200D01*
X140488095Y-63157200D02*
X140440476Y-63061961D01*
X140440476Y-63061961D02*
X140440476Y-62681009D01*
X140440476Y-62681009D02*
X140488095Y-62585771D01*
X140488095Y-62585771D02*
X140583333Y-62538152D01*
X140583333Y-62538152D02*
X140773809Y-62538152D01*
X140773809Y-62538152D02*
X140869047Y-62585771D01*
X140869047Y-62585771D02*
X140916666Y-62681009D01*
X140916666Y-62681009D02*
X140916666Y-62776247D01*
X140916666Y-62776247D02*
X140440476Y-62871485D01*
X141345238Y-63204819D02*
X141345238Y-62538152D01*
X141345238Y-62728628D02*
X141392857Y-62633390D01*
X141392857Y-62633390D02*
X141440476Y-62585771D01*
X141440476Y-62585771D02*
X141535714Y-62538152D01*
X141535714Y-62538152D02*
X141630952Y-62538152D01*
X141964286Y-63204819D02*
X141964286Y-62538152D01*
X141964286Y-62728628D02*
X142011905Y-62633390D01*
X142011905Y-62633390D02*
X142059524Y-62585771D01*
X142059524Y-62585771D02*
X142154762Y-62538152D01*
X142154762Y-62538152D02*
X142250000Y-62538152D01*
X142488096Y-62538152D02*
X142726191Y-63204819D01*
X142964286Y-62538152D02*
X142726191Y-63204819D01*
X142726191Y-63204819D02*
X142630953Y-63442914D01*
X142630953Y-63442914D02*
X142583334Y-63490533D01*
X142583334Y-63490533D02*
X142488096Y-63538152D01*
X143107144Y-63300057D02*
X143869048Y-63300057D01*
X144107144Y-63204819D02*
X144107144Y-62204819D01*
X144107144Y-62204819D02*
X144488096Y-62204819D01*
X144488096Y-62204819D02*
X144583334Y-62252438D01*
X144583334Y-62252438D02*
X144630953Y-62300057D01*
X144630953Y-62300057D02*
X144678572Y-62395295D01*
X144678572Y-62395295D02*
X144678572Y-62538152D01*
X144678572Y-62538152D02*
X144630953Y-62633390D01*
X144630953Y-62633390D02*
X144583334Y-62681009D01*
X144583334Y-62681009D02*
X144488096Y-62728628D01*
X144488096Y-62728628D02*
X144107144Y-62728628D01*
X145107144Y-63204819D02*
X145107144Y-62538152D01*
X145107144Y-62204819D02*
X145059525Y-62252438D01*
X145059525Y-62252438D02*
X145107144Y-62300057D01*
X145107144Y-62300057D02*
X145154763Y-62252438D01*
X145154763Y-62252438D02*
X145107144Y-62204819D01*
X145107144Y-62204819D02*
X145107144Y-62300057D01*
X145345239Y-63300057D02*
X146107143Y-63300057D01*
X146297620Y-62300057D02*
X146345239Y-62252438D01*
X146345239Y-62252438D02*
X146440477Y-62204819D01*
X146440477Y-62204819D02*
X146678572Y-62204819D01*
X146678572Y-62204819D02*
X146773810Y-62252438D01*
X146773810Y-62252438D02*
X146821429Y-62300057D01*
X146821429Y-62300057D02*
X146869048Y-62395295D01*
X146869048Y-62395295D02*
X146869048Y-62490533D01*
X146869048Y-62490533D02*
X146821429Y-62633390D01*
X146821429Y-62633390D02*
X146250001Y-63204819D01*
X146250001Y-63204819D02*
X146869048Y-63204819D01*
X147059525Y-63300057D02*
X147821429Y-63300057D01*
X147964287Y-62204819D02*
X148583334Y-62204819D01*
X148583334Y-62204819D02*
X148250001Y-62585771D01*
X148250001Y-62585771D02*
X148392858Y-62585771D01*
X148392858Y-62585771D02*
X148488096Y-62633390D01*
X148488096Y-62633390D02*
X148535715Y-62681009D01*
X148535715Y-62681009D02*
X148583334Y-62776247D01*
X148583334Y-62776247D02*
X148583334Y-63014342D01*
X148583334Y-63014342D02*
X148535715Y-63109580D01*
X148535715Y-63109580D02*
X148488096Y-63157200D01*
X148488096Y-63157200D02*
X148392858Y-63204819D01*
X148392858Y-63204819D02*
X148107144Y-63204819D01*
X148107144Y-63204819D02*
X148011906Y-63157200D01*
X148011906Y-63157200D02*
X147964287Y-63109580D01*
D14*
%TO.C,D1*%
X162840000Y-121485000D02*
X162840000Y-124575000D01*
X162840000Y-121485170D02*
G75*
G02*
X168390000Y-123030000I2560000J-1544830D01*
G01*
X168390000Y-123030000D02*
G75*
G02*
X162840000Y-124574830I-2990000J0D01*
G01*
X167900000Y-123030000D02*
G75*
G02*
X162900000Y-123030000I-2500000J0D01*
G01*
X162900000Y-123030000D02*
G75*
G02*
X167900000Y-123030000I2500000J0D01*
G01*
%TO.C,R5*%
X162730000Y-94040000D02*
X162730000Y-94810000D01*
X162730000Y-102120000D02*
X162730000Y-101350000D01*
X161360000Y-101350000D02*
X164100000Y-101350000D01*
X164100000Y-94810000D01*
X161360000Y-94810000D01*
X161360000Y-101350000D01*
%TO.C,D6*%
X178660000Y-84605000D02*
X178660000Y-87695000D01*
X178660000Y-84605170D02*
G75*
G02*
X184210000Y-86150000I2560000J-1544830D01*
G01*
X184210000Y-86150000D02*
G75*
G02*
X178660000Y-87694830I-2990000J0D01*
G01*
X183720000Y-86150000D02*
G75*
G02*
X178720000Y-86150000I-2500000J0D01*
G01*
X178720000Y-86150000D02*
G75*
G02*
X183720000Y-86150000I2500000J0D01*
G01*
%TO.C,R12*%
X185950000Y-107690000D02*
X185950000Y-108460000D01*
X185950000Y-115770000D02*
X185950000Y-115000000D01*
X184580000Y-115000000D02*
X187320000Y-115000000D01*
X187320000Y-108460000D01*
X184580000Y-108460000D01*
X184580000Y-115000000D01*
%TO.C,J6*%
X180070000Y-115030000D02*
X180070000Y-113650000D01*
X181450000Y-115030000D02*
X180070000Y-115030000D01*
X182720000Y-112270000D02*
X182830000Y-112270000D01*
X182720000Y-115030000D02*
X182720000Y-112270000D01*
X182720000Y-115030000D02*
X182830000Y-115030000D01*
X182830000Y-115030000D02*
X182830000Y-112270000D01*
%TO.C,D2*%
X154140000Y-121485000D02*
X154140000Y-124575000D01*
X154140000Y-121485170D02*
G75*
G02*
X159690000Y-123030000I2560000J-1544830D01*
G01*
X159690000Y-123030000D02*
G75*
G02*
X154140000Y-124574830I-2990000J0D01*
G01*
X159200000Y-123030000D02*
G75*
G02*
X154200000Y-123030000I-2500000J0D01*
G01*
X154200000Y-123030000D02*
G75*
G02*
X159200000Y-123030000I2500000J0D01*
G01*
%TO.C,J9*%
X136370000Y-78630000D02*
X136370000Y-77250000D01*
X137750000Y-78630000D02*
X136370000Y-78630000D01*
X139020000Y-75870000D02*
X187390000Y-75870000D01*
X139020000Y-78630000D02*
X139020000Y-75870000D01*
X139020000Y-78630000D02*
X187390000Y-78630000D01*
X187390000Y-78630000D02*
X187390000Y-75870000D01*
%TO.C,C1*%
X123720000Y-64662651D02*
X131880000Y-64662651D01*
X123720000Y-64702651D02*
X131880000Y-64702651D01*
X123721000Y-64622651D02*
X131879000Y-64622651D01*
X123722000Y-64582651D02*
X131878000Y-64582651D01*
X123723000Y-64542651D02*
X131877000Y-64542651D01*
X123725000Y-64502651D02*
X131875000Y-64502651D01*
X123727000Y-64462651D02*
X131873000Y-64462651D01*
X123730000Y-64422651D02*
X131870000Y-64422651D01*
X123732000Y-64382651D02*
X131868000Y-64382651D01*
X123736000Y-64342651D02*
X131864000Y-64342651D01*
X123739000Y-64302651D02*
X131861000Y-64302651D01*
X123744000Y-64262651D02*
X131856000Y-64262651D01*
X123748000Y-64222651D02*
X131852000Y-64222651D01*
X123753000Y-64182651D02*
X131847000Y-64182651D01*
X123758000Y-64142651D02*
X131842000Y-64142651D01*
X123764000Y-64102651D02*
X131836000Y-64102651D01*
X123770000Y-64062651D02*
X131830000Y-64062651D01*
X123777000Y-64022651D02*
X131823000Y-64022651D01*
X123783000Y-63982651D02*
X126760000Y-63982651D01*
X123791000Y-63942651D02*
X126760000Y-63942651D01*
X123798000Y-63902651D02*
X126760000Y-63902651D01*
X123807000Y-63862651D02*
X126760000Y-63862651D01*
X123815000Y-63822651D02*
X126760000Y-63822651D01*
X123824000Y-63782651D02*
X126760000Y-63782651D01*
X123833000Y-63742651D02*
X126760000Y-63742651D01*
X123843000Y-63702651D02*
X126760000Y-63702651D01*
X123853000Y-63662651D02*
X126760000Y-63662651D01*
X123864000Y-63622651D02*
X126760000Y-63622651D01*
X123875000Y-63582651D02*
X126760000Y-63582651D01*
X123887000Y-63542651D02*
X126760000Y-63542651D01*
X123899000Y-63502651D02*
X126760000Y-63502651D01*
X123911000Y-63462651D02*
X126760000Y-63462651D01*
X123924000Y-63422651D02*
X126760000Y-63422651D01*
X123937000Y-63382651D02*
X126760000Y-63382651D01*
X123951000Y-63342651D02*
X126760000Y-63342651D01*
X123965000Y-63302651D02*
X126760000Y-63302651D01*
X123980000Y-63262651D02*
X126760000Y-63262651D01*
X123995000Y-63222651D02*
X126760000Y-63222651D01*
X124011000Y-63182651D02*
X126760000Y-63182651D01*
X124027000Y-63142651D02*
X126760000Y-63142651D01*
X124043000Y-63102651D02*
X126760000Y-63102651D01*
X124060000Y-63062651D02*
X126760000Y-63062651D01*
X124078000Y-63022651D02*
X126760000Y-63022651D01*
X124096000Y-62982651D02*
X126760000Y-62982651D01*
X124115000Y-62942651D02*
X126760000Y-62942651D01*
X124134000Y-62902651D02*
X126760000Y-62902651D01*
X124154000Y-62862651D02*
X126760000Y-62862651D01*
X124174000Y-62822651D02*
X126760000Y-62822651D01*
X124195000Y-62782651D02*
X126760000Y-62782651D01*
X124216000Y-62742651D02*
X126760000Y-62742651D01*
X124238000Y-62702651D02*
X126760000Y-62702651D01*
X124261000Y-62662651D02*
X126760000Y-62662651D01*
X124284000Y-62622651D02*
X126760000Y-62622651D01*
X124307000Y-62582651D02*
X126760000Y-62582651D01*
X124332000Y-62542651D02*
X126760000Y-62542651D01*
X124357000Y-62502651D02*
X126760000Y-62502651D01*
X124382000Y-62462651D02*
X126760000Y-62462651D01*
X124408000Y-62422651D02*
X126760000Y-62422651D01*
X124435000Y-62382651D02*
X126760000Y-62382651D01*
X124463000Y-62342651D02*
X126760000Y-62342651D01*
X124491000Y-62302651D02*
X126760000Y-62302651D01*
X124520000Y-62262651D02*
X126760000Y-62262651D01*
X124550000Y-62222651D02*
X126760000Y-62222651D01*
X124581000Y-62182651D02*
X126760000Y-62182651D01*
X124612000Y-62142651D02*
X126760000Y-62142651D01*
X124644000Y-62102651D02*
X126760000Y-62102651D01*
X124677000Y-62062651D02*
X126760000Y-62062651D01*
X124711000Y-62022651D02*
X126760000Y-62022651D01*
X124745000Y-61982651D02*
X126760000Y-61982651D01*
X124781000Y-61942651D02*
X126760000Y-61942651D01*
X124818000Y-61902651D02*
X130782000Y-61902651D01*
X124855000Y-61862651D02*
X130745000Y-61862651D01*
X124894000Y-61822651D02*
X130706000Y-61822651D01*
X124933000Y-61782651D02*
X130667000Y-61782651D01*
X124974000Y-61742651D02*
X130626000Y-61742651D01*
X125016000Y-61702651D02*
X130584000Y-61702651D01*
X125059000Y-61662651D02*
X130541000Y-61662651D01*
X125085000Y-68712349D02*
X125885000Y-68712349D01*
X125104000Y-61622651D02*
X130496000Y-61622651D01*
X125149000Y-61582651D02*
X130451000Y-61582651D01*
X125196000Y-61542651D02*
X130404000Y-61542651D01*
X125245000Y-61502651D02*
X130355000Y-61502651D01*
X125295000Y-61462651D02*
X130305000Y-61462651D01*
X125347000Y-61422651D02*
X130253000Y-61422651D01*
X125400000Y-61382651D02*
X130200000Y-61382651D01*
X125456000Y-61342651D02*
X130144000Y-61342651D01*
X125485000Y-69112349D02*
X125485000Y-68312349D01*
X125513000Y-61302651D02*
X130087000Y-61302651D01*
X125573000Y-61262651D02*
X130027000Y-61262651D01*
X125635000Y-61222651D02*
X129965000Y-61222651D01*
X125699000Y-61182651D02*
X129901000Y-61182651D01*
X125766000Y-61142651D02*
X129834000Y-61142651D01*
X125836000Y-61102651D02*
X129764000Y-61102651D01*
X125910000Y-61062651D02*
X129690000Y-61062651D01*
X125987000Y-61022651D02*
X129613000Y-61022651D01*
X126069000Y-60982651D02*
X129531000Y-60982651D01*
X126156000Y-60942651D02*
X129444000Y-60942651D01*
X126248000Y-60902651D02*
X129352000Y-60902651D01*
X126347000Y-60862651D02*
X129253000Y-60862651D01*
X126454000Y-60822651D02*
X129146000Y-60822651D01*
X126572000Y-60782651D02*
X129028000Y-60782651D01*
X126703000Y-60742651D02*
X128897000Y-60742651D01*
X126853000Y-60702651D02*
X128747000Y-60702651D01*
X127032000Y-60662651D02*
X128568000Y-60662651D01*
X127267000Y-60622651D02*
X128333000Y-60622651D01*
X128840000Y-61942651D02*
X130819000Y-61942651D01*
X128840000Y-61982651D02*
X130855000Y-61982651D01*
X128840000Y-62022651D02*
X130889000Y-62022651D01*
X128840000Y-62062651D02*
X130923000Y-62062651D01*
X128840000Y-62102651D02*
X130956000Y-62102651D01*
X128840000Y-62142651D02*
X130988000Y-62142651D01*
X128840000Y-62182651D02*
X131019000Y-62182651D01*
X128840000Y-62222651D02*
X131050000Y-62222651D01*
X128840000Y-62262651D02*
X131080000Y-62262651D01*
X128840000Y-62302651D02*
X131109000Y-62302651D01*
X128840000Y-62342651D02*
X131137000Y-62342651D01*
X128840000Y-62382651D02*
X131165000Y-62382651D01*
X128840000Y-62422651D02*
X131192000Y-62422651D01*
X128840000Y-62462651D02*
X131218000Y-62462651D01*
X128840000Y-62502651D02*
X131243000Y-62502651D01*
X128840000Y-62542651D02*
X131268000Y-62542651D01*
X128840000Y-62582651D02*
X131293000Y-62582651D01*
X128840000Y-62622651D02*
X131316000Y-62622651D01*
X128840000Y-62662651D02*
X131339000Y-62662651D01*
X128840000Y-62702651D02*
X131362000Y-62702651D01*
X128840000Y-62742651D02*
X131384000Y-62742651D01*
X128840000Y-62782651D02*
X131405000Y-62782651D01*
X128840000Y-62822651D02*
X131426000Y-62822651D01*
X128840000Y-62862651D02*
X131446000Y-62862651D01*
X128840000Y-62902651D02*
X131466000Y-62902651D01*
X128840000Y-62942651D02*
X131485000Y-62942651D01*
X128840000Y-62982651D02*
X131504000Y-62982651D01*
X128840000Y-63022651D02*
X131522000Y-63022651D01*
X128840000Y-63062651D02*
X131540000Y-63062651D01*
X128840000Y-63102651D02*
X131557000Y-63102651D01*
X128840000Y-63142651D02*
X131573000Y-63142651D01*
X128840000Y-63182651D02*
X131589000Y-63182651D01*
X128840000Y-63222651D02*
X131605000Y-63222651D01*
X128840000Y-63262651D02*
X131620000Y-63262651D01*
X128840000Y-63302651D02*
X131635000Y-63302651D01*
X128840000Y-63342651D02*
X131649000Y-63342651D01*
X128840000Y-63382651D02*
X131663000Y-63382651D01*
X128840000Y-63422651D02*
X131676000Y-63422651D01*
X128840000Y-63462651D02*
X131689000Y-63462651D01*
X128840000Y-63502651D02*
X131701000Y-63502651D01*
X128840000Y-63542651D02*
X131713000Y-63542651D01*
X128840000Y-63582651D02*
X131725000Y-63582651D01*
X128840000Y-63622651D02*
X131736000Y-63622651D01*
X128840000Y-63662651D02*
X131747000Y-63662651D01*
X128840000Y-63702651D02*
X131757000Y-63702651D01*
X128840000Y-63742651D02*
X131767000Y-63742651D01*
X128840000Y-63782651D02*
X131776000Y-63782651D01*
X128840000Y-63822651D02*
X131785000Y-63822651D01*
X128840000Y-63862651D02*
X131793000Y-63862651D01*
X128840000Y-63902651D02*
X131802000Y-63902651D01*
X128840000Y-63942651D02*
X131809000Y-63942651D01*
X128840000Y-63982651D02*
X131817000Y-63982651D01*
X131920000Y-64702651D02*
G75*
G02*
X123680000Y-64702651I-4120000J0D01*
G01*
X123680000Y-64702651D02*
G75*
G02*
X131920000Y-64702651I4120000J0D01*
G01*
%TO.C,R4*%
X162730000Y-108040000D02*
X162730000Y-108810000D01*
X162730000Y-116120000D02*
X162730000Y-115350000D01*
X161360000Y-115350000D02*
X164100000Y-115350000D01*
X164100000Y-108810000D01*
X161360000Y-108810000D01*
X161360000Y-115350000D01*
%TO.C,R15*%
X152730000Y-108040000D02*
X152730000Y-108810000D01*
X152730000Y-116120000D02*
X152730000Y-115350000D01*
X151360000Y-115350000D02*
X154100000Y-115350000D01*
X154100000Y-108810000D01*
X151360000Y-108810000D01*
X151360000Y-115350000D01*
%TO.C,R3*%
X146300000Y-108760000D02*
X146300000Y-109530000D01*
X146300000Y-116840000D02*
X146300000Y-116070000D01*
X144930000Y-116070000D02*
X147670000Y-116070000D01*
X147670000Y-109530000D01*
X144930000Y-109530000D01*
X144930000Y-116070000D01*
%TO.C,R7*%
X175950000Y-93690000D02*
X175950000Y-94460000D01*
X175950000Y-101770000D02*
X175950000Y-101000000D01*
X174580000Y-101000000D02*
X177320000Y-101000000D01*
X177320000Y-94460000D01*
X174580000Y-94460000D01*
X174580000Y-101000000D01*
%TO.C,R14*%
X157730000Y-94040000D02*
X157730000Y-94810000D01*
X157730000Y-102120000D02*
X157730000Y-101350000D01*
X159100000Y-94810000D02*
X156360000Y-94810000D01*
X156360000Y-101350000D01*
X159100000Y-101350000D01*
X159100000Y-94810000D01*
D15*
%TO.C,REF\u002A\u002A*%
G36*
X183109230Y-120904059D02*
G01*
X183241789Y-120904682D01*
X183349118Y-120906257D01*
X183437247Y-120909139D01*
X183512201Y-120913683D01*
X183580009Y-120920247D01*
X183646698Y-120929187D01*
X183711015Y-120939604D01*
X183939442Y-120986483D01*
X184176978Y-121049459D01*
X184416000Y-121125832D01*
X184648884Y-121212901D01*
X184868008Y-121307966D01*
X185065748Y-121408326D01*
X185117784Y-121437907D01*
X185165655Y-121465577D01*
X185204890Y-121485774D01*
X185241315Y-121499183D01*
X185280757Y-121506491D01*
X185329042Y-121508383D01*
X185391997Y-121505544D01*
X185475447Y-121498659D01*
X185564009Y-121490406D01*
X185809602Y-121479963D01*
X186040354Y-121496441D01*
X186257703Y-121540073D01*
X186463086Y-121611089D01*
X186545275Y-121648720D01*
X186669014Y-121720001D01*
X186768924Y-121799484D01*
X186843179Y-121885036D01*
X186889956Y-121974523D01*
X186907429Y-122065811D01*
X186907507Y-122072300D01*
X186900861Y-122125203D01*
X186877771Y-122165718D01*
X186833512Y-122198790D01*
X186763359Y-122229359D01*
X186754204Y-122232659D01*
X186618535Y-122287098D01*
X186508712Y-122345660D01*
X186419334Y-122411533D01*
X186369587Y-122459844D01*
X186311282Y-122527054D01*
X186266690Y-122590495D01*
X186235062Y-122654845D01*
X186215648Y-122724780D01*
X186207699Y-122804978D01*
X186210464Y-122900115D01*
X186223194Y-123014868D01*
X186245138Y-123153916D01*
X186252014Y-123193230D01*
X186268115Y-123285538D01*
X186280450Y-123362157D01*
X186289521Y-123429735D01*
X186295834Y-123494923D01*
X186299893Y-123564369D01*
X186302202Y-123644721D01*
X186303266Y-123742628D01*
X186303589Y-123864740D01*
X186303596Y-123873169D01*
X186301505Y-124079530D01*
X186294257Y-124261520D01*
X186280902Y-124425745D01*
X186260488Y-124578809D01*
X186232067Y-124727318D01*
X186194687Y-124877880D01*
X186147398Y-125037098D01*
X186127130Y-125099737D01*
X186027818Y-125364485D01*
X185911299Y-125605954D01*
X185774920Y-125828533D01*
X185616029Y-126036609D01*
X185454886Y-126211799D01*
X185291341Y-126366473D01*
X185126554Y-126501902D01*
X184955005Y-126621471D01*
X184771171Y-126728566D01*
X184569533Y-126826573D01*
X184344570Y-126918878D01*
X184237931Y-126958145D01*
X184157431Y-126987265D01*
X184085530Y-127013932D01*
X184028280Y-127035850D01*
X183991733Y-127050726D01*
X183983630Y-127054524D01*
X183965636Y-127074385D01*
X183938117Y-127117278D01*
X183904297Y-127177688D01*
X183867395Y-127250102D01*
X183857956Y-127269664D01*
X183800053Y-127390702D01*
X183753266Y-127487360D01*
X183715437Y-127563559D01*
X183684405Y-127623223D01*
X183658011Y-127670274D01*
X183634096Y-127708633D01*
X183610501Y-127742224D01*
X183585066Y-127774968D01*
X183568766Y-127794940D01*
X183490260Y-127880341D01*
X183393781Y-127970264D01*
X183287934Y-128057698D01*
X183181326Y-128135633D01*
X183082563Y-128197058D01*
X183061091Y-128208509D01*
X182982375Y-128246134D01*
X182924271Y-128266624D01*
X182881847Y-128270861D01*
X182850169Y-128259730D01*
X182836808Y-128248668D01*
X182818024Y-128214606D01*
X182812529Y-128182237D01*
X182814255Y-128162984D01*
X182820640Y-128140194D01*
X182833881Y-128109320D01*
X182856175Y-128065818D01*
X182889717Y-128005142D01*
X182936704Y-127922748D01*
X182944353Y-127909441D01*
X182959199Y-127882777D01*
X182970193Y-127858385D01*
X182977958Y-127831107D01*
X182983117Y-127795783D01*
X182986292Y-127747254D01*
X182988106Y-127680361D01*
X182989181Y-127589946D01*
X182989637Y-127534302D01*
X182991999Y-127233784D01*
X183043020Y-127126051D01*
X183077727Y-127056520D01*
X183117205Y-126982940D01*
X183148527Y-126928621D01*
X183176234Y-126880819D01*
X183195853Y-126842787D01*
X183203015Y-126823254D01*
X183191104Y-126808081D01*
X183158949Y-126779526D01*
X183111918Y-126742135D01*
X183072387Y-126712676D01*
X183010533Y-126665642D01*
X182952596Y-126617928D01*
X182907186Y-126576783D01*
X182890981Y-126559936D01*
X182866411Y-126525434D01*
X182832678Y-126469065D01*
X182793483Y-126397456D01*
X182752528Y-126317231D01*
X182733828Y-126278653D01*
X182693441Y-126194373D01*
X182662898Y-126133442D01*
X182638740Y-126090916D01*
X182617508Y-126061855D01*
X182595741Y-126041316D01*
X182569980Y-126024359D01*
X182546746Y-126011447D01*
X182451605Y-125957986D01*
X182382198Y-125913789D01*
X182335516Y-125875829D01*
X182308548Y-125841081D01*
X182298285Y-125806520D01*
X182301716Y-125769119D01*
X182302488Y-125765929D01*
X182316781Y-125733407D01*
X182343632Y-125709630D01*
X182387067Y-125693437D01*
X182451114Y-125683672D01*
X182539800Y-125679174D01*
X182606265Y-125678523D01*
X182707725Y-125679985D01*
X182789370Y-125685185D01*
X182862546Y-125695342D01*
X182938599Y-125711676D01*
X182956717Y-125716188D01*
X183087734Y-125754184D01*
X183198156Y-125798339D01*
X183294858Y-125853183D01*
X183384714Y-125923249D01*
X183474596Y-126013070D01*
X183561530Y-126114959D01*
X183633235Y-126201311D01*
X183691290Y-126265106D01*
X183739843Y-126309487D01*
X183783040Y-126337597D01*
X183825031Y-126352580D01*
X183869963Y-126357578D01*
X183881775Y-126357640D01*
X183966360Y-126343241D01*
X184059985Y-126303715D01*
X184158187Y-126242130D01*
X184256503Y-126161553D01*
X184350469Y-126065051D01*
X184404952Y-125998087D01*
X184478875Y-125900436D01*
X184499424Y-125617167D01*
X184509068Y-125450610D01*
X184511589Y-125306711D01*
X184506656Y-125177610D01*
X184493938Y-125055451D01*
X184473102Y-124932375D01*
X184469832Y-124916151D01*
X184434843Y-124785542D01*
X184385149Y-124672561D01*
X184316741Y-124571249D01*
X184225611Y-124475648D01*
X184110263Y-124381660D01*
X184052086Y-124342508D01*
X183978579Y-124298789D01*
X183897488Y-124254510D01*
X183816555Y-124213681D01*
X183743527Y-124180310D01*
X183686148Y-124158405D01*
X183670422Y-124154006D01*
X183629829Y-124144519D01*
X183636082Y-124289041D01*
X183645886Y-124433625D01*
X183663227Y-124555810D01*
X183690586Y-124664044D01*
X183730444Y-124766779D01*
X183785282Y-124872463D01*
X183828333Y-124943876D01*
X183870487Y-125020489D01*
X183888192Y-125078891D01*
X183880563Y-125120348D01*
X183846719Y-125146125D01*
X183785777Y-125157490D01*
X183696855Y-125155708D01*
X183681579Y-125154433D01*
X183519045Y-125124686D01*
X183367629Y-125066133D01*
X183228615Y-124979638D01*
X183103289Y-124866070D01*
X182992934Y-124726296D01*
X182952848Y-124662523D01*
X182914189Y-124586374D01*
X182875029Y-124491447D01*
X182838883Y-124388156D01*
X182809270Y-124286916D01*
X182789705Y-124198141D01*
X182785243Y-124166246D01*
X182776610Y-124084184D01*
X182665474Y-124085093D01*
X182602097Y-124087278D01*
X182520018Y-124092443D01*
X182431561Y-124099729D01*
X182374584Y-124105398D01*
X182194830Y-124124795D01*
X181561784Y-124445239D01*
X181381155Y-124536199D01*
X181225418Y-124613429D01*
X181091923Y-124677987D01*
X180978022Y-124730935D01*
X180881064Y-124773333D01*
X180798402Y-124806240D01*
X180727386Y-124830719D01*
X180665367Y-124847829D01*
X180609695Y-124858630D01*
X180557723Y-124864183D01*
X180511739Y-124865570D01*
X180404203Y-124855117D01*
X180309938Y-124825565D01*
X180234807Y-124779175D01*
X180203244Y-124746641D01*
X180167969Y-124701796D01*
X180204476Y-124691533D01*
X180239831Y-124685690D01*
X180293045Y-124681308D01*
X180336229Y-124679711D01*
X180458490Y-124663361D01*
X180592087Y-124618271D01*
X180736596Y-124544664D01*
X180891594Y-124442765D01*
X181056657Y-124312800D01*
X181100676Y-124274872D01*
X181183915Y-124201191D01*
X181272993Y-124121034D01*
X181364711Y-124037406D01*
X181455871Y-123953313D01*
X181543273Y-123871759D01*
X181623718Y-123795751D01*
X181694005Y-123728293D01*
X181750936Y-123672390D01*
X181791312Y-123631048D01*
X181811932Y-123607272D01*
X181812783Y-123605978D01*
X181836914Y-123547634D01*
X181840603Y-123490560D01*
X181825856Y-123441707D01*
X181794675Y-123408026D01*
X181752375Y-123396410D01*
X181736717Y-123400103D01*
X181714875Y-123412577D01*
X181684572Y-123435906D01*
X181643532Y-123472163D01*
X181589479Y-123523422D01*
X181520137Y-123591756D01*
X181433229Y-123679240D01*
X181358584Y-123755165D01*
X181241642Y-123874100D01*
X181143097Y-123973278D01*
X181059763Y-124055560D01*
X180988452Y-124123802D01*
X180925979Y-124180864D01*
X180869155Y-124229604D01*
X180814793Y-124272881D01*
X180759708Y-124313552D01*
X180700712Y-124354476D01*
X180659943Y-124381780D01*
X180565093Y-124441899D01*
X180484508Y-124485316D01*
X180408828Y-124515807D01*
X180328696Y-124537143D01*
X180235258Y-124553029D01*
X180177541Y-124561945D01*
X180131963Y-124570538D01*
X180107412Y-124577108D01*
X180106275Y-124577695D01*
X180090643Y-124572974D01*
X180076908Y-124542939D01*
X180066672Y-124493537D01*
X180061537Y-124430716D01*
X180061230Y-124410445D01*
X180067550Y-124337429D01*
X180088165Y-124264770D01*
X180125562Y-124187190D01*
X180182223Y-124099408D01*
X180249806Y-124009767D01*
X180320871Y-123914281D01*
X180380765Y-123822663D01*
X180426910Y-123739571D01*
X180456722Y-123669667D01*
X180467622Y-123617611D01*
X180467630Y-123616493D01*
X180460671Y-123578297D01*
X180442378Y-123524162D01*
X180416626Y-123465460D01*
X180415143Y-123462471D01*
X180366363Y-123362405D01*
X180330863Y-123281681D01*
X180306576Y-123212405D01*
X180291437Y-123146680D01*
X180283382Y-123076614D01*
X180280344Y-122994311D01*
X180280061Y-122946128D01*
X180281141Y-122851273D01*
X180285129Y-122777772D01*
X180291969Y-122724899D01*
X181504145Y-122724899D01*
X181524195Y-122812428D01*
X181573265Y-122894870D01*
X181590214Y-122914278D01*
X181668871Y-122978043D01*
X181756824Y-123012074D01*
X181852723Y-123015991D01*
X181909996Y-123004721D01*
X181992453Y-122966791D01*
X182059306Y-122906625D01*
X182106942Y-122830467D01*
X182131750Y-122744563D01*
X182130119Y-122655157D01*
X182125107Y-122632806D01*
X182087446Y-122547089D01*
X182028938Y-122479553D01*
X181955159Y-122431902D01*
X181935178Y-122425663D01*
X183314629Y-122425663D01*
X183315282Y-122431472D01*
X183327403Y-122457908D01*
X183359356Y-122469883D01*
X183370874Y-122471285D01*
X183398735Y-122469399D01*
X183437570Y-122458034D01*
X183491475Y-122435503D01*
X183564545Y-122400117D01*
X183647477Y-122357253D01*
X183822635Y-122268133D01*
X183977775Y-122196385D01*
X184117811Y-122140512D01*
X184247652Y-122099022D01*
X184372210Y-122070420D01*
X184496396Y-122053211D01*
X184625120Y-122045901D01*
X184672307Y-122045404D01*
X184848815Y-122052845D01*
X185009885Y-122076838D01*
X185168009Y-122119889D01*
X185308901Y-122173117D01*
X185400601Y-122213457D01*
X185465948Y-122247399D01*
X185508530Y-122277538D01*
X185531936Y-122306470D01*
X185539752Y-122336788D01*
X185539815Y-122340096D01*
X185537131Y-122361802D01*
X185525796Y-122381076D01*
X185500881Y-122402205D01*
X185457460Y-122429472D01*
X185399138Y-122462443D01*
X185332445Y-122499729D01*
X185248424Y-122547189D01*
X185156788Y-122599312D01*
X185067251Y-122650586D01*
X185047446Y-122661984D01*
X184884781Y-122753338D01*
X184743008Y-122827334D01*
X184618069Y-122885448D01*
X184505903Y-122929156D01*
X184402450Y-122959934D01*
X184303653Y-122979256D01*
X184205450Y-122988600D01*
X184144998Y-122990030D01*
X184063888Y-122995562D01*
X184007234Y-123011345D01*
X183976671Y-123036157D01*
X183973834Y-123068780D01*
X183994791Y-123102122D01*
X184009014Y-123113927D01*
X184030221Y-123122003D01*
X184063943Y-123127029D01*
X184115712Y-123129683D01*
X184191061Y-123130644D01*
X184227740Y-123130707D01*
X184314445Y-123130235D01*
X184379223Y-123127876D01*
X184431404Y-123122212D01*
X184480319Y-123111828D01*
X184535297Y-123095307D01*
X184594964Y-123074965D01*
X184695741Y-123037204D01*
X184801513Y-122991936D01*
X184916000Y-122937261D01*
X185042922Y-122871280D01*
X185186000Y-122792092D01*
X185348955Y-122697799D01*
X185443974Y-122641454D01*
X185579297Y-122559547D01*
X185688303Y-122491024D01*
X185772421Y-122434866D01*
X185833080Y-122390053D01*
X185871708Y-122355564D01*
X185889734Y-122330382D01*
X185891507Y-122322077D01*
X185877899Y-122288841D01*
X185839856Y-122246364D01*
X185781550Y-122198010D01*
X185707153Y-122147145D01*
X185620836Y-122097135D01*
X185597747Y-122085091D01*
X185537771Y-122058277D01*
X185456067Y-122026898D01*
X185361276Y-121993794D01*
X185262044Y-121961805D01*
X185167012Y-121933770D01*
X185084825Y-121912530D01*
X185049851Y-121905078D01*
X184901729Y-121883846D01*
X184736325Y-121871790D01*
X184566393Y-121869416D01*
X184404683Y-121877225D01*
X184386341Y-121878880D01*
X184159609Y-121916080D01*
X183939448Y-121983636D01*
X183726921Y-122081130D01*
X183523095Y-122208143D01*
X183494674Y-122228728D01*
X183419037Y-122286197D01*
X183366554Y-122330849D01*
X183333886Y-122366461D01*
X183317691Y-122396807D01*
X183314629Y-122425663D01*
X181935178Y-122425663D01*
X181871690Y-122405839D01*
X181784108Y-122403069D01*
X181697993Y-122425295D01*
X181618924Y-122474220D01*
X181615488Y-122477193D01*
X181550054Y-122552742D01*
X181512852Y-122636824D01*
X181504145Y-122724899D01*
X180291969Y-122724899D01*
X180293150Y-122715772D01*
X180306329Y-122655415D01*
X180318095Y-122612733D01*
X180397709Y-122394479D01*
X180505987Y-122185953D01*
X180641530Y-121988314D01*
X180802938Y-121802718D01*
X180988813Y-121630324D01*
X181197756Y-121472289D01*
X181428365Y-121329770D01*
X181679243Y-121203926D01*
X181948991Y-121095914D01*
X182236207Y-121006891D01*
X182269965Y-120998008D01*
X182380010Y-120970137D01*
X182473503Y-120948317D01*
X182556897Y-120931825D01*
X182636642Y-120919939D01*
X182719189Y-120911937D01*
X182810992Y-120907096D01*
X182918500Y-120904695D01*
X183048165Y-120904011D01*
X183109230Y-120904059D01*
G37*
D14*
%TO.C,D4*%
X131700000Y-82100000D02*
X131700000Y-82580000D01*
X131700000Y-85940000D02*
X131700000Y-85460000D01*
X138160000Y-85940000D02*
X138160000Y-82100000D01*
X138280000Y-85940000D02*
X138280000Y-82100000D01*
X138400000Y-85940000D02*
X138400000Y-82100000D01*
X139540000Y-82100000D02*
X131700000Y-82100000D01*
X139540000Y-82580000D02*
X139540000Y-82100000D01*
X139540000Y-85460000D02*
X139540000Y-85940000D01*
X139540000Y-85940000D02*
X131700000Y-85940000D01*
%TO.C,J4*%
X136580000Y-90600000D02*
X137960000Y-90600000D01*
X136580000Y-91980000D02*
X136580000Y-90600000D01*
X136580000Y-93250000D02*
X136580000Y-106060000D01*
X136580000Y-93250000D02*
X139230000Y-93250000D01*
X136580000Y-106060000D02*
X141880000Y-106060000D01*
X139230000Y-90600000D02*
X141880000Y-90600000D01*
X139230000Y-93250000D02*
X139230000Y-90600000D01*
X141880000Y-90600000D02*
X141880000Y-106060000D01*
%TO.C,J5*%
X180070000Y-110530000D02*
X180070000Y-109150000D01*
X181450000Y-110530000D02*
X180070000Y-110530000D01*
X182720000Y-107770000D02*
X182830000Y-107770000D01*
X182720000Y-110530000D02*
X182720000Y-107770000D01*
X182720000Y-110530000D02*
X182830000Y-110530000D01*
X182830000Y-110530000D02*
X182830000Y-107770000D01*
%TO.C,J2*%
X156850000Y-115380000D02*
X156850000Y-114000000D01*
X158230000Y-115380000D02*
X156850000Y-115380000D01*
X159500000Y-112620000D02*
X159610000Y-112620000D01*
X159500000Y-115380000D02*
X159500000Y-112620000D01*
X159500000Y-115380000D02*
X159610000Y-115380000D01*
X159610000Y-115380000D02*
X159610000Y-112620000D01*
%TO.C,J8*%
X129880000Y-109020000D02*
X140620000Y-109020000D01*
X129880000Y-112640000D02*
X131120000Y-112640000D01*
X129880000Y-113640000D02*
X131120000Y-113640000D01*
X129880000Y-114940000D02*
X131120000Y-114940000D01*
X129880000Y-117060000D02*
X129880000Y-109020000D01*
X132700000Y-117060000D02*
X129880000Y-117060000D01*
X134880000Y-112640000D02*
X136188000Y-112640000D01*
X134880000Y-113640000D02*
X136188000Y-113640000D01*
X134880000Y-114940000D02*
X137457000Y-114940000D01*
X138543000Y-114940000D02*
X140620000Y-114940000D01*
X139812000Y-112640000D02*
X140620000Y-112640000D01*
X139812000Y-113640000D02*
X140620000Y-113640000D01*
X140620000Y-109020000D02*
X140620000Y-117060000D01*
X140620000Y-117060000D02*
X133300000Y-117060000D01*
X133440000Y-117670000D02*
X132560000Y-117670000D01*
X133000000Y-117060000D01*
X133440000Y-117670000D01*
G36*
X133440000Y-117670000D02*
G01*
X132560000Y-117670000D01*
X133000000Y-117060000D01*
X133440000Y-117670000D01*
G37*
%TO.C,R10*%
X185950000Y-93690000D02*
X185950000Y-94460000D01*
X185950000Y-101770000D02*
X185950000Y-101000000D01*
X184580000Y-101000000D02*
X187320000Y-101000000D01*
X187320000Y-94460000D01*
X184580000Y-94460000D01*
X184580000Y-101000000D01*
%TO.C,J10*%
X136290000Y-67630000D02*
X136290000Y-66250000D01*
X137670000Y-67630000D02*
X136290000Y-67630000D01*
X138940000Y-64870000D02*
X187310000Y-64870000D01*
X138940000Y-67630000D02*
X138940000Y-64870000D01*
X138940000Y-67630000D02*
X187310000Y-67630000D01*
X187310000Y-67630000D02*
X187310000Y-64870000D01*
%TO.C,R13*%
X152730000Y-94040000D02*
X152730000Y-94810000D01*
X152730000Y-102120000D02*
X152730000Y-101350000D01*
X151360000Y-101350000D02*
X154100000Y-101350000D01*
X154100000Y-94810000D01*
X151360000Y-94810000D01*
X151360000Y-101350000D01*
%TO.C,J7*%
X156850000Y-110880000D02*
X156850000Y-109500000D01*
X158230000Y-110880000D02*
X156850000Y-110880000D01*
X159500000Y-108120000D02*
X159610000Y-108120000D01*
X159500000Y-110880000D02*
X159500000Y-108120000D01*
X159500000Y-110880000D02*
X159610000Y-110880000D01*
X159610000Y-110880000D02*
X159610000Y-108120000D01*
%TO.C,R1*%
X146300000Y-82340000D02*
X146300000Y-83110000D01*
X146300000Y-90420000D02*
X146300000Y-89650000D01*
X144930000Y-89650000D02*
X147670000Y-89650000D01*
X147670000Y-83110000D01*
X144930000Y-83110000D01*
X144930000Y-89650000D01*
%TO.C,R8*%
X180950000Y-93690000D02*
X180950000Y-94460000D01*
X180950000Y-101770000D02*
X180950000Y-101000000D01*
X182320000Y-94460000D02*
X179580000Y-94460000D01*
X179580000Y-101000000D01*
X182320000Y-101000000D01*
X182320000Y-94460000D01*
%TO.C,D7*%
X186620000Y-84605000D02*
X186620000Y-87695000D01*
X186620000Y-84605170D02*
G75*
G02*
X192170000Y-86150000I2560000J-1544830D01*
G01*
X192170000Y-86150000D02*
G75*
G02*
X186620000Y-87694830I-2990000J0D01*
G01*
X191680000Y-86150000D02*
G75*
G02*
X186680000Y-86150000I-2500000J0D01*
G01*
X186680000Y-86150000D02*
G75*
G02*
X191680000Y-86150000I2500000J0D01*
G01*
%TO.C,R11*%
X190950000Y-93690000D02*
X190950000Y-94460000D01*
X190950000Y-101770000D02*
X190950000Y-101000000D01*
X189580000Y-101000000D02*
X192320000Y-101000000D01*
X192320000Y-94460000D01*
X189580000Y-94460000D01*
X189580000Y-101000000D01*
%TO.C,D5*%
X158110000Y-84655000D02*
X158110000Y-87745000D01*
X158110000Y-84655170D02*
G75*
G02*
X163660000Y-86200000I2560000J-1544830D01*
G01*
X163660000Y-86200000D02*
G75*
G02*
X158110000Y-87744830I-2990000J0D01*
G01*
X163170000Y-86200000D02*
G75*
G02*
X158170000Y-86200000I-2500000J0D01*
G01*
X158170000Y-86200000D02*
G75*
G02*
X163170000Y-86200000I2500000J0D01*
G01*
%TO.C,R9*%
X175950000Y-107610000D02*
X175950000Y-108380000D01*
X175950000Y-115690000D02*
X175950000Y-114920000D01*
X174580000Y-114920000D02*
X177320000Y-114920000D01*
X177320000Y-108380000D01*
X174580000Y-108380000D01*
X174580000Y-114920000D01*
%TO.C,D8*%
X150380000Y-84615000D02*
X150380000Y-87705000D01*
X150380000Y-84615170D02*
G75*
G02*
X155930000Y-86160000I2560000J-1544830D01*
G01*
X155930000Y-86160000D02*
G75*
G02*
X150380000Y-87704830I-2990000J0D01*
G01*
X155440000Y-86160000D02*
G75*
G02*
X150440000Y-86160000I-2500000J0D01*
G01*
X150440000Y-86160000D02*
G75*
G02*
X155440000Y-86160000I2500000J0D01*
G01*
%TO.C,D3*%
X145440000Y-121385000D02*
X145440000Y-124475000D01*
X145440000Y-121385170D02*
G75*
G02*
X150990000Y-122930000I2560000J-1544830D01*
G01*
X150990000Y-122930000D02*
G75*
G02*
X145440000Y-124474830I-2990000J0D01*
G01*
X150500000Y-122930000D02*
G75*
G02*
X145500000Y-122930000I-2500000J0D01*
G01*
X145500000Y-122930000D02*
G75*
G02*
X150500000Y-122930000I2500000J0D01*
G01*
%TO.C,R6*%
X167230000Y-94040000D02*
X167230000Y-94810000D01*
X167230000Y-102120000D02*
X167230000Y-101350000D01*
X165860000Y-101350000D02*
X168600000Y-101350000D01*
X168600000Y-94810000D01*
X165860000Y-94810000D01*
X165860000Y-101350000D01*
%TO.C,SW1*%
X167450000Y-85400000D02*
X167450000Y-86900000D01*
X168700000Y-89400000D02*
X173200000Y-89400000D01*
X173200000Y-82900000D02*
X168700000Y-82900000D01*
X174450000Y-86900000D02*
X174450000Y-85400000D01*
%TO.C,J3*%
X129580000Y-90600000D02*
X130960000Y-90600000D01*
X129580000Y-91980000D02*
X129580000Y-90600000D01*
X129580000Y-93250000D02*
X129580000Y-106060000D01*
X129580000Y-93250000D02*
X132230000Y-93250000D01*
X129580000Y-106060000D02*
X134880000Y-106060000D01*
X132230000Y-90600000D02*
X134880000Y-90600000D01*
X132230000Y-93250000D02*
X132230000Y-90600000D01*
X134880000Y-90600000D02*
X134880000Y-106060000D01*
%TO.C,R2*%
X146300000Y-95640000D02*
X146300000Y-96410000D01*
X146300000Y-103720000D02*
X146300000Y-102950000D01*
X144930000Y-102950000D02*
X147670000Y-102950000D01*
X147670000Y-96410000D01*
X144930000Y-96410000D01*
X144930000Y-102950000D01*
%TD*%
M02*
