M48
; DRILL file {KiCad 9.0.5} date 2025-12-06T18:04:39+0330
; FORMAT={-:-/ absolute / metric / decimal}
; #@! TF.CreationDate,2025-12-06T18:04:39+03:30
; #@! TF.GenerationSoftware,Kicad,Pcbnew,9.0.5
; #@! TF.FileFunction,Plated,1,2,PTH
FMAT,2
METRIC
; #@! TA.AperFunction,Plated,PTH,ComponentDrill
T1C0.800
; #@! TA.AperFunction,Plated,PTH,ComponentDrill
T2C0.900
; #@! TA.AperFunction,Plated,PTH,ComponentDrill
T3C1.000
; #@! TA.AperFunction,Plated,PTH,ComponentDrill
T4C1.100
; #@! TA.AperFunction,Plated,PTH,ComponentDrill
T5C1.200
; #@! TA.AperFunction,Plated,PTH,ComponentDrill
T6C1.300
%
G90
G05
T1
X127.8Y-62.953
X127.8Y-66.453
X146.3Y-81.3
X146.3Y-91.46
X146.3Y-94.6
X146.3Y-104.76
X146.3Y-107.72
X146.3Y-117.88
X152.73Y-93.0
X152.73Y-103.16
X152.73Y-107.0
X152.73Y-117.16
X157.73Y-93.0
X157.73Y-103.16
X162.73Y-93.0
X162.73Y-103.16
X162.73Y-107.0
X162.73Y-117.16
X167.23Y-93.0
X167.23Y-103.16
X175.95Y-92.65
X175.95Y-102.81
X175.95Y-106.57
X175.95Y-116.73
X180.95Y-92.65
X180.95Y-102.81
X185.95Y-92.65
X185.95Y-102.81
X185.95Y-106.65
X185.95Y-116.81
X190.95Y-92.65
X190.95Y-102.81
T2
X146.73Y-122.93
X149.27Y-122.93
X151.67Y-86.16
X154.21Y-86.16
X155.43Y-123.03
X157.97Y-123.03
X159.4Y-86.2
X161.94Y-86.2
X164.13Y-123.03
X166.67Y-123.03
X179.95Y-86.15
X182.49Y-86.15
X187.91Y-86.15
X190.45Y-86.15
T3
X130.96Y-91.98
X130.96Y-94.52
X130.96Y-97.06
X130.96Y-99.6
X130.96Y-102.14
X130.96Y-104.68
X133.5Y-91.98
X133.5Y-94.52
X133.5Y-97.06
X133.5Y-99.6
X133.5Y-102.14
X133.5Y-104.68
X137.67Y-66.25
X137.74Y-70.5
X137.74Y-73.04
X137.75Y-77.25
X137.96Y-91.98
X137.96Y-94.52
X137.96Y-97.06
X137.96Y-99.6
X137.96Y-102.14
X137.96Y-104.68
X140.21Y-66.25
X140.28Y-70.5
X140.28Y-73.04
X140.29Y-77.25
X140.5Y-91.98
X140.5Y-94.52
X140.5Y-97.06
X140.5Y-99.6
X140.5Y-102.14
X140.5Y-104.68
X142.75Y-66.25
X142.82Y-70.5
X142.82Y-73.04
X142.83Y-77.25
X145.29Y-66.25
X145.36Y-70.5
X145.36Y-73.04
X145.37Y-77.25
X147.83Y-66.25
X147.9Y-70.5
X147.9Y-73.04
X147.91Y-77.25
X150.37Y-66.25
X150.44Y-70.5
X150.44Y-73.04
X150.45Y-77.25
X152.91Y-66.25
X152.98Y-70.5
X152.98Y-73.04
X152.99Y-77.25
X155.45Y-66.25
X155.52Y-70.5
X155.52Y-73.04
X155.53Y-77.25
X157.99Y-66.25
X158.06Y-70.5
X158.06Y-73.04
X158.07Y-77.25
X158.23Y-109.5
X158.23Y-114.0
X160.53Y-66.25
X160.6Y-70.5
X160.6Y-73.04
X160.61Y-77.25
X163.07Y-66.25
X163.14Y-70.5
X163.14Y-73.04
X163.15Y-77.25
X165.61Y-66.25
X165.68Y-70.5
X165.68Y-73.04
X165.69Y-77.25
X168.15Y-66.25
X168.22Y-70.5
X168.22Y-73.04
X168.23Y-77.25
X170.69Y-66.25
X170.76Y-70.5
X170.76Y-73.04
X170.77Y-77.25
X173.23Y-66.25
X173.3Y-70.5
X173.3Y-73.04
X173.31Y-77.25
X175.77Y-66.25
X175.84Y-70.5
X175.84Y-73.04
X175.85Y-77.25
X178.31Y-66.25
X178.38Y-70.5
X178.38Y-73.04
X178.39Y-77.25
X180.85Y-66.25
X180.92Y-70.5
X180.92Y-73.04
X180.93Y-77.25
X181.45Y-109.15
X181.45Y-113.65
X183.39Y-66.25
X183.46Y-70.5
X183.46Y-73.04
X183.47Y-77.25
X185.93Y-66.25
X186.0Y-70.5
X186.0Y-73.04
X186.01Y-77.25
T4
X167.7Y-83.9
X167.7Y-88.4
X174.2Y-83.9
X174.2Y-88.4
T5
X130.54Y-84.02
X140.7Y-84.02
T6
X133.0Y-113.14
X138.0Y-113.14
M30
